<svg width="268" height="268" viewBox="0 0 268 268" fill="none" xmlns="http://www.w3.org/2000/svg">
<path d="M230.214 121.001C211.663 113.104 194.796 101.729 180.522 87.4895C160.644 67.5719 146.463 42.6944 139.451 15.4422C139.143 14.2318 138.441 13.1585 137.455 12.3918C136.469 11.6252 135.256 11.209 134.007 11.209C132.758 11.209 131.545 11.6252 130.559 12.3918C129.573 13.1585 128.871 14.2318 128.564 15.4422C121.537 42.6909 107.353 67.5655 87.4814 87.4895C73.2063 101.727 56.3393 113.102 37.7898 121.001C30.5314 124.127 23.0721 126.64 15.4341 128.572C14.2163 128.871 13.134 129.57 12.3603 130.557C11.5865 131.544 11.166 132.761 11.166 134.015C11.166 135.269 11.5865 136.487 12.3603 137.474C13.134 138.461 14.2163 139.16 15.4341 139.459C23.0721 141.38 30.5091 143.892 37.7898 147.019C56.3403 154.916 73.2077 166.291 87.4814 180.53C107.365 200.45 121.55 225.331 128.564 252.589C128.863 253.806 129.562 254.889 130.549 255.663C131.536 256.436 132.753 256.857 134.007 256.857C135.261 256.857 136.479 256.436 137.466 255.663C138.453 254.889 139.152 253.806 139.451 252.589C141.372 244.94 143.884 237.503 147.011 230.222C154.908 211.671 166.283 194.804 180.522 180.53C200.444 160.651 225.325 146.47 252.581 139.459C253.791 139.152 254.864 138.449 255.631 137.463C256.398 136.478 256.814 135.264 256.814 134.015C256.814 132.767 256.398 131.553 255.631 130.567C254.864 129.582 253.791 128.879 252.581 128.572C244.935 126.648 237.456 124.116 230.214 121.001Z" fill="#8C2CF6"/>
<path d="M230.214 121.001C211.663 113.104 194.796 101.729 180.522 87.4895C160.644 67.5719 146.463 42.6944 139.451 15.4422C139.143 14.2318 138.441 13.1585 137.455 12.3918C136.469 11.6252 135.256 11.209 134.007 11.209C132.758 11.209 131.545 11.6252 130.559 12.3918C129.573 13.1585 128.871 14.2318 128.564 15.4422C121.537 42.6909 107.353 67.5655 87.4814 87.4895C73.2063 101.727 56.3393 113.102 37.7898 121.001C30.5314 124.127 23.0721 126.64 15.4341 128.572C14.2163 128.871 13.134 129.57 12.3603 130.557C11.5865 131.544 11.166 132.761 11.166 134.015C11.166 135.269 11.5865 136.487 12.3603 137.474C13.134 138.461 14.2163 139.16 15.4341 139.459C23.0721 141.38 30.5091 143.892 37.7898 147.019C56.3403 154.916 73.2077 166.291 87.4814 180.53C107.365 200.45 121.55 225.331 128.564 252.589C128.863 253.806 129.562 254.889 130.549 255.663C131.536 256.436 132.753 256.857 134.007 256.857C135.261 256.857 136.479 256.436 137.466 255.663C138.453 254.889 139.152 253.806 139.451 252.589C141.372 244.94 143.884 237.503 147.011 230.222C154.908 211.671 166.283 194.804 180.522 180.53C200.444 160.651 225.325 146.47 252.581 139.459C253.791 139.152 254.864 138.449 255.631 137.463C256.398 136.478 256.814 135.264 256.814 134.015C256.814 132.767 256.398 131.553 255.631 130.567C254.864 129.582 253.791 128.879 252.581 128.572C244.935 126.648 237.456 124.116 230.214 121.001Z" fill="url(#paint0_linear_1196_53)"/>
<path d="M230.214 121.001C211.663 113.104 194.796 101.729 180.522 87.4895C160.644 67.5719 146.463 42.6944 139.451 15.4422C139.143 14.2318 138.441 13.1585 137.455 12.3918C136.469 11.6252 135.256 11.209 134.007 11.209C132.758 11.209 131.545 11.6252 130.559 12.3918C129.573 13.1585 128.871 14.2318 128.564 15.4422C121.537 42.6909 107.353 67.5655 87.4814 87.4895C73.2063 101.727 56.3393 113.102 37.7898 121.001C30.5314 124.127 23.0721 126.64 15.4341 128.572C14.2163 128.871 13.134 129.57 12.3603 130.557C11.5865 131.544 11.166 132.761 11.166 134.015C11.166 135.269 11.5865 136.487 12.3603 137.474C13.134 138.461 14.2163 139.16 15.4341 139.459C23.0721 141.38 30.5091 143.892 37.7898 147.019C56.3403 154.916 73.2077 166.291 87.4814 180.53C107.365 200.45 121.55 225.331 128.564 252.589C128.863 253.806 129.562 254.889 130.549 255.663C131.536 256.436 132.753 256.857 134.007 256.857C135.261 256.857 136.479 256.436 137.466 255.663C138.453 254.889 139.152 253.806 139.451 252.589C141.372 244.94 143.884 237.503 147.011 230.222C154.908 211.671 166.283 194.804 180.522 180.53C200.444 160.651 225.325 146.47 252.581 139.459C253.791 139.152 254.864 138.449 255.631 137.463C256.398 136.478 256.814 135.264 256.814 134.015C256.814 132.767 256.398 131.553 255.631 130.567C254.864 129.582 253.791 128.879 252.581 128.572C244.935 126.648 237.456 124.116 230.214 121.001Z" fill="url(#paint1_linear_1196_53)"/>
<path d="M230.214 121.001C211.663 113.104 194.796 101.729 180.522 87.4895C160.644 67.5719 146.463 42.6944 139.451 15.4422C139.143 14.2318 138.441 13.1585 137.455 12.3918C136.469 11.6252 135.256 11.209 134.007 11.209C132.758 11.209 131.545 11.6252 130.559 12.3918C129.573 13.1585 128.871 14.2318 128.564 15.4422C121.537 42.6909 107.353 67.5655 87.4814 87.4895C73.2063 101.727 56.3393 113.102 37.7898 121.001C30.5314 124.127 23.0721 126.64 15.4341 128.572C14.2163 128.871 13.134 129.57 12.3603 130.557C11.5865 131.544 11.166 132.761 11.166 134.015C11.166 135.269 11.5865 136.487 12.3603 137.474C13.134 138.461 14.2163 139.16 15.4341 139.459C23.0721 141.38 30.5091 143.892 37.7898 147.019C56.3403 154.916 73.2077 166.291 87.4814 180.53C107.365 200.45 121.55 225.331 128.564 252.589C128.863 253.806 129.562 254.889 130.549 255.663C131.536 256.436 132.753 256.857 134.007 256.857C135.261 256.857 136.479 256.436 137.466 255.663C138.453 254.889 139.152 253.806 139.451 252.589C141.372 244.94 143.884 237.503 147.011 230.222C154.908 211.671 166.283 194.804 180.522 180.53C200.444 160.651 225.325 146.47 252.581 139.459C253.791 139.152 254.864 138.449 255.631 137.463C256.398 136.478 256.814 135.264 256.814 134.015C256.814 132.767 256.398 131.553 255.631 130.567C254.864 129.582 253.791 128.879 252.581 128.572C244.935 126.648 237.456 124.116 230.214 121.001Z" fill="url(#paint2_linear_1196_53)"/>
<defs>
<linearGradient id="paint0_linear_1196_53" x1="78.1684" y1="173.093" x2="122.835" y2="134.01" gradientUnits="userSpaceOnUse">
<stop stop-color="#1F60DB"/>
<stop offset="1" stop-color="#1F60DB" stop-opacity="0"/>
</linearGradient>
<linearGradient id="paint1_linear_1196_53" x1="89.3351" y1="61.4265" x2="128.418" y2="122.843" gradientUnits="userSpaceOnUse">
<stop stop-color="#E143F9"/>
<stop offset="1" stop-color="#F94543" stop-opacity="0"/>
</linearGradient>
<linearGradient id="paint2_linear_1196_53" x1="39.0851" y1="150.76" x2="271.5" y2="134" gradientUnits="userSpaceOnUse">
<stop stop-color="#23E2E0"/>
<stop offset="0.46" stop-color="#23E2E0" stop-opacity="0"/>
</linearGradient>
</defs>
</svg>
