<svg width="48" height="48" viewBox="0 0 48 48" fill="none" xmlns="http://www.w3.org/2000/svg">
<circle cx="24" cy="24" r="18" fill="url(#paint0_linear_1210_196)"/>
<path d="M24 44C12.9543 44 4 35.0456 4 24C4 12.9543 12.9543 4 24 4C35.0456 4 44 12.9543 44 24C44 35.0456 35.0456 44 24 44ZM24 40C32.8366 40 40 32.8366 40 24C40 15.1634 32.8366 8 24 8C15.1634 8 8 15.1634 8 24C8 32.8366 15.1634 40 24 40ZM14 23L32 16L25 34.0042L22 26L14 23Z" fill="white"/>
<defs>
<linearGradient id="paint0_linear_1210_196" x1="39.5251" y1="50.1" x2="-2.03122" y2="16.2803" gradientUnits="userSpaceOnUse">
<stop stop-color="#8C2CF6" stop-opacity="0.4"/>
<stop offset="1" stop-color="#8C2CF6" stop-opacity="0"/>
</linearGradient>
</defs>
</svg>
