<svg width="48" height="48" viewBox="0 0 48 48" fill="none" xmlns="http://www.w3.org/2000/svg">
<g clip-path="url(#clip0_1210_193)">
<path d="M37.4492 56C34.2162 59.0969 29.8305 61 25 61C20.1695 61 15.7838 59.0969 12.5508 56H37.4492ZM25.5 5C31.299 5 36 9.70101 36 15.5C36 20.1023 33.0379 24.0097 28.917 25.4277C36.9746 27.2159 43 34.4041 43 43C43 43.3356 42.9898 43.669 42.9717 44H7.02832C7.01019 43.669 7 43.3356 7 43C7 34.1775 13.3474 26.838 21.7246 25.2979C17.7915 23.7813 15 19.9678 15 15.5C15 9.70101 19.701 5 25.5 5Z" fill="url(#paint0_linear_1210_193)"/>
<path d="M4 44C4 35.1634 11.1634 28 20 28C28.8366 28 36 35.1634 36 44H32C32 37.3726 26.6274 32 20 32C13.3726 32 8 37.3726 8 44H4ZM20 26C13.37 26 8 20.63 8 14C8 7.37 13.37 2 20 2C26.63 2 32 7.37 32 14C32 20.63 26.63 26 20 26ZM20 22C24.42 22 28 18.42 28 14C28 9.58 24.42 6 20 6C15.58 6 12 9.58 12 14C12 18.42 15.58 22 20 22ZM36.5674 29.4056C42.1288 31.9122 46 37.504 46 44H42C42 39.128 39.0966 34.9342 34.9256 33.0542L36.5674 29.4056ZM35.1924 6.82642C39.1888 8.47406 42 12.4072 42 17C42 22.7404 37.6084 27.4504 32 27.9552V23.9292C35.3934 23.4444 38 20.528 38 17C38 14.2387 36.4032 11.8521 34.082 10.7127L35.1924 6.82642Z" fill="white"/>
</g>
<defs>
<linearGradient id="paint0_linear_1210_193" x1="40.5251" y1="73.6" x2="-13.7099" y2="45.2256" gradientUnits="userSpaceOnUse">
<stop stop-color="#8C2CF6" stop-opacity="0.4"/>
<stop offset="1" stop-color="#8C2CF6" stop-opacity="0"/>
</linearGradient>
<clipPath id="clip0_1210_193">
<rect width="48" height="48" fill="white"/>
</clipPath>
</defs>
</svg>
