<svg width="48" height="48" viewBox="0 0 48 48" fill="none" xmlns="http://www.w3.org/2000/svg">
<circle cx="22" cy="22" r="16" fill="url(#paint0_linear_1211_205)"/>
<path d="M22 4.00001C22.5278 4.00001 23.05 4.02769 23.5664 4.07229C22.8848 5.26927 22.404 6.59505 22.168 8.00393C22.112 8.00327 22.056 8.00003 22 8.00003C14.2653 8.00003 8.00042 14.2654 8 22.0001C8 29.7351 14.265 36.0001 22 36.0001C25.7912 36.0001 29.2296 34.4943 31.75 32.0489L32.0488 31.7501C34.494 29.2297 36 25.7909 36 22.0001C36 21.9435 35.9948 21.8865 35.9942 21.8301C37.4036 21.5943 38.7284 21.1133 39.9258 20.4317C39.9704 20.9485 40 21.4717 40 22.0001C40 26.2477 38.5264 30.1547 36.0624 33.2345L44.627 41.7989L41.7988 44.6271L33.2344 36.0625C30.1546 38.5267 26.248 40.0001 22 40.0001C12.064 40.0001 4 31.9361 4 22.0001C4.00042 12.0644 12.0643 4.00001 22 4.00001ZM33.0586 2.63869C33.4118 1.78712 34.5884 1.78709 34.9414 2.63869L35.4472 3.86135C36.3112 5.94693 37.9232 7.61237 39.9492 8.51369L41.3848 9.15237C42.2052 9.51801 42.2052 10.7124 41.3848 11.0782L39.8652 11.7539C37.8898 12.6325 36.3068 14.239 35.4278 16.2559L34.9336 17.3868C34.5728 18.215 33.4274 18.215 33.0664 17.3868L32.5742 16.2559C31.6952 14.2386 30.1104 12.6326 28.1348 11.7539L26.6152 11.0782C25.7948 10.7124 25.7948 9.51799 26.6152 9.15237L28.0508 8.51369C30.077 7.61237 31.689 5.94697 32.5528 3.86135L33.0586 2.63869Z" fill="white"/>
<defs>
<linearGradient id="paint0_linear_1211_205" x1="35.8" y1="45.2" x2="-1.13887" y2="15.138" gradientUnits="userSpaceOnUse">
<stop stop-color="#8C2CF6" stop-opacity="0.4"/>
<stop offset="1" stop-color="#8C2CF6" stop-opacity="0"/>
</linearGradient>
</defs>
</svg>
