<svg width="48" height="48" viewBox="0 0 48 48" fill="none" xmlns="http://www.w3.org/2000/svg">
<path d="M8.5 13.5L9 6L20.5 5L20 13.5H15.5V21H27.5V17H40L40.5 43H28L27.5 38.5H13.5L14 15L8.5 13.5Z" fill="url(#paint0_linear_1211_223)"/>
<path d="M20 4C21.1046 4 22 4.89544 22 6V14C22 15.1046 21.1046 16 20 16H16V20H26V18C26 16.8954 26.8954 16 28 16H40C41.1046 16 42 16.8954 42 18V26C42 27.1046 41.1046 28 40 28H28C26.8954 28 26 27.1046 26 26V24H16V36H26V34C26 32.8954 26.8954 32 28 32H40C41.1046 32 42 32.8954 42 34V42C42 43.1046 41.1046 44 40 44H28C26.8954 44 26 43.1046 26 42V40H14C12.8954 40 12 39.1046 12 38V16H8C6.89544 16 6 15.1046 6 14V6C6 4.89544 6.89544 4 8 4H20ZM38 36H30V40H38V36ZM38 20H30V24H38V20ZM18 8H10V12H18V8Z" fill="white"/>
<defs>
<linearGradient id="paint0_linear_1211_223" x1="38.3" y1="51.55" x2="-3.48071" y2="22.9164" gradientUnits="userSpaceOnUse">
<stop stop-color="#8C2CF6" stop-opacity="0.4"/>
<stop offset="1" stop-color="#8C2CF6" stop-opacity="0"/>
</linearGradient>
</defs>
</svg>
