<svg width="80" height="80" viewBox="0 0 80 80" fill="none" xmlns="http://www.w3.org/2000/svg">
<g clip-path="url(#clip0_1113_62)">
<path d="M40.0002 20C37.2502 20 34.4202 20.0733 31.6668 20.1867L28.4068 20.3433L25.2768 20.5267L22.3368 20.7267L19.6435 20.9367C18.2279 21.0371 16.8936 21.6355 15.8771 22.6258C14.8606 23.616 14.2276 24.9342 14.0902 26.3467C13.7002 30.3767 13.3335 35.3933 13.3335 40C13.3335 44.6067 13.7002 49.6233 14.0902 53.6533C14.3735 56.56 16.6802 58.82 19.6435 59.0633L22.3368 59.27L25.2768 59.47L28.4068 59.6567L31.6668 59.8133C34.4202 59.9267 37.2502 60 40.0002 60C42.7502 60 45.5802 59.9267 48.3335 59.8133L51.5935 59.6567L54.7235 59.4733L57.6635 59.2733L60.3568 59.0633C61.7724 58.9629 63.1067 58.3645 64.1232 57.3742C65.1397 56.384 65.7728 55.0658 65.9102 53.6533C66.3002 49.6233 66.6668 44.6067 66.6668 40C66.6668 35.3933 66.3002 30.3767 65.9102 26.3467C65.7728 24.9342 65.1397 23.616 64.1232 22.6258C63.1067 21.6355 61.7724 21.0371 60.3568 20.9367L57.6635 20.73L54.7235 20.53L51.5935 20.3433L48.3335 20.1867C45.5573 20.0672 42.7789 20.005 40.0002 20ZM33.3335 31.9167C33.3333 31.5909 33.4127 31.27 33.5647 30.9818C33.7168 30.6937 33.9369 30.4471 34.206 30.2634C34.4751 30.0798 34.785 29.9646 35.1087 29.928C35.4324 29.8914 35.7602 29.9344 36.0635 30.0533L36.3335 30.1867L50.3335 38.2667C50.6123 38.4275 50.8481 38.6533 51.021 38.9248C51.1939 39.1963 51.2987 39.5055 51.3265 39.8262C51.3543 40.1468 51.3043 40.4695 51.1807 40.7667C51.0572 41.0639 50.8638 41.3269 50.6168 41.5333L50.3335 41.7333L36.3335 49.8167C36.0514 49.98 35.7336 50.072 35.4078 50.0844C35.082 50.0969 34.7582 50.0296 34.4644 49.8883C34.1706 49.747 33.9158 49.536 33.7221 49.2737C33.5285 49.0114 33.402 48.7057 33.3535 48.3833L33.3335 48.0833V31.9167Z" fill="url(#paint0_linear_1113_62)"/>
<path d="M40.0003 13.334C42.8503 13.334 45.7737 13.4073 48.607 13.5273L51.9537 13.6873L55.157 13.8773L58.157 14.0807L60.897 14.294C63.8705 14.5216 66.6685 15.7905 68.7987 17.8774C70.929 19.9644 72.2551 22.7358 72.5437 25.704L72.677 27.1206L72.927 30.154C73.1603 33.2973 73.3337 36.724 73.3337 40.0007C73.3337 43.2773 73.1603 46.704 72.927 49.8473L72.677 52.8806C72.6337 53.3673 72.5903 53.8373 72.5437 54.2973C72.255 57.266 70.9284 60.0378 68.7975 62.1249C66.6665 64.2119 63.8677 65.4805 60.8937 65.7073L58.1603 65.9173L55.1603 66.124L51.9537 66.314L48.607 66.474C45.7398 66.5986 42.8703 66.663 40.0003 66.6673C37.1304 66.663 34.2609 66.5986 31.3937 66.474L28.047 66.314L24.8437 66.124L21.8437 65.9173L19.1037 65.7073C16.1302 65.4797 13.3322 64.2108 11.2019 62.1239C9.07164 60.0369 7.74557 57.2655 7.45699 54.2973L7.32366 52.8806L7.07366 49.8473C6.81878 46.5711 6.68314 43.2867 6.66699 40.0007C6.66699 36.724 6.84033 33.2973 7.07366 30.154L7.32366 27.1206C7.36699 26.634 7.41033 26.164 7.45699 25.704C7.74546 22.7363 9.07105 19.9654 11.2006 17.8785C13.3302 15.7916 16.1274 14.5223 19.1003 14.294L21.837 14.0807L24.837 13.8773L28.0437 13.6873L31.3903 13.5273C34.2587 13.4028 37.1293 13.3383 40.0003 13.334ZM40.0003 20.0007C37.2503 20.0007 34.4203 20.074 31.667 20.1873L28.407 20.344L25.277 20.5273L22.337 20.7273L19.6437 20.9373C18.2281 21.0378 16.8938 21.6361 15.8773 22.6264C14.8608 23.6167 14.2277 24.9349 14.0903 26.3473C13.7003 30.3773 13.3337 35.394 13.3337 40.0007C13.3337 44.6073 13.7003 49.624 14.0903 53.654C14.3737 56.5607 16.6803 58.8206 19.6437 59.064L22.337 59.2706L25.277 59.4706L28.407 59.6573L31.667 59.814C34.4203 59.9273 37.2503 60.0006 40.0003 60.0006C42.7503 60.0006 45.5803 59.9273 48.3337 59.814L51.5937 59.6573L54.7237 59.474L57.6637 59.274L60.357 59.064C61.7726 58.9635 63.1068 58.3652 64.1234 57.3749C65.1399 56.3846 65.7729 55.0664 65.9103 53.654C66.3003 49.624 66.667 44.6073 66.667 40.0007C66.667 35.394 66.3003 30.3773 65.9103 26.3473C65.7729 24.9349 65.1399 23.6167 64.1234 22.6264C63.1068 21.6361 61.7726 21.0378 60.357 20.9373L57.6637 20.7307L54.7237 20.5307L51.5937 20.344L48.3337 20.1873C45.5575 20.0679 42.7791 20.0056 40.0003 20.0007ZM33.3337 31.9173C33.3334 31.5915 33.4128 31.2706 33.5649 30.9825C33.7169 30.6944 33.9371 30.4478 34.2062 30.2641C34.4753 30.0804 34.7851 29.9653 35.1089 29.9287C35.4326 29.8921 35.7603 29.9351 36.0637 30.054L36.3337 30.1873L50.3337 38.2673C50.6124 38.4282 50.8483 38.6539 51.0212 38.9254C51.194 39.1969 51.2988 39.5062 51.3266 39.8268C51.3545 40.1475 51.3045 40.4701 51.1809 40.7673C51.0574 41.0645 50.8639 41.3275 50.617 41.534L50.3337 41.734L36.3337 49.8173C36.0515 49.9807 35.7337 50.0726 35.408 50.0851C35.0822 50.0976 34.7583 50.0302 34.4645 49.8889C34.1707 49.7476 33.9159 49.5366 33.7223 49.2743C33.5287 49.012 33.4021 48.7064 33.3537 48.384L33.3337 48.084V31.9173Z" fill="white"/>
</g>
<defs>
<linearGradient id="paint0_linear_1113_62" x1="63.0002" y1="69" x2="16.0002" y2="18" gradientUnits="userSpaceOnUse">
<stop stop-color="#8C2CF6" stop-opacity="0.4"/>
<stop offset="1" stop-color="#8C2CF6" stop-opacity="0"/>
</linearGradient>
<clipPath id="clip0_1113_62">
<rect width="80" height="80" fill="white"/>
</clipPath>
</defs>
</svg>
