<svg width="48" height="48" viewBox="0 0 48 48" fill="none" xmlns="http://www.w3.org/2000/svg">
<path d="M23.9945 2H24.0055C36.1367 2 46 11.8688 46 24C46 36.1312 36.1349 46 24.0055 46C19.5322 46 15.3815 44.6672 11.9055 42.3663L3.44836 45.0687L6.18919 36.8938C3.46031 33.1491 1.99321 28.6335 2.00002 24C2.00002 11.8688 11.8652 2 23.9945 2ZM17.7007 14.0927C17.2809 13.0898 16.9619 13.0513 16.3257 13.0257C16.084 13.0099 15.8419 13.0014 15.5997 13C14.771 13 13.9057 13.242 13.3814 13.7755C12.7489 14.4227 11.1667 15.9333 11.1667 19.0372C11.1667 22.1373 13.4345 25.1367 13.7389 25.5565C14.0579 25.9745 18.1609 32.4315 24.528 35.0623C29.5092 37.1212 30.9869 36.9305 32.1217 36.6885C33.7772 36.3328 35.8525 35.1118 36.375 33.6397C36.8975 32.1638 36.8975 30.9062 36.7454 30.6385C36.5914 30.3727 36.1715 30.2205 35.5354 29.9015C34.8974 29.5843 31.8027 28.059 31.216 27.8555C30.6422 27.641 30.0959 27.7162 29.6632 28.3267C29.0509 29.1773 28.4532 30.0427 27.9674 30.5633C27.586 30.9703 26.9609 31.0217 26.4402 30.8053C25.7399 30.512 23.7782 29.8263 21.3564 27.6777C19.4845 26.013 18.2104 23.9413 17.8419 23.3198C17.4715 22.6837 17.8034 22.3152 18.0967 21.9723C18.4139 21.5782 18.72 21.2995 19.039 20.931C19.358 20.5625 19.534 20.3718 19.7394 19.9392C19.9557 19.5193 19.8035 19.0867 19.6495 18.7695C19.4974 18.4523 18.2232 15.3503 17.7007 14.0945V14.0927Z" fill="#25D366"/>
</svg>
