<svg width="48" height="48" viewBox="0 0 48 48" fill="none" xmlns="http://www.w3.org/2000/svg">
<path d="M20 32V18L32 25.024L20 32ZM47.52 15.334C47.52 15.334 47.05 12.004 45.612 10.536C43.786 8.61 41.74 8.602 40.802 8.49C34.086 8 24.01 8 24.01 8H23.99C23.99 8 13.914 8 7.198 8.49C6.258 8.602 4.214 8.61 2.386 10.536C0.948 12.004 0.48 15.336 0.48 15.336C0.48 15.336 0 19.244 0 23.154V26.824C0 30.736 0.48 34.648 0.48 34.648C0.48 34.648 0.948 37.978 2.386 39.446C4.214 41.372 6.612 41.31 7.68 41.512C11.52 41.886 24 42 24 42C24 42 34.086 41.984 40.802 41.496C41.742 41.382 43.786 41.374 45.612 39.448C47.052 37.98 47.52 34.648 47.52 34.648C47.52 34.648 48 30.738 48 26.826V23.158C48 19.246 47.52 15.334 47.52 15.334Z" fill="#FF0000"/>
</svg>
