<svg width="48" height="48" viewBox="0 0 48 48" fill="none" xmlns="http://www.w3.org/2000/svg">
<path d="M8 21C8 12.1634 15.1634 5 24 5H34C37.3137 5 40 7.68629 40 11V39C40 40.6569 38.6569 42 37 42H11C9.34315 42 8 40.6569 8 39V21Z" fill="url(#paint0_linear_1248_467)"/>
<path d="M26 7.99918H22V17.9992C22 19.1038 21.1046 19.9992 20 19.9992H10V39.9993H38V19.9992H42V42.0149C42 43.1101 41.1104 43.9989 40.0136 43.9993H7.98632C6.88928 43.9989 6.00002 43.0991 6 41.9855V15.9992L18 4.00504V3.99918H26V7.99918ZM11.6582 15.9992H18V9.6613L11.6582 15.9992ZM38.9414 0.658218C38.5886 -0.193376 37.4118 -0.193353 37.0586 0.658218L36.5528 1.88088C35.689 3.9665 34.077 5.6319 32.0508 6.53322L30.6152 7.1719C29.7948 7.53752 29.795 8.73196 30.6152 9.09768L32.1348 9.77346C34.1104 10.6521 35.6952 12.2582 36.5742 14.2754L37.0664 15.4063C37.4274 16.2346 38.5728 16.2346 38.9336 15.4063L39.4278 14.2754C40.3068 12.2585 41.89 10.652 43.8652 9.77346L45.3848 9.09768C46.2052 8.73194 46.2054 7.53754 45.3848 7.1719L43.9492 6.53322C41.9232 5.6319 40.3112 3.96646 39.4474 1.88088L38.9414 0.658218Z" fill="white"/>
<defs>
<linearGradient id="paint0_linear_1248_467" x1="37.8" y1="50.325" x2="-3.26181" y2="21.4235" gradientUnits="userSpaceOnUse">
<stop stop-color="#8C2CF6" stop-opacity="0.4"/>
<stop offset="1" stop-color="#8C2CF6" stop-opacity="0"/>
</linearGradient>
</defs>
</svg>
