<svg class="picon" viewBox="0 0 48 48" fill="none" xmlns="http://www.w3.org/2000/svg"><path d="M6 11C6 9.34315 7.34315 8 9 8H40C40.5523 8 41 8.44772 41 9V37C41 38.6569 39.6569 40 38 40H9C7.34315 40 6 38.6569 6 37V11Z" fill="url(#paint0_linear_1110_38)"/><path d="M8.00977 10.0039V38.0039H40.0098V10.0039H8.00977ZM6.00977 6.00391H42.0098C43.1144 6.00391 44.0098 6.89933 44.0098 8.00391V40.0039C44.0098 41.1085 43.1144 42.0039 42.0098 42.0039H6.00977C4.90521 42.0039 4.00977 41.1085 4.00977 40.0039V8.00391C4.00977 6.89933 4.90521 6.00391 6.00977 6.00391ZM29.5956 19.5897L26.0098 16.0039H36.0098V26.0039L32.424 22.4181L24.696 30.1461L20.4534 25.9035L14.7966 31.5603L11.9681 28.7319L20.4534 20.2465L24.696 24.4891L29.5956 19.5897Z" fill="white"/><defs><linearGradient id="paint0_linear_1110_38" x1="38.5938" y1="47.2" x2="1.12241" y2="13.8457" gradientUnits="userSpaceOnUse"><stop stop-color="#8C2CF6" stop-opacity="0.4"/><stop offset="1" stop-color="#8C2CF6" stop-opacity="0"/></linearGradient></defs></svg>