<svg class="picon" viewBox="0 0 48 48" fill="none" xmlns="http://www.w3.org/2000/svg"><path d="M6 11C6 9.34315 7.34315 8 9 8H35C38.3137 8 41 10.6863 41 14V36C41 37.6569 39.6569 39 38 39H9C7.34315 39 6 37.6569 6 36V11Z" fill="url(#paint0_linear_1110_26)"/><path d="M41.4268 16.2562L40.9336 17.3876C40.5728 18.2158 39.4272 18.2158 39.0662 17.3876L38.5732 16.2562C37.6942 14.2389 36.111 12.6328 34.1354 11.7542L32.616 11.0784C31.7946 10.7131 31.7946 9.51762 32.616 9.15224L34.0504 8.51428C36.0768 7.61302 37.6884 5.94746 38.5522 3.86166L39.0586 2.63906C39.4116 1.78698 40.5884 1.78698 40.9412 2.63906L41.4476 3.86166C42.3116 5.94746 43.9232 7.61302 45.9496 8.51428L47.3838 9.15224C48.2054 9.51762 48.2054 10.7131 47.3838 11.0784L45.8646 11.7542C43.889 12.6328 42.3058 14.2389 41.4268 16.2562ZM4 8C4 6.89544 4.89544 6 6 6H28V10H8V38H40V22H44V40C44 41.1046 43.1046 42 42 42H6C4.89544 42 4 41.1046 4 40V8ZM14 26H18V34H14V26ZM22 14H26V34H22V14ZM30 20H34V34H30V20Z" fill="white"/><defs><linearGradient id="paint0_linear_1110_26" x1="38.5938" y1="45.975" x2="2.17776" y2="12.5145" gradientUnits="userSpaceOnUse"><stop stop-color="#8C2CF6" stop-opacity="0.4"/><stop offset="1" stop-color="#8C2CF6" stop-opacity="0"/></linearGradient></defs></svg>