<svg width="200" height="200" viewBox="0 0 200 200" fill="none" xmlns="http://www.w3.org/2000/svg">
<path d="M124.222 108.706C125.188 108.706 128.816 110.344 135.103 113.619C141.391 116.894 144.72 118.864 145.091 119.531C145.241 119.902 145.316 120.46 145.316 121.206C145.316 123.66 144.682 126.487 143.416 129.687C142.224 132.587 139.582 135.025 135.491 137C131.399 138.975 127.605 139.96 124.109 139.956C119.868 139.956 112.799 137.65 102.903 133.037C95.6114 129.687 89.2864 125.298 83.928 119.869C78.5697 114.439 73.0634 107.556 67.4093 99.2186C62.0509 91.2561 59.4093 84.0395 59.4843 77.5686V76.6749C59.7093 69.9041 62.4614 64.027 67.7405 59.0436C69.528 57.4061 71.4634 56.5874 73.5468 56.5874C73.9926 56.5874 74.6614 56.6437 75.553 56.7562C76.4447 56.8687 77.1509 56.9249 77.6718 56.9249C79.0843 56.9249 80.0697 57.1666 80.628 57.6499C81.1864 58.1332 81.7634 59.1562 82.3593 60.7187C82.9551 62.2062 84.1822 65.4791 86.0405 70.5374C87.8989 75.5957 88.828 78.3853 88.828 78.9061C88.828 80.4686 87.5447 82.6082 84.978 85.3249C82.4114 88.0416 81.128 89.7707 81.128 90.5124C81.128 91.0332 81.3134 91.5916 81.6843 92.1874C84.2134 97.6207 88.0072 102.717 93.0655 107.475C97.2322 111.417 102.849 115.175 109.916 118.75C110.807 119.271 111.626 119.531 112.372 119.531C113.488 119.531 115.497 117.727 118.397 114.119C121.297 110.51 123.232 108.706 124.203 108.706H124.222ZM101.566 167.856C111.016 167.856 120.074 165.996 128.741 162.275C137.407 158.554 144.866 153.569 151.116 147.319C157.366 141.069 162.351 133.61 166.072 124.944C169.793 116.277 171.653 107.219 171.653 97.7686C171.653 88.3186 169.793 79.2603 166.072 70.5936C162.351 61.927 157.366 54.4687 151.116 48.2187C144.866 41.9687 137.407 36.9832 128.741 33.2624C120.074 29.5416 111.016 27.6812 101.566 27.6812C92.1155 27.6812 83.0572 29.5416 74.3905 33.2624C65.7239 36.9832 58.2655 41.9687 52.0155 48.2187C45.7655 54.4687 40.7801 61.927 37.0593 70.5936C33.3384 79.2603 31.478 88.3186 31.478 97.7686C31.478 112.873 35.9426 126.562 44.8718 138.837L36.053 164.844L63.0593 156.25C74.8134 163.987 87.6489 167.856 101.566 167.856ZM101.566 13.6187C112.949 13.6187 123.83 15.8499 134.209 20.3124C144.588 24.7749 153.536 30.7645 161.053 38.2812C168.57 45.7978 174.559 54.7457 179.022 65.1249C183.484 75.5041 185.716 86.3853 185.716 97.7686C185.716 109.152 183.484 120.033 179.022 130.412C174.559 140.792 168.57 149.739 161.053 157.256C153.536 164.773 144.588 170.762 134.209 175.225C123.83 179.687 112.949 181.919 101.566 181.919C87.0572 181.919 73.478 178.421 60.828 171.425L14.2905 186.381L29.4718 141.181C21.4343 127.935 17.4155 113.464 17.4155 97.7686C17.4155 86.3853 19.6468 75.5041 24.1093 65.1249C28.5718 54.7457 34.5614 45.7978 42.078 38.2812C49.5947 30.7645 58.5426 24.7749 68.9218 20.3124C79.3009 15.8499 90.1822 13.6187 101.566 13.6187Z" fill="white"/>
</svg>
