<svg width="76" height="76" viewBox="0 0 76 76" fill="none" xmlns="http://www.w3.org/2000/svg">
<g clip-path="url(#clip0_1250_612)">
<rect width="76" height="76" rx="12" fill="white"/>
<path d="M30.6712 37.3813C33.0442 33.3913 40.1422 30.1877 45.1425 38.0487C48.8268 43.378 55.1385 48.3083 55.1385 48.3083C55.1385 48.3083 59.8682 52.044 56.8418 59.2377C53.9485 66.135 43.6818 62.9873 42.8302 62.7143L42.7742 62.6933C42.7742 62.6933 38.7002 61.368 33.9635 62.432C29.2362 63.5007 25.1598 63.0993 25.1598 63.0993L25.0548 63.097C24.2895 63.0737 19.5015 62.6607 18.0525 56.1717C16.4775 49.1063 23.5708 45.2353 24.1005 44.5797C24.6278 43.9077 28.3052 41.383 30.6712 37.3813ZM32.9718 41.4367V46.178H29.1452C29.1452 46.178 25.3185 46.5 23.9815 50.8773C23.5148 53.7987 24.3945 55.5207 24.5462 55.8893C24.7025 56.2557 25.9368 58.393 29.0425 59.0207H36.2245V41.488L32.9718 41.4367ZM41.3438 46.549L37.9838 46.605V55.8357C37.9838 55.8357 38.1332 58.134 41.3438 58.9717H49.6062V46.605H46.0408V55.8893H42.6342C42.6342 55.8893 41.5468 55.7307 41.3438 54.8463V46.549ZM32.9135 49.0013V56.1413H30.0202C30.0202 56.1413 28.0065 56.0363 27.3928 53.6937C27.0755 52.6553 27.4395 51.456 27.5982 50.987C27.7452 50.5133 28.4218 49.4213 29.8172 49.0037L32.9135 49.0013ZM55.1385 27.9173C60.0058 27.9173 61.3125 32.724 61.3125 34.3153C61.3125 35.9207 61.9752 42.7083 55.9248 42.8437C49.8698 42.9767 49.6155 38.7137 49.6155 35.657C49.6155 32.451 50.2618 27.9173 55.1385 27.9173ZM19.8935 24.1863C23.4472 23.8713 26.0652 27.803 26.3382 30.05C26.5015 31.5083 27.2552 38.184 21.7298 39.3833C16.2138 40.585 14.1605 34.1357 14.7672 31.114C14.7672 31.114 15.4205 24.5877 19.8935 24.1863ZM40.5365 20.726C40.8632 17.6693 44.4798 12.9887 47.3755 13.6607C50.2595 14.3257 52.8985 18.1967 52.3618 21.524C51.8392 24.856 49.2235 29.2543 45.1402 28.7153C41.0615 28.188 40.1398 24.4617 40.5365 20.726ZM31.9918 12.333C35.0415 12.333 37.5078 15.8773 37.5078 20.2617C37.5078 24.646 35.0415 28.195 31.9918 28.195C28.9422 28.195 26.4688 24.646 26.4688 20.2617C26.4688 15.875 28.9422 12.333 31.9918 12.333Z" fill="#2932E1"/>
</g>
<defs>
<clipPath id="clip0_1250_612">
<rect width="76" height="76" rx="24" fill="white"/>
</clipPath>
</defs>
</svg>
