<svg width="76" height="76" viewBox="0 0 76 76" fill="none" xmlns="http://www.w3.org/2000/svg">
<g clip-path="url(#clip0_1250_526)">
<rect width="76" height="76" rx="12" fill="white"/>
<g clip-path="url(#clip1_1250_526)">
<path d="M37.9311 27.6624C37.4316 27.7246 36.9699 27.9603 36.6265 28.3284C36.2832 28.6964 36.0801 29.1734 36.0528 29.6761C36.0224 30.1311 36.0294 30.1637 37.0561 32.8191C39.3894 38.8624 39.9541 40.3184 40.0498 40.5237C40.2808 41.0207 40.6028 41.4874 41.0064 41.9051C41.3191 42.2271 41.5244 42.3997 41.8698 42.6307C42.4764 43.0414 42.7798 43.1534 45.1481 43.8604C47.4558 44.5487 48.7158 45.0037 49.8008 45.5474C51.2078 46.2521 52.1901 47.05 52.8108 47.9997C53.2564 48.681 53.6508 49.9014 53.8234 51.1311C53.8911 51.6117 53.8911 52.6734 53.8234 53.1074C53.7118 53.9605 53.4121 54.7782 52.9461 55.5014C52.7128 55.8537 52.7944 55.7954 53.1351 55.366C54.1034 54.1527 55.0904 52.0807 55.5944 50.2024C56.2042 47.9079 56.2856 45.5049 55.8324 43.1744C55.4016 40.9588 54.4909 38.8645 53.1643 37.0384C51.8377 35.2124 50.1274 33.6989 48.1534 32.6044C47.1291 32.0541 46.1009 31.5112 45.0688 30.9757L44.4761 30.6654C43.2503 30.0236 42.0253 29.3804 40.8011 28.7357C39.5224 28.0591 38.9811 27.7884 38.8271 27.7417C38.6059 27.6827 38.3791 27.6475 38.1504 27.6367L37.9334 27.6601L37.9311 27.6624Z" fill="url(#paint0_radial_1250_526)"/>
<path d="M40.7157 50.2277C40.556 50.3207 40.3988 50.4179 40.2444 50.5194C38.8465 51.3837 37.4504 52.251 36.056 53.1211C35.2885 53.6014 34.5193 54.0789 33.7484 54.5537L32.668 55.2257C31.5064 55.968 30.3381 56.7 29.1634 57.4214C28.4027 57.8881 27.5207 58.2007 26.62 58.3244C26.2 58.3804 25.4067 58.3804 24.9867 58.3244C23.8707 58.1772 22.8116 57.7448 21.9114 57.0691C21.4456 56.6908 21.0209 56.2646 20.6444 55.7974C20.0581 55.0086 19.6547 54.0991 19.4637 53.1351C19.4379 52.9922 19.406 52.8505 19.368 52.7104C19.3494 52.6917 19.382 53.0324 19.4427 53.4804C19.5057 53.9447 19.641 54.6167 19.7857 55.1907C20.9104 59.6404 24.1024 63.2571 28.4307 64.9791C29.6707 65.4734 30.9722 65.7968 32.2994 65.9404C32.8127 65.9987 34.2687 66.0221 34.8054 65.9801C37.2647 65.7934 39.4067 65.0631 41.6024 63.6654C42.3304 63.2006 43.0591 62.737 43.7887 62.2747L44.6847 61.7054L46.2807 60.6904L46.8267 60.3427L46.8477 60.3311L46.906 60.2914L46.9364 60.2751L47.3377 60.0184L48.7307 59.1317C50.504 58.0094 51.0337 57.6151 51.8574 56.8031C52.2027 56.4624 52.7207 55.8837 52.7464 55.8114C52.751 55.7951 52.8444 55.6527 52.9517 55.4941C53.4144 54.7723 53.7116 53.9572 53.822 53.1071C53.8889 52.45 53.8889 51.7878 53.822 51.1307C53.6968 50.2167 53.4472 49.3241 53.08 48.4777C52.5574 47.3764 51.4467 46.3777 49.853 45.5727C49.5482 45.4085 49.2316 45.2673 48.9057 45.1504C48.8824 45.1504 47.3984 46.0651 45.6087 47.1804C44.319 47.9821 43.0295 48.784 41.74 49.5861L40.7157 50.2277Z" fill="url(#paint1_radial_1250_526)"/>
<path d="M19.3405 44.8753L19.3498 52.6453L19.4478 53.0956C19.7605 54.505 20.3018 55.5223 21.2445 56.4673C21.8377 57.0749 22.5475 57.5563 23.3314 57.8827C24.1153 58.2091 24.9571 58.3737 25.8062 58.3666C27.0568 58.3666 28.1395 58.0516 29.2572 57.3633L30.8975 56.3483L32.1948 55.541V28.675C32.1948 23.2943 32.1855 20.1 32.1668 19.8503C32.0702 18.2966 31.4088 16.8319 30.3072 15.732C29.9688 15.396 29.6818 15.172 28.8208 14.5746C27.0279 13.3332 25.2359 12.0903 23.4448 10.846C22.6142 10.2696 22.5535 10.23 22.2992 10.139C22.0012 10.0277 21.6826 9.9824 21.3654 10.0061C21.0482 10.0299 20.7399 10.1221 20.4618 10.2765C20.1837 10.4308 19.9423 10.6437 19.7544 10.9003C19.5665 11.1569 19.4364 11.4512 19.3732 11.763C19.3405 11.91 19.3335 13.8723 19.3335 24.5216V37.1076L19.3405 44.8753Z" fill="url(#paint2_linear_1250_526)"/>
</g>
</g>
<defs>
<radialGradient id="paint0_radial_1250_526" cx="0" cy="0" r="1" gradientTransform="matrix(-18.816 -15.6257 30.5999 -18.8163 12.9175 -28.8606)" gradientUnits="userSpaceOnUse">
<stop stop-color="#00CACC"/>
<stop offset="1" stop-color="#048FCE"/>
</radialGradient>
<radialGradient id="paint1_radial_1250_526" cx="0" cy="0" r="1" gradientTransform="matrix(28.5653 -20.4002 7.44743 28.566 29.579 50.6081)" gradientUnits="userSpaceOnUse">
<stop stop-color="#00BBEC"/>
<stop offset="1" stop-color="#2756A9"/>
</radialGradient>
<linearGradient id="paint2_linear_1250_526" x1="25.7642" y1="10" x2="25.7642" y2="58.3669" gradientUnits="userSpaceOnUse">
<stop stop-color="#00BBEC"/>
<stop offset="1" stop-color="#2756A9"/>
</linearGradient>
<clipPath id="clip0_1250_526">
<rect width="76" height="76" rx="24" fill="white"/>
</clipPath>
<clipPath id="clip1_1250_526">
<rect width="56" height="56" fill="white" transform="translate(10 10)"/>
</clipPath>
</defs>
</svg>
