<svg width="108" height="108" viewBox="0 0 108 108" fill="none" xmlns="http://www.w3.org/2000/svg">
<g clip-path="url(#clip0_1250_618)">
<rect width="108" height="108" rx="17.0526" fill="white"/>
<path d="M54 39.459C58.2798 39.459 61.749 42.9292 61.749 47.209V79.251C61.7488 83.5306 58.2797 87 54 87C49.7203 87 46.2512 83.5306 46.251 79.251V47.209C46.251 42.9292 49.7202 39.459 54 39.459ZM23.873 55.1309C28.1529 55.1309 31.623 58.6011 31.623 62.8809V79.25C31.6229 83.5297 28.1528 86.999 23.873 86.999C19.5935 86.9988 16.1241 83.5295 16.124 79.25V62.8809C16.124 58.6012 19.5935 55.1311 23.873 55.1309ZM84.127 21C88.4066 21 91.8758 24.4694 91.876 28.749V79.25C91.876 83.5298 88.4067 86.999 84.127 86.999C79.8471 86.999 76.3779 83.5298 76.3779 79.25V28.749C76.3781 24.4693 79.8472 21 84.127 21Z" fill="white"/>
<path d="M54 39.459C58.2798 39.459 61.749 42.9292 61.749 47.209V79.251C61.7488 83.5306 58.2797 87 54 87C49.7203 87 46.2512 83.5306 46.251 79.251V47.209C46.251 42.9292 49.7202 39.459 54 39.459ZM23.873 55.1309C28.1529 55.1309 31.623 58.6011 31.623 62.8809V79.25C31.6229 83.5297 28.1528 86.999 23.873 86.999C19.5935 86.9988 16.1241 83.5295 16.124 79.25V62.8809C16.124 58.6012 19.5935 55.1311 23.873 55.1309ZM84.127 21C88.4066 21 91.8758 24.4694 91.876 28.749V79.25C91.876 83.5298 88.4067 86.999 84.127 86.999C79.8471 86.999 76.3779 83.5298 76.3779 79.25V28.749C76.3781 24.4693 79.8472 21 84.127 21Z" fill="url(#paint0_linear_1250_618)"/>
</g>
<defs>
<linearGradient id="paint0_linear_1250_618" x1="54" y1="86.9959" x2="54" y2="12.6123" gradientUnits="userSpaceOnUse">
<stop stop-color="#7746AD"/>
<stop offset="0.44" stop-color="#009FDA"/>
<stop offset="0.82" stop-color="#3FCDD1"/>
<stop offset="1" stop-color="white"/>
</linearGradient>
<clipPath id="clip0_1250_618">
<rect width="108" height="108" rx="34.1053" fill="white"/>
</clipPath>
</defs>
</svg>
