<svg width="76" height="76" viewBox="0 0 76 76" fill="none" xmlns="http://www.w3.org/2000/svg">
<g clip-path="url(#clip0_1250_570)">
<rect width="76" height="76" rx="12" fill="white"/>
<path d="M26.0927 19.334H26.0367L25.9644 25.4357H26.0157C30.0174 25.4357 33.123 28.602 39.8757 40.0097L40.284 40.7027L40.312 40.7493L44.092 35.0606L44.064 35.0163C43.238 33.664 42.3838 32.329 41.502 31.0123C40.6339 29.7129 39.7194 28.4451 38.7604 27.2113C34.2967 21.5087 30.5634 19.334 26.0927 19.334Z" fill="url(#paint0_linear_1250_570)"/>
<path d="M26.036 19.334C21.549 19.3573 17.5753 22.2693 14.7123 26.7307C14.7045 26.7439 14.6967 26.7571 14.689 26.7703L19.9483 29.6427L19.974 29.603C21.6493 27.076 23.7306 25.4637 25.966 25.438H26.015L26.0896 19.334H26.036Z" fill="url(#paint1_linear_1250_570)"/>
<path d="M14.7098 26.7295L14.6841 26.7692C12.7988 29.7092 11.3941 33.3212 10.6381 37.2155L10.6265 37.2668L16.5391 38.6668L16.5485 38.6155C17.1785 35.1925 18.3825 32.0168 19.9458 29.6438L19.9715 29.6042L14.7098 26.7295Z" fill="url(#paint2_linear_1250_570)"/>
<path d="M16.5497 38.6168L10.6393 37.2168L10.6277 37.2681C10.2147 39.4101 10.0047 41.5871 10 43.7688V43.8225L16.062 44.3661V44.3125C16.0399 42.4033 16.2041 40.4965 16.552 38.6191L16.5497 38.6168Z" fill="url(#paint3_linear_1250_570)"/>
<path d="M16.2466 46.2541C16.1379 45.6273 16.0763 44.9931 16.0623 44.3571V44.3058L10.0003 43.7598V43.8158C9.99348 45.1085 10.1075 46.399 10.341 47.6704L16.256 46.3054C16.2528 46.2883 16.2497 46.2712 16.2466 46.2541Z" fill="url(#paint4_linear_1250_570)"/>
<path d="M17.6292 49.4104C16.9666 48.687 16.4999 47.6464 16.2549 46.3117L16.2456 46.2627L10.3306 47.6277L10.3399 47.6767C10.7879 50.0334 11.6652 51.9934 12.9206 53.4797L12.9532 53.5194L17.6619 49.4477C17.6502 49.4353 17.6408 49.4229 17.6292 49.4104Z" fill="url(#paint5_linear_1250_570)"/>
<path d="M35.1534 32.5264C31.5881 38.0097 29.4274 41.4514 29.4274 41.4514C24.6791 48.918 23.0364 50.591 20.3951 50.591C19.8756 50.6046 19.3594 50.5057 18.8817 50.3011C18.4041 50.0965 17.9763 49.791 17.6277 49.4057L12.9214 53.475L12.9541 53.5147C14.6901 55.5424 17.1354 56.667 20.1641 56.667C24.7444 56.667 28.0367 54.5017 33.8934 44.2304L38.014 36.927C37.0999 35.4344 36.1475 33.967 35.1534 32.5264Z" fill="#0082FB"/>
<path d="M41.5052 23.8754L41.4679 23.9127C40.5346 24.916 39.6339 26.0314 38.7612 27.2167C39.6432 28.3437 40.5532 29.606 41.5029 31.02C42.6229 29.2864 43.6682 27.8817 44.6926 26.8037L44.7299 26.7664L41.5052 23.8754Z" fill="url(#paint6_linear_1250_570)"/>
<path d="M58.8096 23.331C56.3246 20.811 53.3613 19.334 50.1926 19.334C46.8513 19.334 44.0396 21.1703 41.5056 23.87L41.4683 23.9073L44.6929 26.8007L44.7303 26.761C46.3986 25.018 48.0156 24.1477 49.8076 24.1477C51.7349 24.1477 53.5409 25.0577 55.1043 26.656L55.1393 26.6933L58.8469 23.3683L58.8096 23.331Z" fill="#0082FB"/>
<path d="M65.995 42.9581C65.855 34.8684 63.0317 27.6374 58.8457 23.3674L58.8084 23.3301L55.103 26.6527L55.138 26.6901C58.288 29.9381 60.451 35.9767 60.647 42.9557V43.0094H65.995V42.9581Z" fill="url(#paint7_linear_1250_570)"/>
<path d="M65.9952 43.0166V42.9629H60.6472V43.0142C60.6565 43.3409 60.6612 43.6722 60.6612 44.0036C60.6612 45.9052 60.3789 47.4429 59.8025 48.5536L59.7769 48.6049L63.7622 52.7629L63.7925 52.7162C65.2392 50.4762 65.9999 47.3659 65.9999 43.5929C65.9999 43.3992 65.9999 43.2079 65.9952 43.0166Z" fill="url(#paint8_linear_1250_570)"/>
<path d="M59.8025 48.5459L59.7769 48.5926C59.2775 49.5306 58.5659 50.1559 57.6372 50.4289L59.4525 56.1736C59.8024 56.0553 60.1439 55.9134 60.4745 55.7489C61.7666 55.0957 62.8654 54.1159 63.6619 52.9069L63.7645 52.7552L63.7925 52.7086L59.8025 48.5459Z" fill="url(#paint9_linear_1250_570)"/>
<path d="M56.4812 50.5855C55.8698 50.5855 55.3332 50.4945 54.8058 50.2588L52.9438 56.1435C53.9915 56.5005 55.1069 56.6615 56.3505 56.6615C57.4985 56.6615 58.5508 56.4911 59.5052 56.1598L57.6852 50.4151C57.2955 50.5318 56.8918 50.5901 56.4812 50.5855Z" fill="url(#paint10_linear_1250_570)"/>
<path d="M52.7532 48.5807L52.7205 48.541L48.4365 53.007L48.4739 53.0467C49.9602 54.638 51.3812 55.625 52.9935 56.1663L54.8532 50.2863C54.1742 49.9947 53.5162 49.4627 52.7532 48.5807Z" fill="url(#paint11_linear_1250_570)"/>
<path d="M52.7194 48.5338C51.436 47.0358 49.8447 44.5391 47.3457 40.5071L44.0884 35.0564L44.0627 35.0098L40.2827 40.6984L40.3107 40.7451L42.6184 44.6371C44.856 48.3938 46.6784 51.1098 48.4354 53.0021L48.4727 53.0394L52.752 48.5734C52.7411 48.5603 52.7302 48.547 52.7194 48.5338Z" fill="url(#paint12_linear_1250_570)"/>
</g>
<defs>
<linearGradient id="paint0_linear_1250_570" x1="39.7227" y1="38.4362" x2="28.4816" y2="23.6589" gradientUnits="userSpaceOnUse">
<stop offset="0.0006" stop-color="#0867DF"/>
<stop offset="0.4539" stop-color="#0668E1"/>
<stop offset="0.8591" stop-color="#0064E0"/>
</linearGradient>
<linearGradient id="paint1_linear_1250_570" x1="17.1595" y1="27.1556" x2="25.1803" y2="21.0509" gradientUnits="userSpaceOnUse">
<stop offset="0.1323" stop-color="#0064DF"/>
<stop offset="0.9988" stop-color="#0064E0"/>
</linearGradient>
<linearGradient id="paint2_linear_1250_570" x1="14.2021" y1="37.3689" x2="17.4721" y2="29.1125" gradientUnits="userSpaceOnUse">
<stop offset="0.0147" stop-color="#0072EC"/>
<stop offset="0.6881" stop-color="#0064DF"/>
</linearGradient>
<linearGradient id="paint3_linear_1250_570" x1="13.0815" y1="43.6648" x2="13.4804" y2="38.3472" gradientUnits="userSpaceOnUse">
<stop offset="0.0731" stop-color="#007CF6"/>
<stop offset="0.9943" stop-color="#0072EC"/>
</linearGradient>
<linearGradient id="paint4_linear_1250_570" x1="13.2628" y1="46.0397" x2="13.1482" y2="45.184" gradientUnits="userSpaceOnUse">
<stop offset="0.0731" stop-color="#007FF9"/>
<stop offset="1" stop-color="#007CF6"/>
</linearGradient>
<linearGradient id="paint5_linear_1250_570" x1="13.0937" y1="47.1699" x2="14.8436" y2="50.8936" gradientUnits="userSpaceOnUse">
<stop offset="0.0731" stop-color="#007FF9"/>
<stop offset="1" stop-color="#0082FB"/>
</linearGradient>
<linearGradient id="paint6_linear_1250_570" x1="40.8388" y1="28.7944" x2="42.9491" y2="25.8671" gradientUnits="userSpaceOnUse">
<stop offset="0.2799" stop-color="#007FF8"/>
<stop offset="0.9141" stop-color="#0082FB"/>
</linearGradient>
<linearGradient id="paint7_linear_1250_570" x1="59.8696" y1="24.5571" x2="64.557" y2="41.8553" gradientUnits="userSpaceOnUse">
<stop stop-color="#0082FB"/>
<stop offset="0.9995" stop-color="#0081FA"/>
</linearGradient>
<linearGradient id="paint8_linear_1250_570" x1="63.5141" y1="43.4197" x2="60.764" y2="48.9953" gradientUnits="userSpaceOnUse">
<stop offset="0.0619" stop-color="#0081FA"/>
<stop offset="1" stop-color="#0080F9"/>
</linearGradient>
<linearGradient id="paint9_linear_1250_570" x1="59.5012" y1="53.0706" x2="61.7201" y2="51.5546" gradientUnits="userSpaceOnUse">
<stop stop-color="#027AF3"/>
<stop offset="1" stop-color="#0080F9"/>
</linearGradient>
<linearGradient id="paint10_linear_1250_570" x1="54.2845" y1="53.4602" x2="58.3315" y2="53.4602" gradientUnits="userSpaceOnUse">
<stop stop-color="#0377EF"/>
<stop offset="0.9994" stop-color="#0279F1"/>
</linearGradient>
<linearGradient id="paint11_linear_1250_570" x1="51.0226" y1="51.2326" x2="53.3012" y2="52.5777" gradientUnits="userSpaceOnUse">
<stop offset="0.0019" stop-color="#0471E9"/>
<stop offset="1" stop-color="#0377EF"/>
</linearGradient>
<linearGradient id="paint12_linear_1250_570" x1="44.3046" y1="38.565" x2="51.7473" y2="47.9514" gradientUnits="userSpaceOnUse">
<stop offset="0.2765" stop-color="#0867DF"/>
<stop offset="1" stop-color="#0471E9"/>
</linearGradient>
<clipPath id="clip0_1250_570">
<rect width="76" height="76" rx="24" fill="white"/>
</clipPath>
</defs>
</svg>
