<svg width="76" height="76" viewBox="0 0 76 76" fill="none" xmlns="http://www.w3.org/2000/svg">
<g clip-path="url(#clip0_1250_592)">
<rect width="76" height="76" rx="12" fill="white"/>
<path d="M39.1479 11.8006C42.0126 11.7568 44.8564 11.7796 47.6984 11.7568C47.7929 15.3111 49.2349 18.5101 51.5291 20.8796L51.5256 20.8761C53.9949 23.1003 57.2079 24.5423 60.7499 24.7873L60.7989 24.7908V33.6038C57.4529 33.5198 54.3064 32.7481 51.4696 31.4216L51.6131 31.4811C50.2411 30.8213 49.0809 30.1441 47.9784 29.3881L48.0694 29.4476C48.0484 35.8333 48.0904 42.2191 48.0256 48.5821C47.8454 51.8248 46.7674 54.7823 45.0384 57.2516L45.0734 57.1973C42.1824 61.3378 37.4994 64.0556 32.1741 64.2166H32.1496C31.9344 64.2271 31.6806 64.2323 31.4251 64.2323C28.3976 64.2323 25.5679 63.3888 23.1564 61.9241L23.2264 61.9643C18.8374 59.3236 15.8099 54.8051 15.2499 49.5498L15.2429 49.4781C15.1991 48.3843 15.1781 47.2906 15.2219 46.2196C16.0794 37.8563 23.0864 31.3866 31.6036 31.3866C32.5609 31.3866 33.4989 31.4688 34.4106 31.6246L34.3126 31.6106C34.3564 34.8463 34.2251 38.0838 34.2251 41.3196C33.4849 41.0518 32.6309 40.8961 31.7401 40.8961C28.4711 40.8961 25.6904 42.9856 24.6614 45.9028L24.6456 45.9553C24.4129 46.7026 24.2781 47.5618 24.2781 48.4508C24.2781 48.8113 24.3009 49.1683 24.3429 49.5183L24.3394 49.4763C24.9204 53.0568 27.9899 55.7588 31.6911 55.7588C31.7979 55.7588 31.9029 55.7571 32.0079 55.7518H31.9921C34.5524 55.6748 36.7749 54.2976 38.0314 52.2623L38.0489 52.2308C38.5161 51.5798 38.8364 50.7923 38.9431 49.9366L38.9449 49.9121C39.1636 45.9973 39.0761 42.1053 39.0971 38.1906C39.1181 29.3776 39.0761 20.5856 39.1409 11.7953L39.1479 11.8006Z" fill="black"/>
</g>
<defs>
<clipPath id="clip0_1250_592">
<rect width="76" height="76" rx="24" fill="white"/>
</clipPath>
</defs>
</svg>
