<svg width="48" height="48" viewBox="0 0 48 48" fill="none" xmlns="http://www.w3.org/2000/svg">
<path d="M14 14L5 19.5L14 25L19.5 34.5L24.5 26L35 19.5L25.5 14.5L19.5 5.5L14 14Z" fill="url(#paint0_linear_1207_126)"/>
<path d="M21.2288 35.5912C20.554 37.1364 18.4155 37.1364 17.7408 35.5912L15.9855 31.5708C14.4234 27.9932 11.6118 25.1452 8.1046 23.5884L3.27316 21.4438C1.73707 20.762 1.73707 18.5274 3.27316 17.8455L7.9537 15.7679C11.5511 14.171 14.4131 11.2176 15.9485 7.51784L17.7266 3.23346C18.3864 1.64354 20.5832 1.64353 21.243 3.23346L23.021 7.51788C24.5564 11.2176 27.4184 14.171 31.0158 15.7679L35.6964 17.8455C37.2324 18.5274 37.2324 20.762 35.6964 21.4438L30.865 23.5884C27.3578 25.1452 24.5462 27.9932 22.984 31.5708L21.2288 35.5912ZM9.07912 19.6447C13.6508 21.674 17.368 25.0096 19.4848 29.5992C21.6016 25.0096 25.3188 21.674 29.8904 19.6447C25.2642 17.5911 21.5352 14.0929 19.4848 9.42176C17.4344 14.093 13.7053 17.5911 9.07912 19.6447ZM38.8028 45.3798L39.2964 44.2484C40.1764 42.2312 41.7614 40.625 43.739 39.7464L45.2598 39.0706C46.0824 38.7052 46.0824 37.5098 45.2598 37.1444L43.8242 36.5064C41.7956 35.6052 40.1822 33.9396 39.3172 31.8538L38.8104 30.6312C38.457 29.7792 37.279 29.7792 36.9256 30.6312L36.4188 31.8538C35.554 33.9396 33.9406 35.6052 31.912 36.5064L30.4762 37.1444C29.6538 37.5098 29.6538 38.7052 30.4762 39.0706L31.997 39.7464C33.9748 40.625 35.5596 42.2312 36.4396 44.2484L36.9334 45.3798C37.2946 46.208 38.4414 46.208 38.8028 45.3798Z" fill="white"/>
<defs>
<linearGradient id="paint0_linear_1207_126" x1="32.9375" y1="41.025" x2="-0.751032" y2="12.6628" gradientUnits="userSpaceOnUse">
<stop stop-color="#8C2CF6" stop-opacity="0.4"/>
<stop offset="1" stop-color="#8C2CF6" stop-opacity="0"/>
</linearGradient>
</defs>
</svg>
