<svg width="48" height="48" viewBox="0 0 48 48" fill="none" xmlns="http://www.w3.org/2000/svg">
<path d="M17 42L9 37L5.5 29.5L8.5 20.5L19 10.5L28 5.5L39.5 9L42 15.5L40.5 26.5L27.5 39L17 42Z" fill="url(#paint0_linear_1207_120)"/>
<path d="M26.1219 16.2224L28.9503 19.0509C34.4177 24.5183 34.4177 33.3825 28.9503 38.8499L28.2433 39.5569C22.7759 45.0243 13.9116 45.0243 8.44425 39.5569C2.97691 34.0897 2.97691 25.2253 8.44425 19.758L11.2727 22.5865C7.36745 26.4917 7.36745 32.8233 11.2727 36.7285C15.1779 40.6337 21.5095 40.6337 25.4149 36.7285L26.1219 36.0215C30.0271 32.1161 30.0271 25.7845 26.1219 21.8793L23.2935 19.0509L26.1219 16.2224ZM39.5569 28.2433L36.7285 25.4149C40.6337 21.5095 40.6337 15.1779 36.7285 11.2727C32.8233 7.36745 26.4917 7.36745 22.5865 11.2727L21.8793 11.9798C17.9741 15.885 17.9741 22.2167 21.8793 26.1219L24.7077 28.9503L21.8793 31.7787L19.0509 28.9503C13.5835 23.4831 13.5835 14.6187 19.0509 9.15137L19.758 8.44425C25.2253 2.97691 34.0897 2.97691 39.5569 8.44425C45.0243 13.9116 45.0243 22.7759 39.5569 28.2433Z" fill="white"/>
<defs>
<linearGradient id="paint0_linear_1207_120" x1="39.4907" y1="50.2125" x2="-2.64277" y2="15.923" gradientUnits="userSpaceOnUse">
<stop stop-color="#8C2CF6" stop-opacity="0.4"/>
<stop offset="1" stop-color="#8C2CF6" stop-opacity="0"/>
</linearGradient>
</defs>
</svg>
