<svg width="48" height="48" viewBox="0 0 48 48" fill="none" xmlns="http://www.w3.org/2000/svg">
<path d="M35 18.5H13.5L12 24.5L12.5 34.5L23.5 42.5L32.5 37L36.5 28.5L35 18.5Z" fill="url(#paint0_linear_1207_116)"/>
<path d="M26 39.8C30.5644 38.8734 34 34.838 34 30V24C34 22.598 33.7128 21.2438 33.1692 20H14.8308C14.2872 21.2438 14 22.598 14 24V30C14 34.838 17.4355 38.8734 22 39.8V28H26V39.8ZM11.0716 35.3814C10.3812 33.7246 10 31.9068 10 30H4V26H10V24C10 22.7146 10.1732 21.4696 10.4976 20.2872L6.0718 17.732L8.0718 14.2679L12.1127 16.601C12.2399 16.3971 12.3722 16.1967 12.5094 16H35.4906C35.6278 16.1967 35.76 16.3971 35.8872 16.601L39.9282 14.2679L41.9282 17.732L37.5024 20.2872C37.8268 21.4696 38 22.7146 38 24V26H44V30H38C38 31.9068 37.6188 33.7246 36.9284 35.3814L41.9282 38.268L39.9282 41.732L34.8766 38.8154C32.3098 41.9786 28.391 44 24 44C19.6091 44 15.6902 41.9786 13.1234 38.8154L8.0718 41.732L6.0718 38.268L11.0716 35.3814ZM16 12C16 7.58172 19.5817 4 24 4C28.4182 4 32 7.58172 32 12H16Z" fill="white"/>
<defs>
<linearGradient id="paint0_linear_1207_116" x1="34.8157" y1="47.9" x2="7.00088" y2="24.7919" gradientUnits="userSpaceOnUse">
<stop stop-color="#8C2CF6" stop-opacity="0.4"/>
<stop offset="1" stop-color="#8C2CF6" stop-opacity="0"/>
</linearGradient>
</defs>
</svg>
