<svg width="48" height="48" viewBox="0 0 48 48" fill="none" xmlns="http://www.w3.org/2000/svg">
<path d="M27 12L19.5 23.5L27.5 36H32L36.5 40.5L42 38.5V9.5L36.5 7.5L34 11.5L27 12Z" fill="url(#paint0_linear_1197_90)"/>
<path d="M19.074 26L14.6599 26.0018C13.8357 28.3312 11.6137 30 9.00195 30C5.68823 30 3.00195 27.3138 3.00195 24C3.00195 20.6862 5.68823 18 9.00195 18C11.6145 18 13.837 19.6697 14.6606 22.0002L19.074 22L26.002 10L32.3432 10.0002C33.167 7.6697 35.3894 6 38.002 6C41.3156 6 44.002 8.6863 44.002 12C44.002 15.3137 41.3156 18 38.002 18C35.3902 18 33.1682 16.3312 32.344 14.0018L28.31 14L22.538 23.998L28.312 34L32.3432 34.0002C33.167 31.6698 35.3894 30 38.002 30C41.3156 30 44.002 32.6862 44.002 36C44.002 39.3138 41.3156 42 38.002 42C35.3902 42 33.1682 40.3312 32.344 38.0018L26.002 38L19.074 26ZM38.002 34C36.8974 34 36.002 34.8954 36.002 36C36.002 37.1046 36.8974 38 38.002 38C39.1066 38 40.002 37.1046 40.002 36C40.002 34.8954 39.1066 34 38.002 34ZM9.00195 22C7.89737 22 7.00195 22.8954 7.00195 24C7.00195 25.1046 7.89737 26 9.00195 26C10.1065 26 11.002 25.1046 11.002 24C11.002 22.8954 10.1065 22 9.00195 22ZM38.002 10C36.8974 10 36.002 10.8954 36.002 12C36.002 13.1046 36.8974 14 38.002 14C39.1066 14 40.002 13.1046 40.002 12C40.002 10.8954 39.1066 10 38.002 10Z" fill="white"/>
<defs>
<linearGradient id="paint0_linear_1197_90" x1="40.4532" y1="47.925" x2="7.44223" y2="29.6078" gradientUnits="userSpaceOnUse">
<stop stop-color="#8C2CF6" stop-opacity="0.4"/>
<stop offset="1" stop-color="#8C2CF6" stop-opacity="0"/>
</linearGradient>
</defs>
</svg>
