<svg width="48" height="48" viewBox="0 0 48 48" fill="none" xmlns="http://www.w3.org/2000/svg">
<path d="M24 41.799L33.8994 31.8994C39.3668 26.4322 39.3668 17.5678 33.8994 12.1005C28.4322 6.63316 19.5678 6.63316 14.1005 12.1005C8.63316 17.5678 8.63316 26.4322 14.1005 31.8994L24 41.799Z" fill="url(#paint0_linear_1247_408)"/>
<path d="M24 41.799L33.8994 31.8994C39.3668 26.4322 39.3668 17.5678 33.8994 12.1005C28.4322 6.63316 19.5678 6.63316 14.1005 12.1005C8.63316 17.5678 8.63316 26.4322 14.1005 31.8994L24 41.799ZM24 47.4558L11.2721 34.728C4.24264 27.6984 4.24264 16.3015 11.2721 9.27208C18.3015 2.24264 29.6984 2.24264 36.728 9.27208C43.7574 16.3015 43.7574 27.6984 36.728 34.728L24 47.4558ZM24 26C26.2092 26 28 24.2092 28 22C28 19.7909 26.2092 18 24 18C21.7908 18 20 19.7909 20 22C20 24.2092 21.7908 26 24 26ZM24 30C19.5817 30 16 26.4182 16 22C16 17.5817 19.5817 14 24 14C28.4182 14 32 17.5817 32 22C32 26.4182 28.4182 30 24 30Z" fill="white"/>
<defs>
<linearGradient id="paint0_linear_1247_408" x1="36.075" y1="49.4038" x2="-0.863525" y2="24.4999" gradientUnits="userSpaceOnUse">
<stop stop-color="#8C2CF6" stop-opacity="0.4"/>
<stop offset="1" stop-color="#8C2CF6" stop-opacity="0"/>
</linearGradient>
</defs>
</svg>
