<svg width="48" height="48" viewBox="0 0 48 48" fill="none" xmlns="http://www.w3.org/2000/svg">
<g clip-path="url(#clip0_1247_421)">
<path d="M18.5 8.5L15.5 42L32 41.5L29.5 10L24 5.5L18.5 8.5Z" fill="url(#paint0_linear_1247_421)"/>
<path d="M24 16C24.5304 16 25.0391 15.7893 25.4142 15.4142C25.7893 15.0391 26 14.5304 26 14C26 13.4696 25.7893 12.9609 25.4142 12.5858C25.0391 12.2107 24.5304 12 24 12C23.4696 12 22.9609 12.2107 22.5858 12.5858C22.2107 12.9609 22 13.4696 22 14C22 14.5304 22.2107 15.0391 22.5858 15.4142C22.9609 15.7893 23.4696 16 24 16Z" fill="white"/>
<path fill-rule="evenodd" clip-rule="evenodd" d="M25.6657 4.70691L30.6977 8.06091C31.4777 8.58091 31.9697 9.43491 32.0277 10.3709L32.5097 18.0649C32.917 18.1715 33.2803 18.4039 33.5478 18.729C33.8153 19.0541 33.9734 19.4553 33.9996 19.8755C34.0257 20.2957 33.9186 20.7135 33.6935 21.0692C33.4683 21.425 33.1367 21.7006 32.7457 21.8569L33.8817 40.0009H38.0017C38.5322 40.0009 39.0409 40.2116 39.4159 40.5867C39.791 40.9618 40.0017 41.4705 40.0017 42.0009C40.0017 42.5313 39.791 43.0401 39.4159 43.4151C39.0409 43.7902 38.5322 44.0009 38.0017 44.0009H10.0017C9.47129 44.0009 8.96258 43.7902 8.58751 43.4151C8.21244 43.0401 8.00172 42.5313 8.00172 42.0009C8.00172 41.4705 8.21244 40.9618 8.58751 40.5867C8.96258 40.2116 9.47129 40.0009 10.0017 40.0009H14.1217L15.2577 21.8569C14.8668 21.7006 14.5351 21.425 14.31 21.0692C14.0849 20.7135 13.9777 20.2957 14.0039 19.8755C14.03 19.4553 14.1881 19.0541 14.4556 18.729C14.7231 18.4039 15.0864 18.1715 15.4937 18.0649L15.9737 10.3709C16.0026 9.90924 16.1379 9.46051 16.369 9.05978C16.6 8.65906 16.9206 8.31719 17.3057 8.06091L22.3377 4.70691C22.8305 4.37841 23.4095 4.20313 24.0017 4.20312C24.594 4.20312 25.1729 4.37841 25.6657 4.70691ZM28.7477 22.0009H19.2557L18.1297 40.0009H29.8717L28.7477 22.0009ZM8.58772 16.5869C8.94764 16.2282 9.43059 16.02 9.93849 16.0045C10.4464 15.9889 10.9411 16.1673 11.3223 16.5034C11.7034 16.8395 11.9423 17.308 11.9905 17.8139C12.0387 18.3197 11.8925 18.8249 11.5817 19.2269L11.4157 19.4149L9.41572 21.4149C9.05581 21.7736 8.57285 21.9819 8.06495 21.9974C7.55706 22.0129 7.0623 21.8345 6.68116 21.4984C6.30003 21.1623 6.06111 20.6938 6.01292 20.188C5.96474 19.6821 6.1109 19.1769 6.42172 18.7749L6.58772 18.5869L8.58772 16.5869ZM36.5877 16.5869C36.9321 16.2426 37.3903 16.0357 37.8764 16.0051C38.3624 15.9746 38.8429 16.1224 39.2277 16.4209L39.4157 16.5869L41.4157 18.5869C41.7744 18.9468 41.9827 19.4298 41.9982 19.9377C42.0137 20.4456 41.8353 20.9403 41.4992 21.3215C41.1632 21.7026 40.6946 21.9415 40.1888 21.9897C39.6829 22.0379 39.1777 21.8917 38.7757 21.5809L38.5877 21.4149L36.5877 19.4149C36.2128 19.0399 36.0021 18.5312 36.0021 18.0009C36.0021 17.4706 36.2128 16.962 36.5877 16.5869ZM24.0017 8.40491L19.9357 11.1149L19.5057 18.0009H28.4977L28.0677 11.1149L24.0017 8.40491ZM9.41572 8.58491L11.4157 10.5849C11.791 10.9599 12.0019 11.4687 12.0021 11.9992C12.0023 12.5297 11.7917 13.0386 11.4167 13.4139C11.0417 13.7892 10.533 14.0001 10.0024 14.0003C9.47189 14.0005 8.963 13.7899 8.58772 13.4149L6.58772 11.4149C6.22341 11.0377 6.02182 10.5325 6.02637 10.0081C6.03093 9.48371 6.24127 8.98209 6.61209 8.61127C6.9829 8.24045 7.48453 8.03012 8.00892 8.02556C8.53331 8.021 9.03852 8.22259 9.41572 8.58691V8.58491ZM41.4157 8.58491C41.6017 8.77065 41.7492 8.99123 41.8498 9.23403C41.9505 9.47682 42.0023 9.73708 42.0023 9.99991C42.0023 10.2627 41.9505 10.523 41.8498 10.7658C41.7492 11.0086 41.6017 11.2292 41.4157 11.4149L39.4157 13.4149C39.2312 13.6059 39.0105 13.7583 38.7665 13.8631C38.5225 13.9679 38.2601 14.0231 37.9945 14.0254C37.729 14.0277 37.4656 13.9771 37.2198 13.8766C36.974 13.776 36.7507 13.6275 36.5629 13.4397C36.3751 13.2519 36.2266 13.0286 36.1261 12.7828C36.0255 12.537 35.9749 12.2737 35.9772 12.0081C35.9795 11.7425 36.0347 11.4801 36.1395 11.2361C36.2443 10.9921 36.3967 10.7714 36.5877 10.5869L38.5877 8.58691C38.9628 8.21197 39.4714 8.00133 40.0017 8.00133C40.532 8.00133 41.0407 8.21197 41.4157 8.58691V8.58491Z" fill="white"/>
</g>
<defs>
<linearGradient id="paint0_linear_1247_421" x1="30.8657" y1="50.2125" x2="2.97853" y2="39.953" gradientUnits="userSpaceOnUse">
<stop stop-color="#8C2CF6" stop-opacity="0.4"/>
<stop offset="1" stop-color="#8C2CF6" stop-opacity="0"/>
</linearGradient>
<clipPath id="clip0_1247_421">
<rect width="48" height="48" fill="white"/>
</clipPath>
</defs>
</svg>
