<svg width="48" height="48" viewBox="0 0 48 48" fill="none" xmlns="http://www.w3.org/2000/svg">
  <path d="M45.9993 24.4883C45.9993 22.6783 45.8493 21.3583 45.5273 19.9883H24.4473V28.1543H36.8193C36.5713 30.1823 35.2253 33.2383 32.2313 35.2923L32.1893 35.5643L38.8533 40.6243L39.3133 40.6683C43.5573 36.8323 45.9993 31.1843 45.9993 24.4883Z" fill="white"/>
  <path d="M24.451 46.0016C30.511 46.0016 35.599 44.0456 39.317 40.6716L32.233 35.2956C30.337 36.5916 27.793 37.4956 24.451 37.4956C21.6339 37.4958 18.8874 36.6141 16.5969 34.9742C14.3063 33.3343 12.5866 31.0185 11.679 28.3516L11.415 28.3736L4.48502 33.6296L4.39502 33.8776C8.08702 41.0636 15.671 46.0016 24.451 46.0016Z" fill="white"/>
  <path d="M11.68 28.3496C11.1881 26.9518 10.9332 25.4815 10.926 23.9996C10.926 22.4836 11.202 21.0176 11.648 19.6496L11.636 19.3556L4.62 14.0156L4.39 14.1236C2.82159 17.1796 2.00238 20.5647 2 23.9996C2 27.5436 2.872 30.8936 4.394 33.8756L11.68 28.3496Z" fill="white"/>
  <path d="M24.451 10.506C28.667 10.506 31.509 12.29 33.131 13.782L39.465 7.72C35.575 4.176 30.511 2 24.451 2C15.669 2 8.08702 6.938 4.39502 14.124L11.655 19.65C12.5704 16.9833 14.2954 14.6689 16.5893 13.0297C18.8832 11.3904 21.6316 10.5082 24.451 10.506Z" fill="white"/>
</svg>
