<svg width="200" height="200" viewBox="0 0 200 200" fill="none" xmlns="http://www.w3.org/2000/svg">
<g clip-path="url(#clip0_1247_431)">
<path d="M166.02 39C165.879 37.9916 165.02 37.4166 164.299 37.4166C163.579 37.4166 148.241 36.2709 148.241 36.2709C148.241 36.2709 137.633 25.6625 136.345 24.5166C135.195 23.3709 132.904 23.6541 132.041 23.9416C131.899 23.9416 129.749 24.6584 126.02 25.8084C122.437 15.3416 116.128 5.87891 105.087 5.87891H104.087C101.074 1.8625 97.0619 0 93.7619 0C67.9578 0 55.6285 32.2584 51.7578 48.6041C41.716 51.7584 34.5494 53.9084 33.691 54.1916C28.0994 55.9125 27.9578 56.0584 27.241 61.3584C26.666 65.375 12.041 178.642 12.041 178.642L126.02 200L187.812 186.667C187.812 186.525 166.166 40 166.02 39ZM119.712 27.5209C116.495 28.4762 113.294 29.4805 110.108 30.5334V28.3834C110.108 22.075 109.245 16.9125 107.816 12.7584C113.549 13.6166 117.274 20.0666 119.712 27.5209ZM100.645 14.1875C102.22 18.2041 103.229 23.7959 103.229 31.5375V32.6834C96.916 34.6916 90.1785 36.7 83.2953 38.85C87.1703 24.0834 94.4785 16.9125 100.645 14.1875ZM93.041 6.8834C94.1869 6.8834 95.3328 7.3125 96.341 8.0291C88.0244 11.9 79.2785 21.65 75.5494 41.2916C70.1035 43.0125 64.7994 44.5875 59.7785 46.1666C64.0828 31.2541 74.5453 6.8834 93.041 6.8834Z" fill="#95BF47"/>
<path d="M164.299 37.2752C163.583 37.2752 148.241 36.1293 148.241 36.1293C148.241 36.1293 137.633 25.5211 136.345 24.3711C135.932 23.9356 135.366 23.6784 134.766 23.6543L126.166 200L187.958 186.667C187.958 186.667 166.308 40.0002 166.166 39.0002C166.039 38.5712 165.799 38.1844 165.47 37.8808C165.142 37.5772 164.737 37.3679 164.299 37.2752Z" fill="#5E8E3E"/>
<path d="M105.092 71.3951L97.4918 94.0492C97.4918 94.0492 90.7543 90.4658 82.5793 90.4658C70.5377 90.4658 69.9627 98.0617 69.9627 99.9242C69.9627 110.249 96.9211 114.266 96.9211 138.495C96.9211 157.562 84.8752 169.891 68.5293 169.891C48.8877 169.891 38.9961 157.703 38.9961 157.703L44.3002 140.358C44.3002 140.358 54.6252 149.245 63.2252 149.245C68.9627 149.245 71.2545 144.803 71.2545 141.503C71.2545 128.028 49.1752 127.453 49.1752 105.233C49.1752 86.5951 62.5086 68.5283 89.6043 68.5283C99.9293 68.3867 105.092 71.3951 105.092 71.3951H105.092Z" fill="white"/>
</g>
<defs>
<clipPath id="clip0_1247_431">
<rect width="200" height="200" fill="white"/>
</clipPath>
</defs>
</svg>
