<svg width="200" height="200" viewBox="0 0 200 200" fill="none" xmlns="http://www.w3.org/2000/svg">
<path d="M137.812 62.1879C135.828 62.0934 133.839 62.1981 131.875 62.5004L156.875 100L131.875 136.875C131.875 136.875 143.125 138.75 148.125 133.75C151.25 130.625 153.125 127.5 163.75 112.5C165.625 109.375 167.5 112.5 167.5 112.5C176.875 125 179.375 130 183.75 133.75C189.375 138.125 200 136.875 200 136.875L175 100L199.375 62.5004C199.375 62.5004 188.75 60.6254 183.75 65.6254C180 69.3754 176.25 74.3754 167.5 87.5004C167.5 87.5004 165.625 90.6254 163.75 87.5004C155 75.0004 151.25 69.3754 147.5 65.6254C145 63.1254 141.1 62.3379 137.812 62.1879ZM2.625 62.4379C1.7496 62.3986 0.872537 62.4195 0 62.5004L20 137.5C20 137.5 26.25 137.5 29.375 136.25C33.75 134.375 35.625 132.5 38.125 122.5C40.625 113.75 46.875 86.8754 47.5 85.0004C48.75 80.6254 50.625 80.6254 51.875 85.0004C52.5 86.8754 58.75 113.125 61.25 122.5C63.75 132.5 65.625 134.375 70 136.25C73.75 138.125 80 137.5 80 137.5L100 62.5004C93.125 61.8754 85 65.6254 84.375 73.1254L73.75 113.125L65 80.6254C63.125 71.2504 58.75 66.2504 50.625 66.2504C42.5 66.2504 38.75 70.6254 36.25 80.6254L27.5 113.125L16.875 73.1254C15.2313 66.0129 8.8125 62.7317 2.625 62.4379ZM122.5 62.5004C122.5 62.5004 117.5 62.5004 114.375 63.7504C110.625 65.6254 109.375 69.3754 109.375 78.7504C109.375 78.7504 111.25 76.8754 114.375 75.6254C123.125 72.5004 122.5 66.2504 122.5 62.5004ZM121.875 75.0004V75.4754C122.025 75.2067 122.062 75.0004 121.875 75.0004ZM121.875 75.4754C121.525 76.1067 120.312 77.2504 118.125 78.1254C116.25 79.3754 114.375 80.0004 112.5 80.6254C108.125 82.5004 108.75 85.0004 108.75 91.2504V137.5C108.75 137.5 113.75 138.125 116.875 136.25C121.25 134.375 121.875 131.875 121.875 122.5V75.4754Z" fill="#FFFFFF"/>
</svg>
