<svg width="200" height="200" viewBox="0 0 200 200" fill="none" xmlns="http://www.w3.org/2000/svg">
<path d="M194.118 100C194.118 151.883 151.895 194.118 100 194.118C48.1063 194.118 5.88281 151.883 5.88281 100C5.88281 48.1181 48.1063 5.88281 100 5.88281C151.895 5.88281 194.118 48.1181 194.118 100ZM189.812 100C189.812 50.5299 149.483 10.1887 100 10.1887C50.5181 10.1887 10.1887 50.5299 10.1887 100C10.1887 149.471 50.5181 189.812 100 189.812C149.483 189.812 189.812 149.471 189.812 100ZM26.2593 67.1181L64.8122 172.695C37.8122 159.553 19.224 131.93 19.224 100C19.224 88.3534 21.7534 77.2005 26.2593 67.1181ZM148.318 122.059L140.33 148.953L111.13 62.2005C111.13 62.2005 115.965 61.8828 120.377 61.3534C124.683 60.824 124.165 54.4122 119.859 54.7416C106.73 55.6828 98.3181 55.7887 98.3181 55.7887C98.3181 55.7887 90.4475 55.6711 77.1063 54.7299C72.6946 54.4122 72.1652 61.024 76.5769 61.3416C80.6711 61.7652 84.9769 62.2005 84.9769 62.2005L97.5769 96.6475L79.9299 149.589L50.5181 62.2005C50.5181 62.2005 55.3534 61.8828 59.7652 61.3534C64.0711 60.824 63.5534 54.4122 59.2475 54.7416C46.2122 55.6828 37.7063 55.7887 37.7063 55.7887C36.2358 55.7887 34.4593 55.6828 32.5652 55.6828C46.9534 33.7181 71.7416 19.224 100 19.224C121.012 19.224 140.13 27.3181 154.518 40.4475C154.2 40.4475 153.789 40.4475 153.471 40.4475C145.589 40.4475 139.918 47.2828 139.918 54.7416C139.918 61.3534 143.8 66.9299 147.895 73.6358C151.059 79.0005 154.506 85.9299 154.506 95.9181C154.518 102.824 151.695 110.824 148.318 122.059ZM126.248 175.012C126.353 175.424 126.565 175.836 126.777 176.165C118.377 179.106 109.448 180.789 99.9887 180.789C92.1181 180.789 84.4475 179.612 77.1887 177.424L101.353 107.059L126.248 175.012ZM180.777 100C180.777 129.824 164.6 155.777 140.542 169.753L165.224 98.5299C169.318 86.7534 171.424 77.7416 171.424 69.5299C171.424 66.6005 171.212 63.8593 170.789 61.2358C177.106 72.7887 180.777 85.9299 180.777 100Z" fill="#1296DB"/>
</svg>
