<svg width="149" height="48" viewBox="0 0 149 48" fill="none" xmlns="http://www.w3.org/2000/svg">
<path d="M17.718 23.47C19.752 20.05 25.836 17.304 30.122 24.042C33.28 28.61 38.69 32.836 38.69 32.836C38.69 32.836 42.744 36.038 40.15 42.204C37.67 48.116 28.87 45.418 28.14 45.184L28.092 45.166C28.092 45.166 24.6 44.03 20.54 44.942C16.488 45.858 12.994 45.514 12.994 45.514L12.904 45.512C12.248 45.492 8.144 45.138 6.902 39.576C5.552 33.52 11.632 30.202 12.086 29.64C12.538 29.064 15.69 26.9 17.718 23.47ZM19.69 26.946V31.01H16.41C16.41 31.01 13.13 31.286 11.984 35.038C11.584 37.542 12.338 39.018 12.468 39.334C12.602 39.648 13.66 41.48 16.322 42.018H22.478V26.99L19.69 26.946ZM26.866 31.328L23.986 31.376V39.288C23.986 39.288 24.114 41.258 26.866 41.976H33.948V31.376H30.892V39.334H27.972C27.972 39.334 27.04 39.198 26.866 38.44V31.328ZM19.64 33.43V39.55H17.16C17.16 39.55 15.434 39.46 14.908 37.452C14.636 36.562 14.948 35.534 15.084 35.132C15.21 34.726 15.79 33.79 16.986 33.432L19.64 33.43ZM38.69 15.358C42.862 15.358 43.982 19.478 43.982 20.842C43.982 22.218 44.55 28.036 39.364 28.152C34.174 28.266 33.956 24.612 33.956 21.992C33.956 19.244 34.51 15.358 38.69 15.358ZM8.48 12.16C11.526 11.89 13.77 15.26 14.004 17.186C14.144 18.436 14.79 24.158 10.054 25.186C5.326 26.216 3.566 20.688 4.086 18.098C4.086 18.098 4.646 12.504 8.48 12.16ZM26.174 9.194C26.454 6.574 29.554 2.562 32.036 3.138C34.508 3.708 36.77 7.026 36.31 9.878C35.862 12.734 33.62 16.504 30.12 16.042C26.624 15.59 25.834 12.396 26.174 9.194ZM18.85 2C21.464 2 23.578 5.038 23.578 8.796C23.578 12.554 21.464 15.596 18.85 15.596C16.236 15.596 14.116 12.554 14.116 8.796C14.116 5.036 16.236 2 18.85 2Z" fill="white"/>
<path d="M58.38 11.724H69.498C71.912 11.724 73.816 12.302 75.176 13.458C76.434 14.546 77.08 16.008 77.08 17.844C77.08 19.204 76.74 20.36 76.094 21.312C75.448 22.196 74.53 22.842 73.306 23.318C74.904 23.624 76.094 24.27 76.91 25.256C77.692 26.208 78.1 27.534 78.1 29.166C78.1 31.614 77.25 33.416 75.584 34.572C74.156 35.524 72.116 36 69.532 36H58.38V11.724ZM62.358 14.988V21.924H68.444C70.144 21.924 71.334 21.618 72.048 21.074C72.728 20.496 73.102 19.578 73.102 18.32C73.102 17.164 72.728 16.314 72.048 15.804C71.3 15.26 70.144 14.988 68.512 14.988H62.358ZM62.358 25.188V32.736H68.954C70.45 32.736 71.64 32.498 72.49 32.022C73.578 31.41 74.122 30.458 74.122 29.098C74.122 27.704 73.714 26.718 72.932 26.106C72.116 25.494 70.824 25.188 69.056 25.188H62.358ZM89.5046 17.946C92.0886 17.946 94.0266 18.592 95.2506 19.884C96.3386 21.006 96.8826 22.638 96.8826 24.78V36H93.2786V33.688C92.5986 34.572 91.7486 35.218 90.7626 35.694C89.6406 36.204 88.3146 36.476 86.7846 36.476C84.9486 36.476 83.5206 36 82.4666 35.082C81.3786 34.13 80.8346 32.94 80.8346 31.478C80.8346 29.506 81.5826 27.976 83.1466 26.922C84.5746 25.902 86.5806 25.358 89.1646 25.29L93.0066 25.188V24.508C93.0066 22.196 91.7486 21.074 89.2326 21.074C88.1446 21.074 87.2946 21.244 86.6486 21.652C85.9006 22.094 85.3906 22.774 85.1866 23.692L81.3446 23.386C81.7186 21.448 82.6706 20.02 84.2006 19.136C85.4926 18.32 87.2606 17.946 89.5046 17.946ZM93.0066 27.976L89.4366 28.078C86.3426 28.146 84.8126 29.234 84.8126 31.342C84.8126 31.954 85.0506 32.464 85.5946 32.872C86.1386 33.28 86.8186 33.518 87.6686 33.518C89.1646 33.518 90.4226 33.076 91.4426 32.226C92.4626 31.342 93.0066 30.22 93.0066 28.86V27.976ZM103.59 11.248C104.338 11.248 104.984 11.486 105.494 11.962C105.97 12.438 106.242 13.05 106.242 13.798C106.242 14.546 105.97 15.192 105.46 15.668C104.95 16.144 104.338 16.382 103.59 16.382C102.842 16.382 102.23 16.144 101.72 15.668C101.21 15.158 100.972 14.546 100.972 13.798C100.972 13.05 101.21 12.438 101.72 11.962C102.23 11.486 102.842 11.248 103.59 11.248ZM101.652 18.422H105.528V36H101.652V18.422ZM122.847 11.248H126.723V36H123.119V34.13C121.895 35.694 120.127 36.476 117.815 36.476C115.197 36.476 113.157 35.558 111.695 33.722C110.335 32.022 109.655 29.812 109.655 27.126C109.655 24.542 110.301 22.4 111.661 20.7C113.089 18.864 115.095 17.946 117.611 17.946C119.651 17.946 121.385 18.898 122.847 20.836V11.248ZM118.529 21.074C116.761 21.074 115.503 21.652 114.687 22.808C113.973 23.794 113.633 25.222 113.633 27.126C113.633 29.03 113.939 30.492 114.619 31.512C115.401 32.736 116.659 33.348 118.393 33.348C119.889 33.348 121.079 32.736 121.895 31.546C122.609 30.458 122.983 29.03 122.983 27.33V27.058C122.983 25.188 122.507 23.692 121.623 22.604C120.807 21.584 119.753 21.074 118.529 21.074ZM130.788 18.422H134.664V29.132C134.664 30.56 134.936 31.58 135.548 32.26C136.16 32.906 137.112 33.246 138.472 33.246C139.322 33.246 140.138 32.872 140.92 32.158C141.702 31.41 142.28 30.424 142.62 29.166V18.422H146.496V36H142.62V33.722C141.124 35.558 139.288 36.476 137.112 36.476C132.896 36.476 130.788 34.096 130.788 29.37V18.422Z" fill="white"/>
</svg>
