<svg width="171" height="48" viewBox="0 0 171 48" fill="none" xmlns="http://www.w3.org/2000/svg">
<path d="M45.9993 24.4883C45.9993 22.6783 45.8493 21.3583 45.5273 19.9883H24.4473V28.1543H36.8193C36.5713 30.1823 35.2253 33.2383 32.2313 35.2923L32.1893 35.5643L38.8533 40.6243L39.3133 40.6683C43.5573 36.8323 45.9993 31.1843 45.9993 24.4883Z" fill="white"/>
<path d="M24.451 46.0016C30.511 46.0016 35.599 44.0456 39.317 40.6716L32.233 35.2956C30.337 36.5916 27.793 37.4956 24.451 37.4956C21.6339 37.4958 18.8874 36.6141 16.5969 34.9742C14.3063 33.3343 12.5866 31.0185 11.679 28.3516L11.415 28.3736L4.48502 33.6296L4.39502 33.8776C8.08702 41.0636 15.671 46.0016 24.451 46.0016Z" fill="white"/>
<path d="M11.68 28.3496C11.1881 26.9518 10.9332 25.4815 10.926 23.9996C10.926 22.4836 11.202 21.0176 11.648 19.6496L11.636 19.3556L4.62 14.0156L4.39 14.1236C2.82159 17.1796 2.00238 20.5647 2 23.9996C2 27.5436 2.872 30.8936 4.394 33.8756L11.68 28.3496Z" fill="white"/>
<path d="M24.451 10.506C28.667 10.506 31.509 12.29 33.131 13.782L39.465 7.72C35.575 4.176 30.511 2 24.451 2C15.669 2 8.08702 6.938 4.39502 14.124L11.655 19.65C12.5704 16.9833 14.2954 14.6689 16.5893 13.0297C18.8832 11.3904 21.6316 10.5082 24.451 10.506Z" fill="white"/>
<path d="M68.92 11.248C72.048 11.248 74.496 11.928 76.298 13.322C78.032 14.682 79.12 16.688 79.562 19.408H75.55C75.21 17.844 74.462 16.688 73.374 15.906C72.252 15.124 70.756 14.75 68.92 14.75C66.642 14.75 64.84 15.498 63.514 17.062C62.052 18.694 61.338 20.972 61.338 23.964C61.338 26.82 61.984 29.03 63.276 30.56C64.67 32.192 66.846 33.008 69.804 33.008C70.96 33.008 72.048 32.872 73.068 32.6C74.02 32.328 74.87 31.954 75.686 31.478V26.48H69.26V23.08H79.664V33.348C78.372 34.368 76.91 35.116 75.244 35.66C73.476 36.204 71.538 36.476 69.362 36.476C65.486 36.476 62.494 35.252 60.352 32.804C58.346 30.526 57.36 27.568 57.36 23.964C57.36 20.326 58.346 17.334 60.352 14.988C62.46 12.472 65.316 11.248 68.92 11.248ZM91.8992 17.946C94.5512 17.946 96.6932 18.796 98.3252 20.564C99.9232 22.298 100.739 24.508 100.739 27.228C100.739 29.914 99.9232 32.124 98.3592 33.824C96.7272 35.592 94.5512 36.476 91.8992 36.476C89.2132 36.476 87.0712 35.592 85.4392 33.824C83.8412 32.124 83.0592 29.914 83.0592 27.228C83.0592 24.508 83.8412 22.298 85.4732 20.564C87.0712 18.796 89.2132 17.946 91.8992 17.946ZM91.8992 21.108C90.2672 21.108 89.0432 21.72 88.1592 23.012C87.4112 24.1 87.0372 25.528 87.0372 27.228C87.0372 28.928 87.4112 30.322 88.1592 31.41C89.0432 32.668 90.2672 33.314 91.8992 33.314C93.4972 33.314 94.7552 32.668 95.6392 31.41C96.3872 30.288 96.7952 28.894 96.7952 27.228C96.7952 25.528 96.3872 24.1 95.6392 23.012C94.7552 21.72 93.4972 21.108 91.8992 21.108ZM112.286 17.946C114.938 17.946 117.08 18.796 118.712 20.564C120.31 22.298 121.126 24.508 121.126 27.228C121.126 29.914 120.31 32.124 118.746 33.824C117.114 35.592 114.938 36.476 112.286 36.476C109.6 36.476 107.458 35.592 105.826 33.824C104.228 32.124 103.446 29.914 103.446 27.228C103.446 24.508 104.228 22.298 105.86 20.564C107.458 18.796 109.6 17.946 112.286 17.946ZM112.286 21.108C110.654 21.108 109.43 21.72 108.546 23.012C107.798 24.1 107.424 25.528 107.424 27.228C107.424 28.928 107.798 30.322 108.546 31.41C109.43 32.668 110.654 33.314 112.286 33.314C113.884 33.314 115.142 32.668 116.026 31.41C116.774 30.288 117.182 28.894 117.182 27.228C117.182 25.528 116.774 24.1 116.026 23.012C115.142 21.72 113.884 21.108 112.286 21.108ZM131.823 17.946C133.999 17.946 135.733 18.796 137.025 20.564V18.422H140.901V34.878C140.901 40.42 138.147 43.208 132.639 43.208C130.157 43.208 128.287 42.732 126.995 41.848C125.703 40.896 124.887 39.468 124.547 37.496H128.423C128.627 38.482 129.035 39.162 129.681 39.57C130.293 39.944 131.279 40.148 132.639 40.148C135.563 40.148 137.025 38.584 137.025 35.456V32.872C135.733 34.674 133.999 35.592 131.823 35.592C129.443 35.592 127.505 34.776 126.043 33.212C124.547 31.614 123.833 29.472 123.833 26.82C123.833 24.168 124.547 22.026 126.043 20.394C127.505 18.762 129.443 17.946 131.823 17.946ZM132.435 21.074C130.973 21.074 129.851 21.584 129.035 22.604C128.219 23.59 127.811 24.984 127.811 26.82C127.811 28.486 128.117 29.778 128.763 30.73C129.511 31.852 130.701 32.43 132.401 32.43C133.897 32.43 135.053 31.92 135.869 30.968C136.651 29.948 137.059 28.588 137.059 26.82C137.059 25.018 136.651 23.624 135.869 22.604C135.053 21.584 133.897 21.074 132.435 21.074ZM145.306 11.248H149.182V36H145.306V11.248ZM161.079 17.946C163.969 17.946 166.179 18.898 167.709 20.87C169.103 22.638 169.817 25.12 169.817 28.282H156.659C156.795 29.914 157.237 31.172 157.985 32.022C158.733 32.872 159.821 33.314 161.215 33.314C162.405 33.314 163.357 33.042 164.105 32.498C164.683 32.056 165.193 31.342 165.669 30.356H169.545C169.137 31.988 168.321 33.382 167.097 34.47C165.533 35.796 163.595 36.476 161.249 36.476C158.631 36.476 156.557 35.66 155.027 34.062C153.395 32.396 152.579 30.118 152.579 27.194C152.579 24.576 153.327 22.4 154.891 20.632C156.387 18.83 158.461 17.946 161.079 17.946ZM161.181 21.108C159.889 21.108 158.903 21.448 158.155 22.196C157.441 22.91 156.965 23.964 156.727 25.358H165.771C165.431 22.502 163.901 21.108 161.181 21.108Z" fill="white"/>
</svg>
