<svg width="48" height="48" viewBox="0 0 48 48" fill="none" xmlns="http://www.w3.org/2000/svg">
<path d="M29 24C30.6569 24 32 25.3431 32 27V32H36C37.6569 32 39 33.3431 39 35V39C39 40.6569 37.6569 42 36 42H12C10.3431 42 9 40.6569 9 39V35C9 33.3431 10.3431 32 12 32H16V27C16 25.3431 17.3431 24 19 24H29Z" fill="url(#paint0_linear_822_107)"/>
<path d="M30.0002 6C31.1048 6 32.0002 6.89544 32.0002 8V16C32.0002 17.1046 31.1048 18 30.0002 18H26.0002V22H34.0002C35.1048 22 36.0002 22.8954 36.0002 24V30H40.0002C41.1048 30 42.0002 30.8954 42.0002 32V40C42.0002 41.1046 41.1048 42 40.0002 42H28.0002C26.8956 42 26.0002 41.1046 26.0002 40V32C26.0002 30.8954 26.8956 30 28.0002 30H32.0002V26H16.0002V30H20.0002C21.1048 30 22.0002 30.8954 22.0002 32V40C22.0002 41.1046 21.1048 42 20.0002 42H8.00024C6.89568 42 6.00024 41.1046 6.00024 40V32C6.00024 30.8954 6.89568 30 8.00024 30H12.0002V24C12.0002 22.8954 12.8957 22 14.0002 22H22.0002V18H18.0002C16.8957 18 16.0002 17.1046 16.0002 16V8C16.0002 6.89544 16.8957 6 18.0002 6H30.0002ZM18.0002 34H10.0002V38H18.0002V34ZM38.0002 34H30.0002V38H38.0002V34ZM28.0002 10H20.0002V14H28.0002V10Z" fill="white"/>
<defs>
<linearGradient id="paint0_linear_822_107" x1="36.9375" y1="46.05" x2="16.666" y2="18.5541" gradientUnits="userSpaceOnUse">
<stop stop-color="#8C2CF6" stop-opacity="0.4"/>
<stop offset="1" stop-color="#8C2CF6" stop-opacity="0"/>
</linearGradient>
</defs>
</svg>
