<svg width="80" height="80" viewBox="0 0 80 80" fill="none" xmlns="http://www.w3.org/2000/svg">
<g clip-path="url(#clip0_706_64)">
<circle cx="39.5" cy="41.5" r="30.5" fill="url(#paint0_linear_706_64)"/>
<path d="M69.0448 27.0944L68.2228 28.98C67.6214 30.3604 65.7121 30.3604 65.1104 28.98L64.2888 27.0944C62.8238 23.7322 60.1851 21.0554 56.8924 19.5909L54.3601 18.4647C52.9911 17.8558 52.9911 15.8634 54.3601 15.2544L56.7508 14.1911C60.1281 12.689 62.8141 9.91309 64.2538 6.43675L65.0978 4.39909C65.6861 2.97895 67.6474 2.97895 68.2354 4.39909L69.0794 6.43675C70.5194 9.91309 73.2054 12.689 76.5828 14.1911L78.9731 15.2544C80.3424 15.8634 80.3424 17.8558 78.9731 18.4647L76.4411 19.5909C73.1484 21.0554 70.5098 23.7322 69.0448 27.0944ZM40.0001 6.66732C21.5906 6.66732 6.66675 21.5912 6.66675 40.0007C6.66675 49.2053 10.3977 57.5387 16.4298 63.571L6.66675 73.334H40.0001C58.4094 73.334 73.3334 58.41 73.3334 40.0007C73.3334 38.659 73.2541 37.3347 73.0994 36.032L66.4791 36.818C66.6031 37.8603 66.6668 38.9223 66.6668 40.0007C66.6668 54.7283 54.7278 66.6673 40.0001 66.6673H22.7615L25.8579 63.571L21.1439 58.857C16.1709 53.8837 13.3334 47.1753 13.3334 40.0007C13.3334 25.2731 25.2725 13.334 40.0001 13.334C42.3064 13.334 44.5394 13.626 46.6667 14.1733L48.3277 7.71689C45.6624 7.03112 42.8714 6.66732 40.0001 6.66732ZM30.0001 30.0007H23.3334V50.0007H30.0001V30.0007ZM56.6668 30.0007H50.0001V50.0007H56.6668V30.0007ZM43.3334 20.0007H36.6667V60.0006H43.3334V20.0007Z" fill="white"/>
</g>
<defs>
<linearGradient id="paint0_linear_706_64" x1="65.8063" y1="85.725" x2="-4.60846" y2="28.4193" gradientUnits="userSpaceOnUse">
<stop stop-color="#8C2CF6" stop-opacity="0.4"/>
<stop offset="1" stop-color="#8C2CF6" stop-opacity="0"/>
</linearGradient>
<clipPath id="clip0_706_64">
<rect width="80" height="80" fill="white"/>
</clipPath>
</defs>
</svg>
