<svg width="138" height="48" viewBox="0 0 138 48" fill="none" xmlns="http://www.w3.org/2000/svg">
<g clip-path="url(#clip0_1124_252)">
<path d="M13.7936 8H13.7456L13.6836 13.23H13.7276C17.1576 13.23 19.8196 15.944 25.6076 25.722L25.9576 26.316L25.9816 26.356L29.2216 21.48L29.1976 21.442C28.4896 20.2828 27.7574 19.1386 27.0016 18.01C26.2575 16.8963 25.4736 15.8096 24.6516 14.752C20.8256 9.864 17.6256 8 13.7936 8Z" fill="white"/>
<path d="M13.745 8C9.89904 8.02 6.49304 10.516 4.03904 14.34C4.03235 14.3513 4.02568 14.3627 4.01904 14.374L8.52704 16.836L8.54904 16.802C9.98504 14.636 11.769 13.254 13.685 13.232H13.727L13.791 8H13.745Z" fill="white"/>
<path d="M4.03711 14.3398L4.01511 14.3738C2.39911 16.8938 1.19511 19.9898 0.547109 23.3278L0.537109 23.3718L5.60511 24.5718L5.61311 24.5278C6.15311 21.5938 7.18511 18.8718 8.52511 16.8378L8.54711 16.8038L4.03711 14.3398Z" fill="white"/>
<path d="M5.614 24.5281L0.548 23.3281L0.538 23.3721C0.184 25.2081 0.004 27.0741 0 28.9441V28.9901L5.196 29.4561V29.4101C5.17709 27.7737 5.31776 26.1393 5.616 24.5301L5.614 24.5281Z" fill="white"/>
<path d="M5.35425 31.0755C5.26107 30.5382 5.20825 29.9947 5.19625 29.4495V29.4055L0.000246211 28.9375V28.9855C-0.00558496 30.0935 0.0921736 31.1997 0.292246 32.2895L5.36225 31.1195C5.35954 31.1048 5.35687 31.0902 5.35425 31.0755Z" fill="white"/>
<path d="M6.5392 33.78C5.9712 33.16 5.5712 32.268 5.3612 31.124L5.3532 31.082L0.283203 32.252L0.291203 32.294C0.675203 34.314 1.4272 35.994 2.5032 37.268L2.5312 37.302L6.5672 33.812C6.55715 33.8014 6.54915 33.7907 6.5392 33.78Z" fill="white"/>
<path d="M21.5599 19.3086C18.5039 24.0086 16.6519 26.9586 16.6519 26.9586C12.5819 33.3586 11.1739 34.7926 8.90991 34.7926C8.46467 34.8042 8.02219 34.7194 7.61277 34.544C7.20336 34.3687 6.8367 34.1069 6.53791 33.7766L2.50391 37.2646L2.53191 37.2986C4.01991 39.0366 6.11591 40.0006 8.71191 40.0006C12.6379 40.0006 15.4599 38.1446 20.4799 29.3406L24.0119 23.0806C23.2283 21.8012 22.412 20.5434 21.5599 19.3086Z" fill="white"/>
<path d="M27.0043 11.8926L26.9723 11.9246C26.1723 12.7846 25.4003 13.7406 24.6523 14.7566C25.4083 15.7226 26.1883 16.8046 27.0023 18.0166C27.9623 16.5306 28.8583 15.3266 29.7363 14.4026L29.7683 14.3706L27.0043 11.8926Z" fill="white"/>
<path d="M41.8367 11.426C39.7067 9.266 37.1667 8 34.4507 8C31.5867 8 29.1767 9.574 27.0047 11.888L26.9727 11.92L29.7367 14.4L29.7687 14.366C31.1987 12.872 32.5847 12.126 34.1207 12.126C35.7727 12.126 37.3207 12.906 38.6607 14.276L38.6907 14.308L41.8687 11.458L41.8367 11.426Z" fill="white"/>
<path d="M47.9957 28.2498C47.8757 21.3158 45.4557 15.1178 41.8677 11.4578L41.8357 11.4258L38.6597 14.2738L38.6897 14.3058C41.3897 17.0898 43.2437 22.2658 43.4117 28.2478V28.2938H47.9957V28.2498Z" fill="white"/>
<path d="M47.996 28.2999V28.2539H43.412V28.2979C43.42 28.5779 43.424 28.8619 43.424 29.1459C43.424 30.7759 43.182 32.0939 42.688 33.0459L42.666 33.0899L46.082 36.6539L46.108 36.6139C47.348 34.6939 48 32.0279 48 28.7939C48 28.6279 48 28.4639 47.996 28.2999Z" fill="white"/>
<path d="M42.688 33.0391L42.666 33.0791C42.238 33.8831 41.628 34.4191 40.832 34.6531L42.388 39.5771C42.6879 39.4757 42.9806 39.3541 43.264 39.2131C44.3715 38.6532 45.3134 37.8134 45.996 36.7771L46.084 36.6471L46.108 36.6071L42.688 33.0391Z" fill="white"/>
<path d="M39.8411 34.7878C39.3171 34.7878 38.8571 34.7098 38.4051 34.5078L36.8091 39.5518C37.7071 39.8578 38.6631 39.9958 39.7291 39.9958C40.7131 39.9958 41.6151 39.8498 42.4331 39.5658L40.8731 34.6418C40.5391 34.7418 40.1931 34.7918 39.8411 34.7878Z" fill="white"/>
<path d="M36.6453 33.0692L36.6173 33.0352L32.9453 36.8632L32.9773 36.8972C34.2513 38.2612 35.4693 39.1072 36.8513 39.5712L38.4453 34.5312C37.8633 34.2812 37.2993 33.8252 36.6453 33.0692Z" fill="white"/>
<path d="M36.6165 33.0295C35.5165 31.7455 34.1525 29.6055 32.0105 26.1495L29.2185 21.4775L29.1965 21.4375L25.9565 26.3135L25.9805 26.3535L27.9585 29.6895C29.8765 32.9095 31.4385 35.2375 32.9445 36.8595L32.9765 36.8915L36.6445 33.0635C36.6352 33.0522 36.6258 33.0409 36.6165 33.0295Z" fill="white"/>
</g>
<path d="M58.38 11.724H63.038L71.3 30.764H71.436L79.664 11.724H84.322V36H80.344V19.272H80.208L73.068 36H69.634L62.494 19.272H62.358V36H58.38V11.724ZM96.2329 17.946C99.1229 17.946 101.333 18.898 102.863 20.87C104.257 22.638 104.971 25.12 104.971 28.282H91.8129C91.9489 29.914 92.3909 31.172 93.1389 32.022C93.8869 32.872 94.9749 33.314 96.3689 33.314C97.5589 33.314 98.5109 33.042 99.2589 32.498C99.8369 32.056 100.347 31.342 100.823 30.356H104.699C104.291 31.988 103.475 33.382 102.251 34.47C100.687 35.796 98.7489 36.476 96.4029 36.476C93.7849 36.476 91.7109 35.66 90.1809 34.062C88.5489 32.396 87.7329 30.118 87.7329 27.194C87.7329 24.576 88.4809 22.4 90.0449 20.632C91.5409 18.83 93.6149 17.946 96.2329 17.946ZM96.3349 21.108C95.0429 21.108 94.0569 21.448 93.3089 22.196C92.5949 22.91 92.1189 23.964 91.8809 25.358H100.925C100.585 22.502 99.0549 21.108 96.3349 21.108ZM113.552 12.744V18.422H117.462V21.618H113.552V31.546C113.552 31.954 113.62 32.26 113.824 32.498C114.028 32.702 114.3 32.804 114.708 32.804H117.02V36H114.062C112.532 36 111.41 35.592 110.696 34.776C110.016 34.028 109.676 32.974 109.676 31.546V21.618H106.514V18.422H109.676V14.342L113.552 12.744ZM128.352 17.946C130.936 17.946 132.874 18.592 134.098 19.884C135.186 21.006 135.73 22.638 135.73 24.78V36H132.126V33.688C131.446 34.572 130.596 35.218 129.61 35.694C128.488 36.204 127.162 36.476 125.632 36.476C123.796 36.476 122.368 36 121.314 35.082C120.226 34.13 119.682 32.94 119.682 31.478C119.682 29.506 120.43 27.976 121.994 26.922C123.422 25.902 125.428 25.358 128.012 25.29L131.854 25.188V24.508C131.854 22.196 130.596 21.074 128.08 21.074C126.992 21.074 126.142 21.244 125.496 21.652C124.748 22.094 124.238 22.774 124.034 23.692L120.192 23.386C120.566 21.448 121.518 20.02 123.048 19.136C124.34 18.32 126.108 17.946 128.352 17.946ZM131.854 27.976L128.284 28.078C125.19 28.146 123.66 29.234 123.66 31.342C123.66 31.954 123.898 32.464 124.442 32.872C124.986 33.28 125.666 33.518 126.516 33.518C128.012 33.518 129.27 33.076 130.29 32.226C131.31 31.342 131.854 30.22 131.854 28.86V27.976Z" fill="white"/>
<defs>
<clipPath id="clip0_1124_252">
<rect width="48" height="48" fill="white"/>
</clipPath>
</defs>
</svg>
