<svg width="80" height="80" viewBox="0 0 80 80" fill="none" xmlns="http://www.w3.org/2000/svg">
<g clip-path="url(#clip0_705_59)">
<path d="M39.9999 20C37.2499 20 34.4199 20.0733 31.6666 20.1867L28.4066 20.3433L25.2766 20.5267L22.3366 20.7267L19.6433 20.9367C18.2277 21.0371 16.8934 21.6355 15.8769 22.6258C14.8604 23.616 14.2273 24.9342 14.0899 26.3467C13.6999 30.3767 13.3333 35.3933 13.3333 40C13.3333 44.6067 13.6999 49.6233 14.0899 53.6533C14.3733 56.56 16.6799 58.82 19.6433 59.0633L22.3366 59.27L25.2766 59.47L28.4066 59.6567L31.6666 59.8133C34.4199 59.9267 37.2499 60 39.9999 60C42.7499 60 45.5799 59.9267 48.3332 59.8133L51.5933 59.6567L54.7232 59.4733L57.6632 59.2733L60.3566 59.0633C61.7721 58.9629 63.1064 58.3645 64.1229 57.3742C65.1394 56.384 65.7725 55.0658 65.9099 53.6533C66.2999 49.6233 66.6666 44.6067 66.6666 40C66.6666 35.3933 66.2999 30.3767 65.9099 26.3467C65.7725 24.9342 65.1394 23.616 64.1229 22.6258C63.1064 21.6355 61.7721 21.0371 60.3566 20.9367L57.6632 20.73L54.7232 20.53L51.5933 20.3433L48.3332 20.1867C45.557 20.0672 42.7787 20.005 39.9999 20ZM33.3333 31.9167C33.333 31.5909 33.4124 31.27 33.5645 30.9818C33.7165 30.6937 33.9367 30.4471 34.2058 30.2634C34.4748 30.0798 34.7847 29.9646 35.1084 29.928C35.4322 29.8914 35.7599 29.9344 36.0633 30.0533L36.3333 30.1867L50.3333 38.2667C50.612 38.4275 50.8479 38.6533 51.0208 38.9248C51.1936 39.1963 51.2984 39.5055 51.3262 39.8262C51.354 40.1468 51.304 40.4695 51.1805 40.7667C51.057 41.0639 50.8635 41.3269 50.6166 41.5333L50.3333 41.7333L36.3333 49.8167C36.0511 49.98 35.7333 50.072 35.4076 50.0844C35.0818 50.0969 34.7579 50.0296 34.4641 49.8883C34.1703 49.747 33.9155 49.536 33.7219 49.2737C33.5283 49.0114 33.4017 48.7057 33.3533 48.3833L33.3333 48.0833V31.9167Z" fill="url(#paint0_linear_705_59)"/>
<path d="M40.0001 13.334C42.8501 13.334 45.7734 13.4073 48.6067 13.5273L51.9534 13.6873L55.1567 13.8773L58.1567 14.0807L60.8967 14.294C63.8702 14.5216 66.6682 15.7905 68.7985 17.8774C70.9288 19.9644 72.2548 22.7358 72.5434 25.704L72.6767 27.1206L72.9267 30.154C73.1601 33.2973 73.3334 36.724 73.3334 40.0007C73.3334 43.2773 73.1601 46.704 72.9267 49.8473L72.6767 52.8807C72.6334 53.3673 72.5901 53.8373 72.5434 54.2973C72.2547 57.266 70.9282 60.0378 68.7972 62.1249C66.6663 64.2119 63.8675 65.4805 60.8934 65.7073L58.1601 65.9173L55.1601 66.124L51.9534 66.314L48.6067 66.474C45.7395 66.5986 42.87 66.663 40.0001 66.6673C37.1302 66.663 34.2606 66.5986 31.3934 66.474L28.0467 66.314L24.8434 66.124L21.8434 65.9173L19.1034 65.7073C16.1299 65.4797 13.3319 64.2108 11.2017 62.1239C9.07139 60.0369 7.74533 57.2655 7.45675 54.2973L7.32341 52.8807L7.07341 49.8473C6.81854 46.5711 6.68289 43.2867 6.66675 40.0007C6.66675 36.724 6.84008 33.2973 7.07341 30.154L7.32341 27.1206C7.36675 26.634 7.41008 26.164 7.45675 25.704C7.74522 22.7363 9.0708 19.9654 11.2004 17.8785C13.33 15.7916 16.1272 14.5223 19.1001 14.294L21.8367 14.0807L24.8367 13.8773L28.0434 13.6873L31.3901 13.5273C34.2584 13.4028 37.129 13.3383 40.0001 13.334ZM40.0001 20.0007C37.2501 20.0007 34.4201 20.074 31.6667 20.1873L28.4067 20.344L25.2767 20.5273L22.3367 20.7273L19.6434 20.9373C18.2279 21.0378 16.8936 21.6361 15.8771 22.6264C14.8606 23.6167 14.2275 24.9349 14.0901 26.3473C13.7001 30.3773 13.3334 35.394 13.3334 40.0007C13.3334 44.6073 13.7001 49.624 14.0901 53.654C14.3734 56.5607 16.6801 58.8206 19.6434 59.064L22.3367 59.2707L25.2767 59.4706L28.4067 59.6573L31.6667 59.814C34.4201 59.9273 37.2501 60.0006 40.0001 60.0006C42.7501 60.0006 45.5801 59.9273 48.3334 59.814L51.5934 59.6573L54.7234 59.474L57.6634 59.274L60.3567 59.064C61.7723 58.9635 63.1066 58.3652 64.1231 57.3749C65.1396 56.3846 65.7727 55.0664 65.9101 53.654C66.3001 49.624 66.6667 44.6073 66.6667 40.0007C66.6667 35.394 66.3001 30.3773 65.9101 26.3473C65.7727 24.9349 65.1396 23.6167 64.1231 22.6264C63.1066 21.6361 61.7723 21.0378 60.3567 20.9373L57.6634 20.7307L54.7234 20.5307L51.5934 20.344L48.3334 20.1873C45.5572 20.0679 42.7788 20.0056 40.0001 20.0007ZM33.3334 31.9173C33.3332 31.5915 33.4126 31.2706 33.5646 30.9825C33.7167 30.6944 33.9368 30.4478 34.2059 30.2641C34.475 30.0804 34.7849 29.9653 35.1086 29.9287C35.4323 29.8921 35.7601 29.9351 36.0634 30.054L36.3334 30.1873L50.3334 38.2673C50.6122 38.4282 50.848 38.6539 51.0209 38.9254C51.1938 39.1969 51.2986 39.5062 51.3264 39.8268C51.3542 40.1475 51.3042 40.4701 51.1807 40.7673C51.0571 41.0645 50.8637 41.3275 50.6167 41.534L50.3334 41.734L36.3334 49.8173C36.0513 49.9807 35.7335 50.0726 35.4077 50.0851C35.082 50.0976 34.7581 50.0302 34.4643 49.8889C34.1705 49.7476 33.9157 49.5366 33.7221 49.2743C33.5285 49.012 33.4019 48.7064 33.3534 48.384L33.3334 48.084V31.9173Z" fill="white"/>
</g>
<defs>
<linearGradient id="paint0_linear_705_59" x1="63" y1="69" x2="16" y2="18" gradientUnits="userSpaceOnUse">
<stop stop-color="#8C2CF6" stop-opacity="0.4"/>
<stop offset="1" stop-color="#8C2CF6" stop-opacity="0"/>
</linearGradient>
<clipPath id="clip0_705_59">
<rect width="80" height="80" fill="white"/>
</clipPath>
</defs>
</svg>
