<svg width="193" height="48" viewBox="0 0 193 48" fill="none" xmlns="http://www.w3.org/2000/svg">
<path d="M42.0198 2H5.98016C3.782 2 2 3.782 2 5.98016V42.0197C2 44.218 3.782 46 5.98016 46H42.0197C44.218 46 46 44.218 46 42.0197V5.98016C46 3.782 44.218 2 42.0198 2ZM15.6155 39.9925C15.6155 40.6322 15.0969 41.1508 14.4572 41.1508H9.52665C8.88692 41.1508 8.36837 40.6322 8.36837 39.9925V19.3239C8.36837 18.6842 8.88692 18.1656 9.52665 18.1656H14.4572C15.0969 18.1656 15.6155 18.6842 15.6155 19.3239V39.9925ZM11.9919 16.2173C9.40502 16.2173 7.30787 14.1202 7.30787 11.5333C7.30787 8.94636 9.40502 6.84921 11.9919 6.84921C14.5788 6.84921 16.676 8.94636 16.676 11.5333C16.676 14.1202 14.5789 16.2173 11.9919 16.2173ZM41.3823 40.0858C41.3823 40.6739 40.9054 41.1508 40.3173 41.1508H35.0265C34.4384 41.1508 33.9615 40.6739 33.9615 40.0858V30.3911C33.9615 28.9448 34.3857 24.0536 30.182 24.0536C26.9213 24.0536 26.2599 27.4015 26.1271 28.9039V40.0858C26.1271 40.6739 25.6503 41.1508 25.0621 41.1508H19.945C19.3568 41.1508 18.88 40.6739 18.88 40.0858V19.2306C18.88 18.6425 19.3568 18.1656 19.945 18.1656H25.0621C25.6502 18.1656 26.1271 18.6425 26.1271 19.2306V21.0338C27.3362 19.2193 29.133 17.8188 32.9588 17.8188C41.4308 17.8188 41.3823 25.7337 41.3823 30.0826V40.0858Z" fill="white"/>
<path d="M58.38 11.724H62.324V32.6H75.448V36H58.38V11.724ZM80.7791 11.248C81.5271 11.248 82.1731 11.486 82.6831 11.962C83.1591 12.438 83.4311 13.05 83.4311 13.798C83.4311 14.546 83.1591 15.192 82.6491 15.668C82.1391 16.144 81.5271 16.382 80.7791 16.382C80.0311 16.382 79.4191 16.144 78.9091 15.668C78.3991 15.158 78.1611 14.546 78.1611 13.798C78.1611 13.05 78.3991 12.438 78.9091 11.962C79.4191 11.486 80.0311 11.248 80.7791 11.248ZM78.8411 18.422H82.7171V36H78.8411V18.422ZM96.6024 17.946C100.988 17.946 103.198 20.326 103.198 25.154V36H99.3224V25.494C99.3224 22.604 97.9964 21.176 95.3444 21.176C94.3924 21.176 93.5424 21.516 92.8284 22.196C92.0124 22.944 91.5364 24.032 91.4004 25.426V36H87.5244V18.422H91.4004V20.462C92.0804 19.646 92.8624 19 93.7124 18.592C94.5964 18.15 95.5484 17.946 96.6024 17.946ZM107.28 11.248H111.156V25.392L118.364 18.422H123.362L115.576 25.698L124.042 36H119.078L112.924 28.18L111.156 29.846V36H107.28V11.248ZM133.553 17.946C136.443 17.946 138.653 18.898 140.183 20.87C141.577 22.638 142.291 25.12 142.291 28.282H129.133C129.269 29.914 129.711 31.172 130.459 32.022C131.207 32.872 132.295 33.314 133.689 33.314C134.879 33.314 135.831 33.042 136.579 32.498C137.157 32.056 137.667 31.342 138.143 30.356H142.019C141.611 31.988 140.795 33.382 139.571 34.47C138.007 35.796 136.069 36.476 133.723 36.476C131.105 36.476 129.031 35.66 127.501 34.062C125.869 32.396 125.053 30.118 125.053 27.194C125.053 24.576 125.801 22.4 127.365 20.632C128.861 18.83 130.935 17.946 133.553 17.946ZM133.655 21.108C132.363 21.108 131.377 21.448 130.629 22.196C129.915 22.91 129.439 23.964 129.201 25.358H138.245C137.905 22.502 136.375 21.108 133.655 21.108ZM157.876 11.248H161.752V36H158.148V34.13C156.924 35.694 155.156 36.476 152.844 36.476C150.226 36.476 148.186 35.558 146.724 33.722C145.364 32.022 144.684 29.812 144.684 27.126C144.684 24.542 145.33 22.4 146.69 20.7C148.118 18.864 150.124 17.946 152.64 17.946C154.68 17.946 156.414 18.898 157.876 20.836V11.248ZM153.558 21.074C151.79 21.074 150.532 21.652 149.716 22.808C149.002 23.794 148.662 25.222 148.662 27.126C148.662 29.03 148.968 30.492 149.648 31.512C150.43 32.736 151.688 33.348 153.422 33.348C154.918 33.348 156.108 32.736 156.924 31.546C157.638 30.458 158.012 29.03 158.012 27.33V27.058C158.012 25.188 157.536 23.692 156.652 22.604C155.836 21.584 154.782 21.074 153.558 21.074ZM166.157 11.724H170.135V36H166.157V11.724ZM183.628 17.946C188.014 17.946 190.224 20.326 190.224 25.154V36H186.348V25.494C186.348 22.604 185.022 21.176 182.37 21.176C181.418 21.176 180.568 21.516 179.854 22.196C179.038 22.944 178.562 24.032 178.426 25.426V36H174.55V18.422H178.426V20.462C179.106 19.646 179.888 19 180.738 18.592C181.622 18.15 182.574 17.946 183.628 17.946Z" fill="white"/>
</svg>
