<svg width="266" height="48" viewBox="0 0 266 48" fill="none" xmlns="http://www.w3.org/2000/svg">
<path d="M44.8096 19.7577C44.8136 19.7897 44.8296 19.7977 44.9496 19.7957H46.3996C46.639 19.7965 46.8756 19.7432 47.0917 19.64C47.3077 19.5368 47.4978 19.3861 47.6477 19.1994C47.7975 19.0126 47.9034 18.7945 47.9574 18.5612C48.0114 18.3278 48.0121 18.0854 47.9595 17.8517C47.8746 17.4609 47.6454 17.1166 47.3176 16.8875C46.9899 16.6583 46.5877 16.5613 46.1916 16.6157C45.8068 16.666 45.4538 16.8552 45.1989 17.1477C44.9439 17.4402 44.8048 17.8158 44.8075 18.2037C44.8075 18.4057 44.8036 19.5357 44.8096 19.7577ZM21.7915 29.3737C21.3855 29.3757 19.0855 29.3817 18.4215 29.3797C17.9009 29.376 17.384 29.291 16.8895 29.1277C16.8779 29.1243 16.8653 29.1252 16.8542 29.1304C16.8432 29.1355 16.8344 29.1446 16.8295 29.1557L15.3995 32.2537C15.3944 32.265 15.3935 32.2778 15.3972 32.2896C15.4009 32.3014 15.4089 32.3114 15.4195 32.3177C15.6415 32.4377 16.0915 32.5657 16.4095 32.5657C17.7295 32.5857 19.0495 32.5697 20.3715 32.5657C20.3942 32.5657 20.4095 32.5557 20.4175 32.5357L21.8415 29.4457C21.8454 29.4379 21.8472 29.4291 21.8466 29.4204C21.846 29.4116 21.8432 29.4032 21.8383 29.3959C21.8334 29.3886 21.8267 29.3827 21.8189 29.3788C21.811 29.3749 21.8023 29.3732 21.7935 29.3737H21.7915ZM0.953548 19.8197C0.811548 19.8197 0.801548 19.8237 0.801548 19.8397L0.781548 19.9997C0.727548 20.7937 0.705548 20.9897 0.313548 26.1197C0.289548 26.5997 0.245548 26.8977 0.0435482 27.3337C-0.00845182 27.4477 -0.0224518 27.4177 0.0495482 27.5577C0.141548 27.7417 1.41155 30.6037 1.62355 31.0377C1.63955 31.0677 1.64555 31.0777 1.65755 31.0777C1.67355 31.0777 1.72355 31.0257 1.75155 30.9897C2.04355 30.6137 2.29088 30.2097 2.49355 29.7777C3.10555 28.5077 3.37355 27.1277 3.46555 26.3657C3.49355 26.1457 3.50755 25.9257 3.52555 25.7057L3.93355 20.4737L3.97755 19.8877C3.98355 19.8297 3.97755 19.8217 3.91755 19.8197H0.953548ZM15.3595 27.3337C15.1797 26.9544 15.0874 26.5395 15.0895 26.1197C15.0815 25.9517 15.0275 25.3397 14.6195 19.9997C14.6186 19.9445 14.6119 19.8896 14.5995 19.8357C14.5915 19.8137 14.4955 19.8197 14.4475 19.8197H11.4875C11.4275 19.8217 11.4195 19.8297 11.4275 19.8877L11.4695 20.4737C11.6215 22.4377 11.7769 24.4017 11.9355 26.3657C12.0355 27.1657 12.3075 28.5357 12.9095 29.7777C13.1155 30.2077 13.3555 30.6157 13.6495 30.9897C13.6795 31.0257 13.7235 31.0917 13.7455 31.0877C13.7855 31.0817 15.2295 27.8037 15.3535 27.5577C15.4255 27.4177 15.4135 27.4477 15.3595 27.3337ZM23.0815 25.5077H21.3375C21.2952 25.5081 21.2534 25.4979 21.2161 25.4779C21.1788 25.4579 21.1471 25.4288 21.124 25.3933C21.1008 25.3579 21.087 25.3171 21.0838 25.2749C21.0806 25.2327 21.0881 25.1903 21.1055 25.1517L23.4615 19.9017C23.4649 19.8941 23.4662 19.8858 23.4655 19.8775C23.4648 19.8692 23.4621 19.8612 23.4575 19.8543C23.4529 19.8473 23.4467 19.8416 23.4394 19.8377C23.4321 19.8338 23.4239 19.8317 23.4155 19.8317L20.7795 19.8257C20.7298 19.8259 20.6808 19.8136 20.637 19.7898C20.5933 19.7661 20.5562 19.7317 20.5293 19.6898C20.5024 19.6479 20.4865 19.6 20.483 19.5503C20.4796 19.5007 20.4887 19.4509 20.5095 19.4057L22.2615 15.4977C22.2649 15.4901 22.2662 15.4818 22.2655 15.4735C22.2648 15.4652 22.2621 15.4572 22.2575 15.4503C22.2529 15.4433 22.2467 15.4376 22.2394 15.4337C22.2321 15.4298 22.2239 15.4277 22.2155 15.4277H19.0955C19.0729 15.4277 19.0569 15.4377 19.0475 15.4577L17.1955 19.5937C17.0255 19.9317 16.5675 20.8617 16.3975 21.4697C16.3597 21.5933 16.3461 21.723 16.3575 21.8517C16.3645 22.0063 16.4103 22.1565 16.4907 22.2887C16.5711 22.4208 16.6835 22.5306 16.8175 22.6077C17.1006 22.7598 17.4162 22.8415 17.7375 22.8457H18.9175C18.9995 22.8457 17.5415 25.8097 17.2495 26.7897C17.2143 26.9008 17.1987 27.0173 17.2035 27.1337C17.2056 27.2947 17.249 27.4524 17.3296 27.5918C17.4101 27.7312 17.5251 27.8475 17.6635 27.9297C17.9635 28.1137 18.3475 28.1697 18.6135 28.1697L21.9335 28.1677C21.9562 28.1677 21.9715 28.1577 21.9795 28.1377L23.1295 25.5777C23.133 25.57 23.1343 25.5614 23.1335 25.553C23.1327 25.5445 23.1298 25.5364 23.125 25.5294C23.1202 25.5224 23.1137 25.5167 23.1061 25.5129C23.0985 25.5092 23.09 25.5074 23.0815 25.5077ZM9.22155 15.6337H6.19955C6.19064 15.6332 6.18172 15.6345 6.17335 15.6376C6.16497 15.6407 6.15734 15.6455 6.15094 15.6517C6.14453 15.6579 6.1395 15.6654 6.13616 15.6737C6.13282 15.6819 6.13125 15.6908 6.13155 15.6997C6.13155 17.7957 6.11155 21.2897 6.11155 29.3577C6.11155 29.9337 5.57355 29.8817 5.55155 29.8817H4.07155C3.99155 29.8837 3.98355 29.8897 3.99155 29.9757C3.99355 30.0497 4.92155 32.1037 5.10155 32.5017C5.12155 32.5417 5.16155 32.5677 5.20355 32.5677C5.51755 32.5737 6.73755 32.5857 7.07955 32.5397C7.38555 32.4997 7.67955 32.4197 7.95555 32.2757C8.55555 31.9637 8.93555 31.4377 9.14555 30.7457C9.24955 30.4017 9.29555 30.0397 9.29555 29.6797C9.29955 25.0197 9.29488 20.3591 9.28155 15.6977C9.28214 15.6892 9.28089 15.6806 9.27788 15.6726C9.27488 15.6645 9.27018 15.6572 9.26412 15.6512C9.25805 15.6451 9.25076 15.6404 9.24272 15.6374C9.23469 15.6344 9.22611 15.6331 9.21755 15.6337H9.22155ZM32.7896 29.4257C32.7869 29.3991 32.7709 29.3844 32.7416 29.3817H29.8115C29.7155 29.3797 29.7135 29.3777 29.7115 29.2837V19.9637C29.7115 19.8197 29.7015 19.8237 29.8515 19.8237H31.5775C31.7375 19.8237 31.7275 19.8317 31.7275 19.6757V16.7857C31.7275 16.6217 31.7395 16.6337 31.5675 16.6337H24.5675C24.4395 16.6337 24.4175 16.6217 24.4175 16.7797V19.6697C24.4175 19.8357 24.4055 19.8237 24.5775 19.8237H26.2855C26.4355 19.8237 26.4255 19.8157 26.4255 19.9637V29.2117C26.4255 29.4017 26.4415 29.3797 26.2555 29.3797C25.5155 29.3797 24.0355 29.3757 23.6475 29.3797C23.5515 29.3817 23.5275 29.4397 23.5275 29.4397L22.1335 32.4777C22.1335 32.4777 22.1055 32.5277 22.1175 32.5497C22.1295 32.5717 22.1435 32.5657 22.2335 32.5657C25.7295 32.5697 29.2249 32.5711 32.7196 32.5697C32.7796 32.5677 32.7876 32.5577 32.7896 32.5037V29.4257ZM41.1436 22.5657C41.1436 22.5937 41.1302 22.6097 41.1035 22.6137C40.4115 22.6257 39.7195 22.6217 39.0295 22.6217C39.0015 22.6177 38.9869 22.6017 38.9855 22.5737C38.9775 21.7057 38.9709 20.8371 38.9655 19.9677C38.9655 19.8237 38.9535 19.8257 39.1055 19.8277L40.5715 19.8217C40.6535 19.8217 40.7336 19.8257 40.8116 19.8517C40.9976 19.9017 41.1315 20.0657 41.1415 20.2597C41.1535 21.1217 41.1456 22.5657 41.1436 22.5657ZM46.4836 23.0537C45.9382 22.7685 45.333 22.6163 44.7175 22.6097H44.3576C44.2776 22.6077 44.2775 22.6037 44.2735 22.5297V20.4197C44.2749 20.1557 44.2582 19.8931 44.2235 19.6317C44.1766 19.2648 44.0734 18.9072 43.9175 18.5717C43.6343 17.9626 43.1585 17.4636 42.5635 17.1517C41.9473 16.8235 41.2617 16.6466 40.5635 16.6357C40.2575 16.6297 39.4296 16.6357 39.1236 16.6357C38.9836 16.6357 38.9875 16.6437 38.9875 16.5057V15.5197C38.9875 15.4577 38.9675 15.4377 38.8955 15.4417H35.8596C35.8596 15.4417 35.8275 15.4417 35.8135 15.4557C35.8029 15.4664 35.7976 15.4817 35.7976 15.5017V16.5937C35.7816 16.6657 35.6835 16.6237 35.6335 16.6377H33.7336C33.6896 16.6417 33.6775 16.6537 33.6735 16.7017V19.6637C33.6735 19.8437 33.6656 19.8277 33.8376 19.8277H35.6636C35.8276 19.8277 35.8075 20.0837 35.8075 20.0837V22.3797C35.8075 22.3797 35.8135 22.6137 35.6875 22.6137H32.7235C32.5875 22.6137 32.6035 22.7777 32.6035 22.7777V25.6677C32.6035 25.6677 32.5835 25.8037 32.7315 25.8037H35.6455C35.8095 25.8037 35.7976 25.7917 35.7976 25.9617V32.4117C35.7976 32.5877 35.7836 32.5737 35.9616 32.5737H38.8215C39.0015 32.5737 38.9855 32.5877 38.9855 32.4137V25.8737C38.9855 25.8157 38.9975 25.8037 39.0515 25.8037L43.6976 25.7977C43.8906 25.7993 44.0813 25.8409 44.2575 25.9197C44.4164 25.9899 44.5522 26.1035 44.6491 26.2476C44.7461 26.3916 44.8003 26.5602 44.8055 26.7337C44.8215 27.5237 44.8116 28.3137 44.8116 29.1037C44.8116 29.6217 44.5976 29.8377 44.1516 29.8377H41.7155C41.6695 29.8417 41.6575 29.8537 41.6595 29.9037C42.0275 30.7771 42.4075 31.6457 42.7995 32.5097C42.8075 32.5244 42.819 32.5368 42.8329 32.5459C42.8469 32.555 42.8629 32.5604 42.8796 32.5617C43.2196 32.5717 43.5596 32.5657 43.8996 32.5677C44.1996 32.5637 44.9335 32.5757 45.2315 32.5477C45.508 32.5262 45.7815 32.4759 46.0476 32.3977C47.2276 32.0377 47.9975 31.0017 47.9995 29.7717V25.8097C48.0009 25.5551 47.9782 25.3017 47.9315 25.0497C47.9315 25.2057 47.8736 23.7677 46.4836 23.0537Z" fill="white"/>
<path d="M56.714 11.724H61.576L67.288 20.292L73 11.724H77.862L69.668 23.454L78.406 36H73.544L67.288 26.616L61.032 36H56.17L64.84 23.454L56.714 11.724ZM83.2361 11.248C83.9841 11.248 84.6301 11.486 85.1401 11.962C85.6161 12.438 85.8881 13.05 85.8881 13.798C85.8881 14.546 85.6161 15.192 85.1061 15.668C84.5961 16.144 83.9841 16.382 83.2361 16.382C82.4881 16.382 81.8761 16.144 81.3661 15.668C80.8561 15.158 80.6181 14.546 80.6181 13.798C80.6181 13.05 80.8561 12.438 81.3661 11.962C81.8761 11.486 82.4881 11.248 83.2361 11.248ZM81.2981 18.422H85.1741V36H81.2981V18.422ZM97.9714 17.946C100.555 17.946 102.493 18.592 103.717 19.884C104.805 21.006 105.349 22.638 105.349 24.78V36H101.745V33.688C101.065 34.572 100.215 35.218 99.2294 35.694C98.1074 36.204 96.7814 36.476 95.2514 36.476C93.4154 36.476 91.9874 36 90.9334 35.082C89.8454 34.13 89.3014 32.94 89.3014 31.478C89.3014 29.506 90.0494 27.976 91.6134 26.922C93.0414 25.902 95.0474 25.358 97.6314 25.29L101.473 25.188V24.508C101.473 22.196 100.215 21.074 97.6994 21.074C96.6114 21.074 95.7614 21.244 95.1154 21.652C94.3674 22.094 93.8574 22.774 93.6534 23.692L89.8114 23.386C90.1854 21.448 91.1374 20.02 92.6674 19.136C93.9594 18.32 95.7274 17.946 97.9714 17.946ZM101.473 27.976L97.9034 28.078C94.8094 28.146 93.2794 29.234 93.2794 31.342C93.2794 31.954 93.5174 32.464 94.0614 32.872C94.6054 33.28 95.2854 33.518 96.1354 33.518C97.6314 33.518 98.8894 33.076 99.9094 32.226C100.929 31.342 101.473 30.22 101.473 28.86V27.976ZM117.598 17.946C120.25 17.946 122.392 18.796 124.024 20.564C125.622 22.298 126.438 24.508 126.438 27.228C126.438 29.914 125.622 32.124 124.058 33.824C122.426 35.592 120.25 36.476 117.598 36.476C114.912 36.476 112.77 35.592 111.138 33.824C109.54 32.124 108.758 29.914 108.758 27.228C108.758 24.508 109.54 22.298 111.172 20.564C112.77 18.796 114.912 17.946 117.598 17.946ZM117.598 21.108C115.966 21.108 114.742 21.72 113.858 23.012C113.11 24.1 112.736 25.528 112.736 27.228C112.736 28.928 113.11 30.322 113.858 31.41C114.742 32.668 115.966 33.314 117.598 33.314C119.196 33.314 120.454 32.668 121.338 31.41C122.086 30.288 122.494 28.894 122.494 27.228C122.494 25.528 122.086 24.1 121.338 23.012C120.454 21.72 119.196 21.108 117.598 21.108ZM129.825 11.248H133.701V20.768C134.347 19.782 135.163 19.068 136.115 18.592C136.965 18.15 137.951 17.946 139.073 17.946C141.215 17.946 142.813 18.558 143.867 19.816C144.853 21.006 145.363 22.774 145.363 25.12V36H141.487V25.8C141.487 24.304 141.181 23.148 140.603 22.366C139.923 21.516 138.937 21.108 137.611 21.108C136.387 21.108 135.435 21.584 134.755 22.536C134.041 23.488 133.701 24.678 133.701 26.174V36H129.825V11.248ZM157.608 17.946C160.26 17.946 162.402 18.796 164.034 20.564C165.632 22.298 166.448 24.508 166.448 27.228C166.448 29.914 165.632 32.124 164.068 33.824C162.436 35.592 160.26 36.476 157.608 36.476C154.922 36.476 152.78 35.592 151.148 33.824C149.55 32.124 148.768 29.914 148.768 27.228C148.768 24.508 149.55 22.298 151.182 20.564C152.78 18.796 154.922 17.946 157.608 17.946ZM157.608 21.108C155.976 21.108 154.752 21.72 153.868 23.012C153.12 24.1 152.746 25.528 152.746 27.228C152.746 28.928 153.12 30.322 153.868 31.41C154.752 32.668 155.976 33.314 157.608 33.314C159.206 33.314 160.464 32.668 161.348 31.41C162.096 30.288 162.504 28.894 162.504 27.228C162.504 25.528 162.096 24.1 161.348 23.012C160.464 21.72 159.206 21.108 157.608 21.108ZM178.913 17.946C183.299 17.946 185.509 20.326 185.509 25.154V36H181.633V25.494C181.633 22.604 180.307 21.176 177.655 21.176C176.703 21.176 175.853 21.516 175.139 22.196C174.323 22.944 173.847 24.032 173.711 25.426V36H169.835V18.422H173.711V20.462C174.391 19.646 175.173 19 176.023 18.592C176.907 18.15 177.859 17.946 178.913 17.946ZM196.901 17.946C199.077 17.946 200.811 18.796 202.103 20.564V18.422H205.979V34.878C205.979 40.42 203.225 43.208 197.717 43.208C195.235 43.208 193.365 42.732 192.073 41.848C190.781 40.896 189.965 39.468 189.625 37.496H193.501C193.705 38.482 194.113 39.162 194.759 39.57C195.371 39.944 196.357 40.148 197.717 40.148C200.641 40.148 202.103 38.584 202.103 35.456V32.872C200.811 34.674 199.077 35.592 196.901 35.592C194.521 35.592 192.583 34.776 191.121 33.212C189.625 31.614 188.911 29.472 188.911 26.82C188.911 24.168 189.625 22.026 191.121 20.394C192.583 18.762 194.521 17.946 196.901 17.946ZM197.513 21.074C196.051 21.074 194.929 21.584 194.113 22.604C193.297 23.59 192.889 24.984 192.889 26.82C192.889 28.486 193.195 29.778 193.841 30.73C194.589 31.852 195.779 32.43 197.479 32.43C198.975 32.43 200.131 31.92 200.947 30.968C201.729 29.948 202.137 28.588 202.137 26.82C202.137 25.018 201.729 23.624 200.947 22.604C200.131 21.584 198.975 21.074 197.513 21.074ZM216.674 17.946C221.298 17.946 223.848 19.782 224.256 23.522H220.482C220.21 22.638 219.802 21.992 219.258 21.652C218.68 21.278 217.796 21.108 216.606 21.108C215.586 21.108 214.804 21.244 214.294 21.55C213.682 21.856 213.41 22.332 213.41 23.012C213.41 23.556 213.852 24.066 214.804 24.474C215.382 24.712 216.538 25.052 218.306 25.494C220.278 25.97 221.774 26.514 222.726 27.16C224.12 28.044 224.834 29.302 224.834 30.866C224.834 34.606 222.182 36.476 216.912 36.476C212.016 36.476 209.398 34.402 209.024 30.288H212.798C213.002 31.41 213.41 32.192 213.988 32.668C214.566 33.076 215.484 33.314 216.776 33.314C219.496 33.314 220.856 32.566 220.856 31.138C220.856 30.322 220.346 29.676 219.326 29.2C218.782 28.928 217.626 28.622 215.858 28.214C213.784 27.738 212.322 27.228 211.472 26.684C210.112 25.834 209.432 24.644 209.432 23.114C209.432 21.482 210.078 20.224 211.438 19.34C212.764 18.388 214.498 17.946 216.674 17.946ZM227.907 11.248H231.783V20.768C232.429 19.782 233.245 19.068 234.197 18.592C235.047 18.15 236.033 17.946 237.155 17.946C239.297 17.946 240.895 18.558 241.949 19.816C242.935 21.006 243.445 22.774 243.445 25.12V36H239.569V25.8C239.569 24.304 239.263 23.148 238.685 22.366C238.005 21.516 237.019 21.108 235.693 21.108C234.469 21.108 233.517 21.584 232.837 22.536C232.123 23.488 231.783 24.678 231.783 26.174V36H227.907V11.248ZM247.53 18.422H251.406V29.132C251.406 30.56 251.678 31.58 252.29 32.26C252.902 32.906 253.854 33.246 255.214 33.246C256.064 33.246 256.88 32.872 257.662 32.158C258.444 31.41 259.022 30.424 259.362 29.166V18.422H263.238V36H259.362V33.722C257.866 35.558 256.03 36.476 253.854 36.476C249.638 36.476 247.53 34.096 247.53 29.37V18.422Z" fill="white"/>
</svg>
