<svg width="80" height="80" viewBox="0 0 80 80" fill="none" xmlns="http://www.w3.org/2000/svg">
<path d="M35 6.66927C39.17 6.66927 43.1333 7.56927 46.6966 9.18927C44.9773 10.7143 43.8355 12.7848 43.4633 15.0526C39.1772 13.2339 34.4192 12.8443 29.8943 13.9414C25.3694 15.0386 21.3183 17.5642 18.3412 21.1441C15.3641 24.724 13.6193 29.1676 13.3655 33.8167C13.1117 38.4659 14.3622 43.0731 16.9319 46.9558C19.5016 50.8385 23.2536 53.7901 27.6322 55.3734C32.0107 56.9567 36.7829 57.0874 41.2415 55.7461C45.7002 54.4049 49.6081 51.663 52.3865 47.9267C55.1648 44.1905 56.6656 39.6586 56.6666 35.0026L56.65 34.1059C58.4366 35.7059 60.78 36.6559 63.2866 36.6693C62.9552 42.4542 60.8497 47.9967 57.2566 52.5426L69.43 64.7159C70.0372 65.3446 70.3731 66.1866 70.3655 67.0606C70.3579 67.9346 70.0074 68.7706 69.3894 69.3887C68.7713 70.0067 67.9353 70.3573 67.0613 70.3648C66.1873 70.3724 65.3453 70.0365 64.7166 69.4293L52.5433 57.2559C48.9949 60.0524 44.8292 61.9598 40.3938 62.8189C35.9583 63.6781 31.3817 63.4641 27.0458 62.1948C22.7099 60.9256 18.7403 58.6379 15.4683 55.5226C12.1963 52.4072 9.71673 48.5546 8.23643 44.2861C6.75613 40.0176 6.31803 35.457 6.95869 30.9848C7.59934 26.5126 9.30017 22.2584 11.9193 18.5772C14.5384 14.8959 17.9999 11.8944 22.0149 9.82292C26.0299 7.75147 30.4821 6.67019 35 6.66927ZM63.3333 3.33594C63.9569 3.33594 64.568 3.51086 65.0971 3.84084C65.6263 4.17082 66.0522 4.64261 66.3266 5.2026L66.4866 5.5926L66.92 6.8526C67.3773 8.19322 68.1142 9.42137 69.0819 10.4557C70.0497 11.4901 71.2261 12.3071 72.5333 12.8526L73.15 13.0859L74.41 13.5159C75.0339 13.7288 75.5808 14.1219 75.9813 14.6456C76.3818 15.1693 76.6181 15.7999 76.6602 16.4579C76.7023 17.1158 76.5484 17.7714 76.2178 18.3419C75.8873 18.9123 75.395 19.3719 74.8033 19.6626L74.41 19.8226L73.15 20.2559C71.8093 20.7133 70.5812 21.4502 69.5468 22.4179C68.5124 23.3856 67.6955 24.562 67.15 25.8693L66.9166 26.4859L66.4866 27.7459C66.2734 28.3697 65.88 28.9163 65.3561 29.3165C64.8322 29.7167 64.2015 29.9526 63.5436 29.9943C62.8857 30.0361 62.2302 29.8818 61.6599 29.551C61.0897 29.2202 60.6303 28.7278 60.34 28.1359L60.18 27.7459L59.7466 26.4859C59.2893 25.1453 58.5524 23.9172 57.5846 22.8828C56.6169 21.8484 55.4405 21.0314 54.1333 20.4859L53.5166 20.2526L52.2566 19.8226C51.6327 19.6097 51.0858 19.2166 50.6853 18.6929C50.2847 18.1693 50.0485 17.5386 50.0064 16.8807C49.9643 16.2227 50.1182 15.5671 50.4488 14.9967C50.7793 14.4262 51.2715 13.9666 51.8633 13.6759L52.2566 13.5159L53.5166 13.0826C54.8572 12.6253 56.0854 11.8883 57.1198 10.9206C58.1541 9.95291 58.9711 8.77649 59.5166 7.46927L59.75 6.8526L60.18 5.5926C60.4045 4.93456 60.8293 4.36322 61.3947 3.95857C61.9602 3.55392 62.638 3.33621 63.3333 3.33594Z" fill="white"/>
<path d="M34.9999 16.6699C38.0899 16.6699 41.0032 17.4366 43.5599 18.7866C43.9248 20.4713 44.7191 22.033 45.8656 23.3202C47.0121 24.6075 48.4718 25.5765 50.1032 26.1333L51.2632 26.5299C53.1127 30.0786 53.7503 34.1349 53.0788 38.0799C52.4073 42.0248 50.4634 45.6417 47.5439 48.3785C44.6244 51.1154 40.8896 52.8218 36.9096 53.2374C32.9295 53.6531 28.9228 52.755 25.5008 50.6804C22.0789 48.6058 19.4297 45.4685 17.9577 41.7474C16.4856 38.0263 16.2714 33.9258 17.3479 30.0716C18.4244 26.2174 20.7323 22.8212 23.9195 20.4014C27.1067 17.9816 30.9981 16.6711 34.9999 16.6699Z" fill="url(#paint0_linear_701_51)"/>
<defs>
<linearGradient id="paint0_linear_701_51" x1="50.818" y1="61.5866" x2="8.49217" y2="27.1406" gradientUnits="userSpaceOnUse">
<stop stop-color="#8C2CF6" stop-opacity="0.4"/>
<stop offset="1" stop-color="#8C2CF6" stop-opacity="0"/>
</linearGradient>
</defs>
</svg>
