<svg width="80" height="80" viewBox="0 0 80 80" fill="none" xmlns="http://www.w3.org/2000/svg">
<path d="M29.9998 13.3327C33.6818 13.3327 36.6665 16.3174 36.6665 19.9993V42.7563C33.6858 40.457 29.8866 39.101 25.5478 38.378L24.4518 44.954C29.0539 45.721 31.9913 47.1753 33.8005 49.1353C35.5665 51.0483 36.6665 53.8893 36.6665 58.3327C36.6665 62.935 32.9355 66.666 28.3332 66.666C23.7308 66.666 19.9998 62.935 19.9998 58.3327V57.1637C21.4334 57.6413 22.921 58.0323 24.4518 58.2873L25.5478 51.7113C23.0715 51.2987 20.5838 50.3807 18.0968 49.199C15.2717 47.857 13.3332 44.996 13.3332 41.666C13.3332 38.8837 14.0252 36.6943 15.1956 35.085C16.3479 33.5007 18.1395 32.2337 20.8083 31.5665L23.3332 30.9353V19.9993C23.3332 16.3174 26.3179 13.3327 29.9998 13.3327ZM39.9998 11.1799C37.5568 8.41188 33.9822 6.66602 29.9998 6.66602C22.636 6.66602 16.6665 12.6355 16.6665 19.9993V25.9134C13.8297 27.0541 11.5046 28.8255 9.80404 31.1638C7.64114 34.1377 6.6665 37.7817 6.6665 41.666C6.6665 46.8833 9.31867 51.455 13.3332 54.14V58.3327C13.3332 66.617 20.0489 73.3327 28.3332 73.3327C33.0453 73.3327 37.2498 71.16 39.9998 67.7617C42.7498 71.16 46.9545 73.3327 51.6665 73.3327C59.9508 73.3327 66.6665 66.617 66.6665 58.3327V54.14C70.6812 51.455 73.3332 46.8833 73.3332 41.666C73.3332 37.7817 72.3585 34.1377 70.1955 31.1638C68.4952 28.8255 66.1702 27.0541 63.3332 25.9134V19.9993C63.3332 12.6355 57.3635 6.66602 49.9998 6.66602C46.0175 6.66602 42.4428 8.41188 39.9998 11.1799ZM59.9998 57.1637V58.3327C59.9998 62.935 56.2688 66.666 51.6665 66.666C47.0642 66.666 43.3332 62.935 43.3332 58.3327C43.3332 53.8893 44.4332 51.0483 46.1992 49.1353C48.0085 47.1753 50.9458 45.721 55.5478 44.954L54.4518 38.378C50.1132 39.101 46.3138 40.457 43.3332 42.7563V19.9993C43.3332 16.3174 46.3178 13.3327 49.9998 13.3327C53.6818 13.3327 56.6665 16.3174 56.6665 19.9993V30.9353L59.1915 31.5665C61.8602 32.2337 63.6518 33.5007 64.8042 35.085C65.9745 36.6943 66.6665 38.8837 66.6665 41.666C66.6665 44.996 64.7278 47.857 61.9028 49.199C59.4158 50.3807 56.9282 51.2987 54.4518 51.7113L55.5478 58.2873C57.0788 58.0323 58.5662 57.6413 59.9998 57.1637Z" fill="white"/>
<path d="M29.9998 13.332C33.6818 13.332 36.6665 16.3168 36.6665 19.9987V42.7557C33.6858 40.4564 29.8866 39.1004 25.5478 38.3774L24.4518 44.9534C29.0539 45.7204 31.9913 47.1747 33.8005 49.1347C35.5665 51.0477 36.6665 53.8887 36.6665 58.332C36.6665 62.9344 32.9355 66.6654 28.3332 66.6654C23.7308 66.6654 19.9998 62.9344 19.9998 58.332V57.163C21.4334 57.6407 22.921 58.0317 24.4518 58.2867L25.5478 51.7107C23.0715 51.298 20.5838 50.38 18.0968 49.1984C15.2717 47.8564 13.3332 44.9954 13.3332 41.6654C13.3332 38.883 14.0252 36.6937 15.1956 35.0844C16.3479 33.5 18.1395 32.233 20.8083 31.5658L23.3332 30.9346V19.9987C23.3332 16.3168 26.3179 13.332 29.9998 13.332ZM59.9998 57.163V58.332C59.9998 62.9344 56.2688 66.6654 51.6665 66.6654C47.0642 66.6654 43.3332 62.9344 43.3332 58.332C43.3332 53.8887 44.4332 51.0477 46.1992 49.1347C48.0085 47.1747 50.9458 45.7204 55.5478 44.9534L54.4518 38.3774C50.1132 39.1004 46.3138 40.4564 43.3332 42.7557V19.9987C43.3332 16.3168 46.3178 13.332 49.9998 13.332C53.6818 13.332 56.6665 16.3168 56.6665 19.9987V30.9346L59.1915 31.5658C61.8602 32.233 63.6518 33.5 64.8042 35.0844C65.9745 36.6937 66.6665 38.883 66.6665 41.6654C66.6665 44.9954 64.7278 47.8564 61.9028 49.1984C59.4158 50.38 56.9282 51.298 54.4518 51.7107L55.5478 58.2867C57.0788 58.0317 58.5662 57.6407 59.9998 57.163Z" fill="url(#paint0_linear_704_56)"/>
<defs>
<linearGradient id="paint0_linear_704_56" x1="68.7499" y1="86.832" x2="-1.62862" y2="23.1918" gradientUnits="userSpaceOnUse">
<stop stop-color="#8C2CF6" stop-opacity="0.4"/>
<stop offset="1" stop-color="#8C2CF6" stop-opacity="0"/>
</linearGradient>
</defs>
</svg>
