<svg width="48" height="48" viewBox="0 0 48 48" fill="none" xmlns="http://www.w3.org/2000/svg">
<path d="M9 10C9 8.34315 10.3431 7 12 7H33C36.3137 7 39 9.68629 39 13V39C39 40.6569 37.6569 42 36 42H12C10.3431 42 9 40.6569 9 39V10Z" fill="url(#paint0_linear_822_105)"/>
<path d="M21.9998 14H25.9998V34H21.9998V14ZM29.9998 22H33.9998V34H29.9998V22ZM13.9998 26H17.9998V34H13.9998V26ZM29.9998 8H9.99976V40H37.9998V16H29.9998V8ZM5.99976 5.9836C5.99976 4.8881 6.89474 4 7.99676 4H31.9998L41.9992 14L41.9998 41.985C41.9998 43.0978 41.11 44 40.013 44H7.98656C6.88928 44 5.99976 43.0894 5.99976 42.0164V5.9836Z" fill="white"/>
<defs>
<linearGradient id="paint0_linear_822_105" x1="36.9375" y1="49.875" x2="-1.786" y2="22.8627" gradientUnits="userSpaceOnUse">
<stop stop-color="#8C2CF6" stop-opacity="0.4"/>
<stop offset="1" stop-color="#8C2CF6" stop-opacity="0"/>
</linearGradient>
</defs>
</svg>
