<svg width="48" height="48" viewBox="0 0 48 48" fill="none" xmlns="http://www.w3.org/2000/svg">
<path d="M10 13C10 11.3431 11.3431 10 13 10H32C35.3137 10 38 12.6863 38 16V37C38 38.6569 36.6569 40 35 40H13C11.3431 40 10 38.6569 10 37V13Z" fill="url(#paint0_linear_822_109)"/>
<path d="M30 10H34C36.2092 10 38 11.7909 38 14V30.3414C40.3304 31.165 42 33.3876 42 36C42 39.3138 39.3138 42 36 42C32.6862 42 30 39.3138 30 36C30 33.3876 31.6696 31.165 34 30.3414V14H30V20L21 12L30 4V10ZM10 17.6586C7.66962 16.8349 6 14.6124 6 12C6 8.6863 8.6863 6 12 6C15.3137 6 18 8.6863 18 12C18 14.6124 16.3304 16.8349 14 17.6586V30.3414C16.3304 31.165 18 33.3876 18 36C18 39.3138 15.3137 42 12 42C8.6863 42 6 39.3138 6 36C6 33.3876 7.66962 31.165 10 30.3414V17.6586ZM12 14C13.1046 14 14 13.1046 14 12C14 10.8954 13.1046 10 12 10C10.8954 10 10 10.8954 10 12C10 13.1046 10.8954 14 12 14ZM12 38C13.1046 38 14 37.1046 14 36C14 34.8954 13.1046 34 12 34C10.8954 34 10 34.8954 10 36C10 37.1046 10.8954 38 12 38ZM36 38C37.1046 38 38 37.1046 38 36C38 34.8954 37.1046 34 36 34C34.8954 34 34 34.8954 34 36C34 37.1046 34.8954 38 36 38Z" fill="white"/>
<defs>
<linearGradient id="paint0_linear_822_109" x1="36.075" y1="46.75" x2="2.00382" y2="20.8704" gradientUnits="userSpaceOnUse">
<stop stop-color="#8C2CF6" stop-opacity="0.4"/>
<stop offset="1" stop-color="#8C2CF6" stop-opacity="0"/>
</linearGradient>
</defs>
</svg>
