<svg width="157" height="48" viewBox="0 0 157 48" fill="none" xmlns="http://www.w3.org/2000/svg">
<path d="M24.9838 1.54336C27.4393 1.50586 29.8768 1.52536 32.3128 1.50586C32.3938 4.55236 33.6298 7.29436 35.5963 9.32536L35.5933 9.32236C37.7098 11.2289 40.4638 12.4649 43.4998 12.6749L43.5418 12.6779V20.2319C40.6738 20.1599 37.9768 19.4984 35.5453 18.3614L35.6683 18.4124C34.4923 17.8469 33.4978 17.2664 32.5528 16.6184L32.6308 16.6694C32.6128 22.1429 32.6488 27.6164 32.5933 33.0704C32.4388 35.8499 31.5148 38.3849 30.0328 40.5014L30.0628 40.4549C27.5848 44.0039 23.5708 46.3334 19.0063 46.4714H18.9853C18.8008 46.4804 18.5833 46.4849 18.3643 46.4849C15.7693 46.4849 13.3438 45.7619 11.2768 44.5064L11.3368 44.5409C7.57477 42.2774 4.97977 38.4044 4.49977 33.8999L4.49377 33.8384C4.45627 32.9009 4.43827 31.9634 4.47577 31.0454C5.21077 23.8769 11.2168 18.3314 18.5173 18.3314C19.3378 18.3314 20.1418 18.4019 20.9233 18.5354L20.8393 18.5234C20.8768 21.2969 20.7643 24.0719 20.7643 26.8454C20.1298 26.6159 19.3978 26.4824 18.6343 26.4824C15.8323 26.4824 13.4488 28.2734 12.5668 30.7739L12.5533 30.8189C12.3538 31.4594 12.2383 32.1959 12.2383 32.9579C12.2383 33.2669 12.2578 33.5729 12.2938 33.8729L12.2908 33.8369C12.7888 36.9059 15.4198 39.2219 18.5923 39.2219C18.6838 39.2219 18.7738 39.2204 18.8638 39.2159H18.8503C21.0448 39.1499 22.9498 37.9694 24.0268 36.2249L24.0418 36.1979C24.4423 35.6399 24.7168 34.9649 24.8083 34.2314L24.8098 34.2104C24.9973 30.8549 24.9223 27.5189 24.9403 24.1634C24.9583 16.6094 24.9223 9.07336 24.9778 1.53886L24.9838 1.54336Z" fill="white"/>
<path d="M56.51 11.724H76.4V15.124H68.444V36H64.466V15.124H56.51V11.724ZM81.576 11.248C82.324 11.248 82.97 11.486 83.48 11.962C83.956 12.438 84.228 13.05 84.228 13.798C84.228 14.546 83.956 15.192 83.446 15.668C82.936 16.144 82.324 16.382 81.576 16.382C80.828 16.382 80.216 16.144 79.706 15.668C79.196 15.158 78.958 14.546 78.958 13.798C78.958 13.05 79.196 12.438 79.706 11.962C80.216 11.486 80.828 11.248 81.576 11.248ZM79.638 18.422H83.514V36H79.638V18.422ZM88.3213 11.248H92.1973V25.392L99.4053 18.422H104.403L96.6173 25.698L105.083 36H100.119L93.9653 28.18L92.1973 29.846V36H88.3213V11.248ZM112.622 12.744V18.422H116.532V21.618H112.622V31.546C112.622 31.954 112.69 32.26 112.894 32.498C113.098 32.702 113.37 32.804 113.778 32.804H116.09V36H113.132C111.602 36 110.48 35.592 109.766 34.776C109.086 34.028 108.746 32.974 108.746 31.546V21.618H105.584V18.422H108.746V14.342L112.622 12.744ZM127.593 17.946C130.245 17.946 132.387 18.796 134.019 20.564C135.617 22.298 136.433 24.508 136.433 27.228C136.433 29.914 135.617 32.124 134.053 33.824C132.421 35.592 130.245 36.476 127.593 36.476C124.907 36.476 122.765 35.592 121.133 33.824C119.535 32.124 118.753 29.914 118.753 27.228C118.753 24.508 119.535 22.298 121.167 20.564C122.765 18.796 124.907 17.946 127.593 17.946ZM127.593 21.108C125.961 21.108 124.737 21.72 123.853 23.012C123.105 24.1 122.731 25.528 122.731 27.228C122.731 28.928 123.105 30.322 123.853 31.41C124.737 32.668 125.961 33.314 127.593 33.314C129.191 33.314 130.449 32.668 131.333 31.41C132.081 30.288 132.489 28.894 132.489 27.228C132.489 25.528 132.081 24.1 131.333 23.012C130.449 21.72 129.191 21.108 127.593 21.108ZM139.819 11.248H143.695V25.392L150.903 18.422H155.901L148.115 25.698L156.581 36H151.617L145.463 28.18L143.695 29.846V36H139.819V11.248Z" fill="white"/>
</svg>
