<svg width="48" height="48" viewBox="0 0 48 48" fill="none" xmlns="http://www.w3.org/2000/svg">
<path d="M7 14C7 12.3431 8.34315 11 10 11H31C34.3137 11 37 13.6863 37 17V37C37 38.6569 35.6569 40 34 40H10C8.34315 40 7 38.6569 7 37V14Z" fill="url(#paint0_linear_822_111)"/>
<path d="M38 6L46 16H40V40H36V16H30L38 6ZM28 36V40H6V36H28ZM28 22V26H6V22H28ZM24 8V12H6V8H24Z" fill="white"/>
<defs>
<linearGradient id="paint0_linear_822_111" x1="34.9375" y1="46.525" x2="1.24897" y2="18.1628" gradientUnits="userSpaceOnUse">
<stop stop-color="#8C2CF6" stop-opacity="0.4"/>
<stop offset="1" stop-color="#8C2CF6" stop-opacity="0"/>
</linearGradient>
</defs>
</svg>
