<svg width="48" height="48" viewBox="0 0 48 48" fill="none" xmlns="http://www.w3.org/2000/svg">
<rect x="11" y="6" width="26" height="36" fill="url(#paint0_linear_1211_208)"/>
<path d="M36 4C37.1046 4 38 4.89544 38 6V22H34V8H14V40H22V44H12C10.8954 44 10 43.1046 10 42V6C10 4.89544 10.8954 4 12 4H36ZM30 24C34.4182 24 38 27.5818 38 32C38 33.4838 37.596 34.8732 36.892 36.0644L41.3138 40.4852L38.4852 43.3138L34.0626 38.8932C32.8718 39.5964 31.483 40 30 40C25.5818 40 22 36.4182 22 32C22 27.5818 25.5818 24 30 24ZM30 28C27.7908 28 26 29.7908 26 32C26 34.2092 27.7908 36 30 36C32.2092 36 34 34.2092 34 32C34 29.7908 32.2092 28 30 28Z" fill="white"/>
<defs>
<linearGradient id="paint0_linear_1211_208" x1="35.2125" y1="50.1" x2="-1.86818" y2="28.3052" gradientUnits="userSpaceOnUse">
<stop stop-color="#8C2CF6" stop-opacity="0.4"/>
<stop offset="1" stop-color="#8C2CF6" stop-opacity="0"/>
</linearGradient>
</defs>
</svg>
