<svg width="48" height="48" viewBox="0 0 48 48" fill="none" xmlns="http://www.w3.org/2000/svg">
<g clip-path="url(#clip0_1175_37)">
<rect x="8.5" y="9" width="30" height="31" fill="url(#paint0_linear_1175_37)"/>
<path fill-rule="evenodd" clip-rule="evenodd" d="M6 10C6 8.93913 6.42143 7.92172 7.17157 7.17157C7.92172 6.42143 8.93913 6 10 6H38C39.0609 6 40.0783 6.42143 40.8284 7.17157C41.5786 7.92172 42 8.93913 42 10V38C42 39.0609 41.5786 40.0783 40.8284 40.8284C40.0783 41.5786 39.0609 42 38 42H10C8.93913 42 7.92172 41.5786 7.17157 40.8284C6.42143 40.0783 6 39.0609 6 38V10ZM38 10H10V16H38V10ZM10 38V20H18V38H10ZM22 38H38V20H22V38Z" fill="white"/>
</g>
<defs>
<linearGradient id="paint0_linear_1175_37" x1="36.4375" y1="46.975" x2="0.908769" y2="18.9933" gradientUnits="userSpaceOnUse">
<stop stop-color="#8C2CF6" stop-opacity="0.4"/>
<stop offset="1" stop-color="#8C2CF6" stop-opacity="0"/>
</linearGradient>
<clipPath id="clip0_1175_37">
<rect width="48" height="48" fill="white"/>
</clipPath>
</defs>
</svg>
