<svg width="48" height="48" viewBox="0 0 48 48" fill="none" xmlns="http://www.w3.org/2000/svg">
<path d="M20.9995 4.00098C23.5015 4.00098 25.8795 4.54098 28.0175 5.51298C26.9859 6.42798 26.3008 7.67028 26.0775 9.03098C23.5058 7.93975 20.651 7.70597 17.9361 8.36428C15.2211 9.02258 12.7905 10.538 11.0042 12.6859C9.21794 14.8338 8.17111 17.5 8.01882 20.2895C7.86652 23.0789 8.61685 25.8432 10.1586 28.1729C11.7004 30.5025 13.9517 32.2735 16.5788 33.2235C19.206 34.1734 22.0692 34.2519 24.7444 33.4471C27.4196 32.6423 29.7644 30.9972 31.4314 28.7555C33.0984 26.5137 33.9989 23.7946 33.9995 21.001L33.9895 20.463C35.0615 21.423 36.4675 21.993 37.9715 22.001C37.7726 25.472 36.5093 28.7974 34.3535 31.525L41.6575 38.829C42.0218 39.2062 42.2234 39.7114 42.2188 40.2358C42.2143 40.7602 42.0039 41.2618 41.6331 41.6326C41.2623 42.0034 40.7607 42.2138 40.2363 42.2183C39.7119 42.2229 39.2067 42.0213 38.8295 41.657L31.5255 34.353C29.3964 36.0308 26.897 37.1753 24.2358 37.6908C21.5745 38.2062 18.8285 38.0779 16.227 37.3163C13.6254 36.5548 11.2437 35.1821 9.2805 33.3129C7.3173 31.4437 5.82955 29.1322 4.94137 26.5711C4.05319 24.01 3.79033 21.2736 4.17472 18.5903C4.55912 15.907 5.57962 13.3544 7.15109 11.1457C8.72256 8.93696 10.7994 7.13604 13.2084 5.89317C15.6175 4.6503 18.2888 4.00153 20.9995 4.00098ZM37.9995 2.00098C38.3736 2.00098 38.7403 2.10593 39.0578 2.30392C39.3753 2.50191 39.6309 2.78498 39.7955 3.12098L39.8915 3.35498L40.1515 4.11098C40.4259 4.91534 40.868 5.65224 41.4487 6.27286C42.0293 6.89349 42.7352 7.38368 43.5195 7.71098L43.8895 7.85098L44.6455 8.10898C45.0199 8.2367 45.348 8.47257 45.5883 8.78677C45.8286 9.10097 45.9704 9.47937 45.9956 9.87413C46.0209 10.2689 45.9285 10.6623 45.7302 11.0045C45.5319 11.3468 45.2365 11.6226 44.8815 11.797L44.6455 11.893L43.8895 12.153C43.0851 12.4274 42.3482 12.8695 41.7276 13.4502C41.107 14.0308 40.6168 14.7366 40.2895 15.521L40.1495 15.891L39.8915 16.647C39.7635 17.0213 39.5275 17.3492 39.2132 17.5893C38.8989 17.8294 38.5204 17.971 38.1257 17.996C37.7309 18.0211 37.3376 17.9285 36.9955 17.73C36.6533 17.5315 36.3777 17.2361 36.2035 16.881L36.1075 16.647L35.8475 15.891C35.5731 15.0866 35.1309 14.3497 34.5503 13.7291C33.9697 13.1085 33.2638 12.6183 32.4795 12.291L32.1095 12.151L31.3535 11.893C30.9791 11.7653 30.651 11.5294 30.4107 11.2152C30.1704 10.901 30.0286 10.5226 30.0033 10.1278C29.9781 9.73306 30.0704 9.33968 30.2688 8.99741C30.4671 8.65515 30.7624 8.37938 31.1175 8.20498L31.3535 8.10898L32.1095 7.84898C32.9138 7.57457 33.6507 7.13242 34.2714 6.55179C34.892 5.97116 35.3822 5.26531 35.7095 4.48098L35.8495 4.11098L36.1075 3.35498C36.2422 2.96015 36.4971 2.61735 36.8363 2.37456C37.1756 2.13176 37.5823 2.00114 37.9995 2.00098Z" fill="white"/>
<path d="M20.9996 10.001C22.8536 10.001 24.6016 10.461 26.1356 11.271C26.3546 12.2818 26.8311 13.2188 27.519 13.9912C28.2069 14.7635 29.0827 15.3449 30.0616 15.679L30.7576 15.917C31.8673 18.0462 32.2499 20.48 31.8469 22.8469C31.444 25.2139 30.2777 27.3841 28.526 29.0262C26.7743 30.6683 24.5334 31.6921 22.1454 31.9415C19.7574 32.1909 17.3533 31.652 15.3002 30.4073C13.247 29.1625 11.6575 27.2801 10.7743 25.0475C9.89101 22.8148 9.76252 20.3545 10.4084 18.042C11.0543 15.7294 12.439 13.6917 14.3514 12.2399C16.2637 10.788 18.5985 10.0017 20.9996 10.001Z" fill="url(#paint0_linear_1176_63)"/>
<defs>
<linearGradient id="paint0_linear_1176_63" x1="30.4905" y1="36.951" x2="5.09496" y2="16.2834" gradientUnits="userSpaceOnUse">
<stop stop-color="#8C2CF6" stop-opacity="0.4"/>
<stop offset="1" stop-color="#8C2CF6" stop-opacity="0"/>
</linearGradient>
</defs>
</svg>
