<svg width="48" height="48" viewBox="0 0 48 48" fill="none" xmlns="http://www.w3.org/2000/svg">
<circle cx="24" cy="24" r="16" fill="url(#paint0_linear_1175_42)"/>
<path d="M22 10.1418C15.8686 11.0188 11.0188 15.8686 10.1418 22H14V26H10.1418C11.0188 32.1314 15.8686 36.9812 22 37.8582V34H26V37.8582C32.1314 36.9812 36.9812 32.1314 37.8582 26H34V22H37.8582C36.9812 15.8686 32.1314 11.0188 26 10.1418V14H22V10.1418ZM6.10986 22C7.03216 13.6568 13.6568 7.03216 22 6.10986V2H26V6.10986C34.3432 7.03216 40.9678 13.6568 41.8902 22H46V26H41.8902C40.9678 34.3432 34.3432 40.9678 26 41.8902V46H22V41.8902C13.6568 40.9678 7.03216 34.3432 6.10986 26H2V22H6.10986ZM28 24C28 26.2092 26.2092 28 24 28C21.7908 28 20 26.2092 20 24C20 21.7908 21.7908 20 24 20C26.2092 20 28 21.7908 28 24Z" fill="white"/>
<defs>
<linearGradient id="paint0_linear_1175_42" x1="37.8" y1="47.2" x2="0.861134" y2="17.138" gradientUnits="userSpaceOnUse">
<stop stop-color="#8C2CF6" stop-opacity="0.4"/>
<stop offset="1" stop-color="#8C2CF6" stop-opacity="0"/>
</linearGradient>
</defs>
</svg>
