<svg width="48" height="48" viewBox="0 0 48 48" fill="none" xmlns="http://www.w3.org/2000/svg">
<g clip-path="url(#clip0_1176_45)">
<path d="M16.5 29.5L9.5 18.5L37.5 11.5L41 23L16.5 29.5Z" fill="url(#paint0_linear_1176_45)"/>
<path fill-rule="evenodd" clip-rule="evenodd" d="M41.4561 13.0342L43.5261 20.7622C43.6623 21.2697 43.6971 21.7989 43.6286 22.3198C43.5602 22.8407 43.3898 23.343 43.1271 23.798C42.8645 24.253 42.5148 24.6519 42.0981 24.9717C41.6813 25.2916 41.2056 25.5262 40.6981 25.6622L36.0001 26.9202V30.0002C36.0001 30.5307 36.2109 31.0394 36.5859 31.4144C36.961 31.7895 37.4697 32.0002 38.0001 32.0002H40.0001C40.0001 31.4698 40.2109 30.9611 40.5859 30.586C40.961 30.2109 41.4697 30.0002 42.0001 30.0002C42.5306 30.0002 43.0393 30.2109 43.4144 30.586C43.7894 30.9611 44.0001 31.4698 44.0001 32.0002V36.0002C44.0001 36.5307 43.7894 37.0394 43.4144 37.4144C43.0393 37.7895 42.5306 38.0002 42.0001 38.0002C41.4697 38.0002 40.961 37.7895 40.5859 37.4144C40.2109 37.0394 40.0001 36.5307 40.0001 36.0002H38.0001C36.4088 36.0002 34.8827 35.3681 33.7575 34.2429C32.6323 33.1177 32.0001 31.5915 32.0001 30.0002V27.9922L18.9761 31.4802C18.1364 31.7051 17.2462 31.6503 16.4404 31.3241C15.6346 30.9978 14.957 30.418 14.5101 29.6722L8.47814 19.6202C8.23945 19.222 8.09644 18.7739 8.06035 18.311C8.02426 17.8482 8.09609 17.3832 8.27018 16.9529C8.44428 16.5225 8.71588 16.1384 9.06361 15.8308C9.41135 15.5232 9.82573 15.3005 10.2741 15.1802L34.1081 8.79423C35.6451 8.38249 37.2826 8.59809 38.6606 9.39359C40.0386 10.1891 41.0441 11.4974 41.4561 13.0342ZM5.66614 20.6302C6.08789 20.3811 6.58638 20.2955 7.06709 20.3895C7.5478 20.4835 7.9773 20.7506 8.27414 21.1402L8.40414 21.3342L11.6541 26.8322C11.9099 27.2712 11.9891 27.7911 11.8754 28.2863C11.7618 28.7816 11.464 29.215 11.0424 29.4986C10.6208 29.7822 10.1071 29.8947 9.60561 29.8133C9.1041 29.7319 8.65236 29.4626 8.34214 29.0602L8.21214 28.8682L4.96214 23.3682C4.82841 23.1421 4.74053 22.8919 4.70353 22.6318C4.66653 22.3717 4.68113 22.1068 4.74651 21.8524C4.81189 21.5979 4.92675 21.3589 5.08455 21.1488C5.24234 20.9388 5.43997 20.7639 5.66614 20.6302ZM35.1441 12.6562L12.5901 18.6982L17.9381 27.6182L39.6641 21.7982L37.5921 14.0702C37.4548 13.5582 37.1198 13.1217 36.6608 12.8566C36.2018 12.5915 35.6563 12.5194 35.1441 12.6562Z" fill="white"/>
</g>
<defs>
<linearGradient id="paint0_linear_1176_45" x1="38.8344" y1="33.55" x2="18.8748" y2="5.12344" gradientUnits="userSpaceOnUse">
<stop stop-color="#8C2CF6" stop-opacity="0.4"/>
<stop offset="1" stop-color="#8C2CF6" stop-opacity="0"/>
</linearGradient>
<clipPath id="clip0_1176_45">
<rect width="48" height="48" fill="white"/>
</clipPath>
</defs>
</svg>
