<svg width="48" height="48" viewBox="0 0 48 48" fill="none" xmlns="http://www.w3.org/2000/svg">
<g clip-path="url(#clip0_1124_174)">
<path d="M23.9409 15.1392C23.5128 15.1925 23.117 15.3945 22.8227 15.71C22.5284 16.0255 22.3544 16.4344 22.3309 16.8652C22.3049 17.2552 22.3109 17.2832 23.1909 19.5592C25.1909 24.7392 25.6749 25.9872 25.7569 26.1632C25.9549 26.5892 26.2309 26.9892 26.5769 27.3472C26.8449 27.6232 27.0209 27.7712 27.3169 27.9692C27.8369 28.3212 28.0969 28.4172 30.1269 29.0232C32.1049 29.6132 33.1849 30.0032 34.1149 30.4692C35.3209 31.0732 36.1629 31.7572 36.6949 32.5712C37.0769 33.1552 37.4149 34.2012 37.5629 35.2552C37.6209 35.6672 37.6209 36.5772 37.5629 36.9492C37.4672 37.6804 37.2104 38.3813 36.8109 39.0012C36.6109 39.3032 36.6809 39.2532 36.9729 38.8852C37.8029 37.8452 38.649 36.0692 39.0809 34.4592C39.6036 32.4924 39.6733 30.4328 39.2849 28.4352C38.9157 26.5361 38.1351 24.741 36.998 23.1758C35.8609 21.6106 34.3949 20.3134 32.7029 19.3752C31.825 18.9035 30.9436 18.4382 30.0589 17.9792L29.5509 17.7132C28.5003 17.1631 27.4503 16.6118 26.4009 16.0592C25.3049 15.4792 24.8409 15.2472 24.7089 15.2072C24.5194 15.1566 24.3249 15.1264 24.1289 15.1172L23.9429 15.1372L23.9409 15.1392Z" fill="url(#paint0_radial_1124_174)"/>
<path d="M26.3279 34.4809C26.191 34.5606 26.0563 34.6439 25.9239 34.7309C24.7257 35.4718 23.529 36.2151 22.3339 36.9609C21.676 37.3726 21.0167 37.7819 20.3559 38.1889L19.4299 38.7649C18.4342 39.4012 17.4328 40.0285 16.4259 40.6469C15.7739 41.0469 15.0179 41.3149 14.2459 41.4209C13.8859 41.4689 13.2059 41.4689 12.8459 41.4209C11.8894 41.2947 10.9815 40.9241 10.2099 40.3449C9.81065 40.0207 9.44664 39.6553 9.12388 39.2549C8.62133 38.5788 8.27563 37.7993 8.11188 36.9729C8.0898 36.8504 8.06244 36.729 8.02988 36.6089C8.01388 36.5929 8.04188 36.8849 8.09388 37.2689C8.14788 37.6669 8.26388 38.2429 8.38788 38.7349C9.35188 42.5489 12.0879 45.6489 15.7979 47.1249C16.8608 47.5486 17.9763 47.8258 19.1139 47.9489C19.5539 47.9989 20.8019 48.0189 21.2619 47.9829C23.3699 47.8229 25.2059 47.1969 27.0879 45.9989C27.7119 45.6005 28.3365 45.2032 28.9619 44.8069L29.7299 44.3189L31.0979 43.4489L31.5659 43.1509L31.5839 43.1409L31.6339 43.1069L31.6599 43.0929L32.0039 42.8729L33.1979 42.1129C34.7179 41.1509 35.1719 40.8129 35.8779 40.1169C36.1739 39.8249 36.6179 39.3289 36.6399 39.2669C36.6439 39.2529 36.7239 39.1309 36.8159 38.9949C37.2125 38.3763 37.4672 37.6776 37.5619 36.9489C37.6192 36.3857 37.6192 35.8181 37.5619 35.2549C37.4546 34.4715 37.2406 33.7064 36.9259 32.9809C36.4779 32.0369 35.5259 31.1809 34.1599 30.4909C33.8986 30.3501 33.6272 30.2291 33.3479 30.1289C33.3279 30.1289 32.0559 30.9129 30.5219 31.8689C29.4165 32.5561 28.3111 33.2434 27.2059 33.9309L26.3279 34.4809Z" fill="url(#paint1_radial_1124_174)"/>
<path d="M8.006 29.8931L8.014 36.5531L8.098 36.9391C8.366 38.1471 8.83 39.0191 9.638 39.8291C10.1465 40.3499 10.7549 40.7625 11.4268 41.0423C12.0987 41.3221 12.8202 41.4632 13.548 41.4571C14.62 41.4571 15.548 41.1871 16.506 40.5971L17.912 39.7271L19.024 39.0351V16.0071C19.024 11.3951 19.016 8.65712 19 8.44312C18.9172 7.11138 18.3502 5.85588 17.406 4.91312C17.116 4.62512 16.87 4.43312 16.132 3.92112C14.5952 2.85699 13.0592 1.79166 11.524 0.725116C10.812 0.231116 10.76 0.197116 10.542 0.119116C10.2866 0.0237579 10.0135 -0.0150868 9.74163 0.00525873C9.46974 0.0256043 9.2055 0.104656 8.96711 0.236968C8.72873 0.369279 8.52186 0.551703 8.36077 0.771668C8.19968 0.991634 8.08819 1.24391 8.034 1.51112C8.006 1.63712 8 3.31912 8 12.4471V23.2351L8.006 29.8931Z" fill="url(#paint2_linear_1124_174)"/>
</g>
<defs>
<radialGradient id="paint0_radial_1124_174" cx="0" cy="0" r="1" gradientTransform="matrix(-16.128 -13.3935 26.2285 -16.1283 2.50074 -33.3091)" gradientUnits="userSpaceOnUse">
<stop stop-color="#00CACC"/>
<stop offset="1" stop-color="#048FCE"/>
</radialGradient>
<radialGradient id="paint1_radial_1124_174" cx="0" cy="0" r="1" gradientTransform="matrix(24.4846 -17.4859 6.38351 24.4851 16.7822 34.807)" gradientUnits="userSpaceOnUse">
<stop stop-color="#00BBEC"/>
<stop offset="1" stop-color="#2756A9"/>
</radialGradient>
<linearGradient id="paint2_linear_1124_174" x1="13.512" y1="0" x2="13.512" y2="41.4573" gradientUnits="userSpaceOnUse">
<stop stop-color="#00BBEC"/>
<stop offset="1" stop-color="#2756A9"/>
</linearGradient>
<clipPath id="clip0_1124_174">
<rect width="48" height="48" fill="white"/>
</clipPath>
</defs>
</svg>
