<svg width="48" height="48" viewBox="0 0 48 48" fill="none" xmlns="http://www.w3.org/2000/svg">
<g clip-path="url(#clip0_1124_158)">
<path d="M13.7936 8H13.7456L13.6836 13.23H13.7276C17.1576 13.23 19.8196 15.944 25.6076 25.722L25.9576 26.316L25.9816 26.356L29.2216 21.48L29.1976 21.442C28.4896 20.2828 27.7574 19.1386 27.0016 18.01C26.2575 16.8963 25.4736 15.8096 24.6516 14.752C20.8256 9.864 17.6256 8 13.7936 8Z" fill="url(#paint0_linear_1124_158)"/>
<path d="M13.745 8C9.89904 8.02 6.49304 10.516 4.03904 14.34C4.03235 14.3513 4.02568 14.3627 4.01904 14.374L8.52704 16.836L8.54904 16.802C9.98504 14.636 11.769 13.254 13.685 13.232H13.727L13.791 8H13.745Z" fill="url(#paint1_linear_1124_158)"/>
<path d="M4.03711 14.3398L4.01511 14.3738C2.39911 16.8938 1.19511 19.9898 0.547109 23.3278L0.537109 23.3718L5.60511 24.5718L5.61311 24.5278C6.15311 21.5938 7.18511 18.8718 8.52511 16.8378L8.54711 16.8038L4.03711 14.3398Z" fill="url(#paint2_linear_1124_158)"/>
<path d="M5.614 24.5281L0.548 23.3281L0.538 23.3721C0.184 25.2081 0.004 27.0741 0 28.9441V28.9901L5.196 29.4561V29.4101C5.17709 27.7737 5.31776 26.1393 5.616 24.5301L5.614 24.5281Z" fill="url(#paint3_linear_1124_158)"/>
<path d="M5.35425 31.0755C5.26107 30.5382 5.20825 29.9947 5.19625 29.4495V29.4055L0.000246211 28.9375V28.9855C-0.00558496 30.0935 0.0921736 31.1997 0.292246 32.2895L5.36225 31.1195C5.35954 31.1048 5.35687 31.0902 5.35425 31.0755Z" fill="url(#paint4_linear_1124_158)"/>
<path d="M6.5392 33.78C5.9712 33.16 5.5712 32.268 5.3612 31.124L5.3532 31.082L0.283203 32.252L0.291203 32.294C0.675203 34.314 1.4272 35.994 2.5032 37.268L2.5312 37.302L6.5672 33.812C6.55715 33.8014 6.54915 33.7907 6.5392 33.78Z" fill="url(#paint5_linear_1124_158)"/>
<path d="M21.5599 19.3086C18.5039 24.0086 16.6519 26.9586 16.6519 26.9586C12.5819 33.3586 11.1739 34.7926 8.90991 34.7926C8.46467 34.8042 8.02219 34.7194 7.61277 34.544C7.20336 34.3687 6.8367 34.1069 6.53791 33.7766L2.50391 37.2646L2.53191 37.2986C4.01991 39.0366 6.11591 40.0006 8.71191 40.0006C12.6379 40.0006 15.4599 38.1446 20.4799 29.3406L24.0119 23.0806C23.2283 21.8012 22.412 20.5434 21.5599 19.3086Z" fill="#0082FB"/>
<path d="M27.0043 11.8926L26.9723 11.9246C26.1723 12.7846 25.4003 13.7406 24.6523 14.7566C25.4083 15.7226 26.1883 16.8046 27.0023 18.0166C27.9623 16.5306 28.8583 15.3266 29.7363 14.4026L29.7683 14.3706L27.0043 11.8926Z" fill="url(#paint6_linear_1124_158)"/>
<path d="M41.8367 11.426C39.7067 9.266 37.1667 8 34.4507 8C31.5867 8 29.1767 9.574 27.0047 11.888L26.9727 11.92L29.7367 14.4L29.7687 14.366C31.1987 12.872 32.5847 12.126 34.1207 12.126C35.7727 12.126 37.3207 12.906 38.6607 14.276L38.6907 14.308L41.8687 11.458L41.8367 11.426Z" fill="#0082FB"/>
<path d="M47.9957 28.2498C47.8757 21.3158 45.4557 15.1178 41.8677 11.4578L41.8357 11.4258L38.6597 14.2738L38.6897 14.3058C41.3897 17.0898 43.2437 22.2658 43.4117 28.2478V28.2938H47.9957V28.2498Z" fill="url(#paint7_linear_1124_158)"/>
<path d="M47.996 28.2999V28.2539H43.412V28.2979C43.42 28.5779 43.424 28.8619 43.424 29.1459C43.424 30.7759 43.182 32.0939 42.688 33.0459L42.666 33.0899L46.082 36.6539L46.108 36.6139C47.348 34.6939 48 32.0279 48 28.7939C48 28.6279 48 28.4639 47.996 28.2999Z" fill="url(#paint8_linear_1124_158)"/>
<path d="M42.688 33.0391L42.666 33.0791C42.238 33.8831 41.628 34.4191 40.832 34.6531L42.388 39.5771C42.6879 39.4757 42.9806 39.3541 43.264 39.2131C44.3715 38.6532 45.3134 37.8134 45.996 36.7771L46.084 36.6471L46.108 36.6071L42.688 33.0391Z" fill="url(#paint9_linear_1124_158)"/>
<path d="M39.8411 34.7878C39.3171 34.7878 38.8571 34.7098 38.4051 34.5078L36.8091 39.5518C37.7071 39.8578 38.6631 39.9958 39.7291 39.9958C40.7131 39.9958 41.6151 39.8498 42.4331 39.5658L40.8731 34.6418C40.5391 34.7418 40.1931 34.7918 39.8411 34.7878Z" fill="url(#paint10_linear_1124_158)"/>
<path d="M36.6453 33.0692L36.6173 33.0352L32.9453 36.8632L32.9773 36.8972C34.2513 38.2612 35.4693 39.1072 36.8513 39.5712L38.4453 34.5312C37.8633 34.2812 37.2993 33.8252 36.6453 33.0692Z" fill="url(#paint11_linear_1124_158)"/>
<path d="M36.6165 33.0295C35.5165 31.7455 34.1525 29.6055 32.0105 26.1495L29.2185 21.4775L29.1965 21.4375L25.9565 26.3135L25.9805 26.3535L27.9585 29.6895C29.8765 32.9095 31.4385 35.2375 32.9445 36.8595L32.9765 36.8915L36.6445 33.0635C36.6352 33.0522 36.6258 33.0409 36.6165 33.0295Z" fill="url(#paint12_linear_1124_158)"/>
</g>
<defs>
<linearGradient id="paint0_linear_1124_158" x1="25.4765" y1="24.3734" x2="15.8412" y2="11.7071" gradientUnits="userSpaceOnUse">
<stop offset="0.0006" stop-color="#0867DF"/>
<stop offset="0.4539" stop-color="#0668E1"/>
<stop offset="0.8591" stop-color="#0064E0"/>
</linearGradient>
<linearGradient id="paint1_linear_1124_158" x1="6.13664" y1="14.7042" x2="13.0116" y2="9.47167" gradientUnits="userSpaceOnUse">
<stop offset="0.1323" stop-color="#0064DF"/>
<stop offset="0.9988" stop-color="#0064E0"/>
</linearGradient>
<linearGradient id="paint2_linear_1124_158" x1="3.60198" y1="23.4593" x2="6.40478" y2="16.3825" gradientUnits="userSpaceOnUse">
<stop offset="0.0147" stop-color="#0072EC"/>
<stop offset="0.6881" stop-color="#0064DF"/>
</linearGradient>
<linearGradient id="paint3_linear_1124_158" x1="2.64132" y1="28.855" x2="2.98323" y2="24.2971" gradientUnits="userSpaceOnUse">
<stop offset="0.0731" stop-color="#007CF6"/>
<stop offset="0.9943" stop-color="#0072EC"/>
</linearGradient>
<linearGradient id="paint4_linear_1124_158" x1="2.79668" y1="30.8917" x2="2.69842" y2="30.1583" gradientUnits="userSpaceOnUse">
<stop offset="0.0731" stop-color="#007FF9"/>
<stop offset="1" stop-color="#007CF6"/>
</linearGradient>
<linearGradient id="paint5_linear_1124_158" x1="2.65158" y1="31.8597" x2="4.15151" y2="35.0513" gradientUnits="userSpaceOnUse">
<stop offset="0.0731" stop-color="#007FF9"/>
<stop offset="1" stop-color="#0082FB"/>
</linearGradient>
<linearGradient id="paint6_linear_1124_158" x1="26.4331" y1="16.1089" x2="28.242" y2="13.5998" gradientUnits="userSpaceOnUse">
<stop offset="0.2799" stop-color="#007FF8"/>
<stop offset="0.9141" stop-color="#0082FB"/>
</linearGradient>
<linearGradient id="paint7_linear_1124_158" x1="42.7453" y1="12.4775" x2="46.7631" y2="27.3045" gradientUnits="userSpaceOnUse">
<stop stop-color="#0082FB"/>
<stop offset="0.9995" stop-color="#0081FA"/>
</linearGradient>
<linearGradient id="paint8_linear_1124_158" x1="45.8693" y1="28.6454" x2="43.5122" y2="33.4245" gradientUnits="userSpaceOnUse">
<stop offset="0.0619" stop-color="#0081FA"/>
<stop offset="1" stop-color="#0080F9"/>
</linearGradient>
<linearGradient id="paint9_linear_1124_158" x1="42.4297" y1="36.9174" x2="44.3316" y2="35.618" gradientUnits="userSpaceOnUse">
<stop stop-color="#027AF3"/>
<stop offset="1" stop-color="#0080F9"/>
</linearGradient>
<linearGradient id="paint10_linear_1124_158" x1="37.9582" y1="37.2519" x2="41.4271" y2="37.2519" gradientUnits="userSpaceOnUse">
<stop stop-color="#0377EF"/>
<stop offset="0.9994" stop-color="#0279F1"/>
</linearGradient>
<linearGradient id="paint11_linear_1124_158" x1="35.162" y1="35.3422" x2="37.115" y2="36.4952" gradientUnits="userSpaceOnUse">
<stop offset="0.0019" stop-color="#0471E9"/>
<stop offset="1" stop-color="#0377EF"/>
</linearGradient>
<linearGradient id="paint12_linear_1124_158" x1="29.4039" y1="24.4849" x2="35.7833" y2="32.5304" gradientUnits="userSpaceOnUse">
<stop offset="0.2765" stop-color="#0867DF"/>
<stop offset="1" stop-color="#0471E9"/>
</linearGradient>
<clipPath id="clip0_1124_158">
<rect width="48" height="48" fill="white"/>
</clipPath>
</defs>
</svg>
