<svg width="48" height="48" viewBox="0 0 48 48" fill="none" xmlns="http://www.w3.org/2000/svg">
<path d="M24.0167 13.0716C24.0485 9.73185 24.0167 6.36028 24.0485 3.02051H30.8871C30.8553 3.62485 30.9507 4.19738 31.0461 4.76991L26.3704 5.1516L26.7521 31.9334C26.7839 33.0784 25.9569 35.6548 25.3844 36.6409C24.4938 38.1676 21.7902 39.5671 20.009 39.7262C18.8957 39.8216 18.0687 39.5353 17.0509 38.9946C16.2875 38.5811 15.874 36.291 15.6514 35.6866C17.4008 36.6727 19.6909 36.5772 21.3767 35.464C22.9989 34.4462 24.0803 32.5695 24.0803 30.5975C24.0167 24.7449 24.0167 18.8924 24.0167 13.0716ZM35.2765 11.1314C36.2307 11.7357 37.3122 12.2128 38.4254 12.4355C39.0934 12.5945 39.7295 12.6581 40.3975 12.6581V14.503C38.4254 14.0577 34.1632 12.8172 35.2765 11.1314Z" fill="#25F4EE"/>
<path d="M11.6749 19.6873C14.1241 18.1605 17.1139 17.5244 19.9766 17.9379V20.0371C17.3048 20.1008 15.0783 21.2458 12.9154 22.8362C11.2932 24.0449 10.18 25.2854 9.32115 27.1302C8.49416 28.8796 8.14428 30.3427 8.17609 32.283C8.17609 34.4141 8.74862 35.9408 9.76646 37.8174C10.2436 38.6762 11.166 39.9803 10.9433 40.9346C9.48019 39.9167 8.27151 38.549 7.38091 37.0223C6.17223 34.9866 5.56789 32.5692 5.6315 30.1837C5.72693 27.989 6.33127 25.8261 7.50814 23.9176C8.52597 22.2 9.98911 20.7051 11.6749 19.6873Z" fill="#25F4EE"/>
<path d="M25.9888 4.77051H31.1098C31.905 6.13822 31.8414 6.64714 32.2867 7.50594C32.9864 8.87365 33.5272 9.38257 35.0539 10.9093C35.1493 10.9729 35.2129 11.0366 35.2766 11.132C36.6125 12.6587 38.4255 13.7402 40.3975 14.1855C41.5426 15.0125 40.7474 18.3522 40.7474 20.1334C37.4076 20.1653 34.0043 18.8612 31.3006 16.8891C31.3006 21.1513 31.3006 25.0954 31.3324 29.3894C31.3324 29.9619 31.3643 30.5026 31.3324 31.107C31.1734 33.1745 30.2192 36.1962 29.1695 37.9774C28.2789 39.5359 27.0703 40.9354 25.6071 42.0169C23.7305 43.4164 21.4404 44.1798 19.1184 44.2434C17.9416 44.2752 16.7329 44.2116 15.5878 43.9571C13.9656 43.6073 12.4071 41.9851 11.0394 41.0309L10.9439 40.9354C10.276 40.2357 9.67165 39.4405 9.22635 38.5499C8.20851 36.7051 7.63598 34.6058 7.63598 32.4747C7.60418 30.5344 8.01767 28.5942 8.84466 26.8448C9.70346 25 10.9758 23.346 12.5661 22.1373C14.6972 20.5469 17.2736 19.6245 19.9454 19.5609C20.677 19.9108 20.1681 25.2862 20.1681 25.2862C19.3093 25 18.1642 25.0954 17.2736 25.318C16.1922 25.5407 15.6196 26.1768 14.7926 26.8766C14.2837 27.3219 13.8384 27.799 13.5521 28.4034C13.0114 29.4212 13.0432 29.5484 13.1386 30.6935C13.2659 31.7749 13.4567 32.9518 14.1883 33.7788C14.6654 34.3831 14.9835 35.3055 15.6196 35.719C16.1285 36.546 16.7965 37.1504 17.5281 37.5002C18.5459 38.041 19.691 38.2636 20.8042 38.1682C22.5854 38.041 24.2394 36.9595 25.13 35.401C25.7025 34.3831 25.957 33.079 25.957 31.9658C25.957 22.5826 25.9888 4.77051 25.9888 4.77051Z" fill="black"/>
<path d="M31.0463 4.77051C31.6506 4.80232 32.2232 4.77051 32.8593 4.77051C32.8593 6.74256 33.4955 8.74642 34.6405 10.3686C34.7996 10.5912 34.9268 10.7821 35.0858 10.9411C33.7817 10.1459 32.7639 8.90546 32.0641 7.53774C31.6188 6.71075 31.2689 5.75653 31.0463 4.77051ZM40.3976 14.1855C41.0656 14.3445 41.7017 14.4081 42.3697 14.4081V21.3103C38.9981 21.3421 35.6265 20.2289 32.8593 18.225V31.934C32.8911 32.9836 32.7957 34.0014 32.573 35.0193C31.9051 38.1046 30.1239 40.84 27.5475 42.6848C26.1798 43.6709 24.653 44.3388 23.0308 44.6887C21.0588 45.134 19.0231 45.1022 17.1147 44.5933C14.8246 43.9889 12.6617 42.7166 11.0713 40.9672C12.439 41.9533 13.9976 42.5894 15.6515 42.9393C16.7966 43.1938 18.0053 43.2574 19.1822 43.2256C21.5041 43.1619 23.7942 42.3986 25.6709 40.9991C27.134 39.9176 28.3109 38.5499 29.2333 36.9595C30.2829 35.1465 30.9191 33.1108 31.0781 31.0434C31.1099 30.4708 31.1099 29.9301 31.0781 29.3258C31.0145 25.0954 31.0145 20.8332 31.0145 16.571C33.7499 18.5431 37.0897 19.5927 40.4295 19.5609C40.3976 17.7797 40.4295 15.9667 40.3976 14.1855Z" fill="#FE2C55"/>
<path d="M19.9768 19.5283C20.6447 19.5283 21.3445 19.5601 21.9807 19.6556V26.7486C21.0264 26.4305 19.9768 26.3987 18.9908 26.6214C17.1141 27.0348 15.5556 28.4662 14.8876 30.2792C14.2197 32.0604 14.4741 34.1597 15.5874 35.6864C14.9194 35.3048 14.3787 34.7958 13.9016 34.1915C13.2018 33.3645 12.7247 32.2831 12.5975 31.2016C12.4703 30.0884 12.6611 28.8797 13.2018 27.8936C13.4881 27.2893 13.9334 26.7804 14.4423 26.3351C15.2693 25.6353 16.3189 25.19 17.3368 24.9038C18.1956 24.7129 19.118 24.6811 19.945 24.9674C19.9768 24.6811 19.9768 20.2281 19.9768 19.5283Z" fill="#FE2C55"/>
</svg>
