<svg width="48" height="48" viewBox="0 0 48 48" fill="none" xmlns="http://www.w3.org/2000/svg">
<path d="M44.8096 19.7577C44.8136 19.7897 44.8296 19.7977 44.9496 19.7957H46.3996C46.639 19.7965 46.8756 19.7432 47.0917 19.64C47.3077 19.5368 47.4978 19.3861 47.6477 19.1994C47.7975 19.0126 47.9034 18.7945 47.9574 18.5612C48.0114 18.3278 48.0121 18.0854 47.9595 17.8517C47.8746 17.4609 47.6454 17.1166 47.3176 16.8875C46.9899 16.6583 46.5877 16.5613 46.1916 16.6157C45.8068 16.666 45.4538 16.8552 45.1989 17.1477C44.9439 17.4402 44.8048 17.8158 44.8075 18.2037C44.8075 18.4057 44.8036 19.5357 44.8096 19.7577ZM21.7915 29.3737C21.3855 29.3757 19.0855 29.3817 18.4215 29.3797C17.9009 29.376 17.384 29.291 16.8895 29.1277C16.8779 29.1243 16.8653 29.1252 16.8542 29.1304C16.8432 29.1355 16.8344 29.1446 16.8295 29.1557L15.3995 32.2537C15.3944 32.265 15.3935 32.2778 15.3972 32.2896C15.4009 32.3014 15.4089 32.3114 15.4195 32.3177C15.6415 32.4377 16.0915 32.5657 16.4095 32.5657C17.7295 32.5857 19.0495 32.5697 20.3715 32.5657C20.3942 32.5657 20.4095 32.5557 20.4175 32.5357L21.8415 29.4457C21.8454 29.4379 21.8472 29.4291 21.8466 29.4204C21.846 29.4116 21.8432 29.4032 21.8383 29.3959C21.8334 29.3886 21.8267 29.3827 21.8189 29.3788C21.811 29.3749 21.8023 29.3732 21.7935 29.3737H21.7915ZM0.953548 19.8197C0.811548 19.8197 0.801548 19.8237 0.801548 19.8397L0.781548 19.9997C0.727548 20.7937 0.705548 20.9897 0.313548 26.1197C0.289548 26.5997 0.245548 26.8977 0.0435482 27.3337C-0.00845182 27.4477 -0.0224518 27.4177 0.0495482 27.5577C0.141548 27.7417 1.41155 30.6037 1.62355 31.0377C1.63955 31.0677 1.64555 31.0777 1.65755 31.0777C1.67355 31.0777 1.72355 31.0257 1.75155 30.9897C2.04355 30.6137 2.29088 30.2097 2.49355 29.7777C3.10555 28.5077 3.37355 27.1277 3.46555 26.3657C3.49355 26.1457 3.50755 25.9257 3.52555 25.7057L3.93355 20.4737L3.97755 19.8877C3.98355 19.8297 3.97755 19.8217 3.91755 19.8197H0.953548ZM15.3595 27.3337C15.1797 26.9544 15.0874 26.5395 15.0895 26.1197C15.0815 25.9517 15.0275 25.3397 14.6195 19.9997C14.6186 19.9445 14.6119 19.8896 14.5995 19.8357C14.5915 19.8137 14.4955 19.8197 14.4475 19.8197H11.4875C11.4275 19.8217 11.4195 19.8297 11.4275 19.8877L11.4695 20.4737C11.6215 22.4377 11.7769 24.4017 11.9355 26.3657C12.0355 27.1657 12.3075 28.5357 12.9095 29.7777C13.1155 30.2077 13.3555 30.6157 13.6495 30.9897C13.6795 31.0257 13.7235 31.0917 13.7455 31.0877C13.7855 31.0817 15.2295 27.8037 15.3535 27.5577C15.4255 27.4177 15.4135 27.4477 15.3595 27.3337ZM23.0815 25.5077H21.3375C21.2952 25.5081 21.2534 25.4979 21.2161 25.4779C21.1788 25.4579 21.1471 25.4288 21.124 25.3933C21.1008 25.3579 21.087 25.3171 21.0838 25.2749C21.0806 25.2327 21.0881 25.1903 21.1055 25.1517L23.4615 19.9017C23.4649 19.8941 23.4662 19.8858 23.4655 19.8775C23.4648 19.8692 23.4621 19.8612 23.4575 19.8543C23.4529 19.8473 23.4467 19.8416 23.4394 19.8377C23.4321 19.8338 23.4239 19.8317 23.4155 19.8317L20.7795 19.8257C20.7298 19.8259 20.6808 19.8136 20.637 19.7898C20.5933 19.7661 20.5562 19.7317 20.5293 19.6898C20.5024 19.6479 20.4865 19.6 20.483 19.5503C20.4796 19.5007 20.4887 19.4509 20.5095 19.4057L22.2615 15.4977C22.2649 15.4901 22.2662 15.4818 22.2655 15.4735C22.2648 15.4652 22.2621 15.4572 22.2575 15.4503C22.2529 15.4433 22.2467 15.4376 22.2394 15.4337C22.2321 15.4298 22.2239 15.4277 22.2155 15.4277H19.0955C19.0729 15.4277 19.0569 15.4377 19.0475 15.4577L17.1955 19.5937C17.0255 19.9317 16.5675 20.8617 16.3975 21.4697C16.3597 21.5933 16.3461 21.723 16.3575 21.8517C16.3645 22.0063 16.4103 22.1565 16.4907 22.2887C16.5711 22.4208 16.6835 22.5306 16.8175 22.6077C17.1006 22.7598 17.4162 22.8415 17.7375 22.8457H18.9175C18.9995 22.8457 17.5415 25.8097 17.2495 26.7897C17.2143 26.9008 17.1987 27.0173 17.2035 27.1337C17.2056 27.2947 17.249 27.4524 17.3296 27.5918C17.4101 27.7312 17.5251 27.8475 17.6635 27.9297C17.9635 28.1137 18.3475 28.1697 18.6135 28.1697L21.9335 28.1677C21.9562 28.1677 21.9715 28.1577 21.9795 28.1377L23.1295 25.5777C23.133 25.57 23.1343 25.5614 23.1335 25.553C23.1327 25.5445 23.1298 25.5364 23.125 25.5294C23.1202 25.5224 23.1137 25.5167 23.1061 25.5129C23.0985 25.5092 23.09 25.5074 23.0815 25.5077ZM9.22155 15.6337H6.19955C6.19064 15.6332 6.18172 15.6345 6.17335 15.6376C6.16497 15.6407 6.15734 15.6455 6.15094 15.6517C6.14453 15.6579 6.1395 15.6654 6.13616 15.6737C6.13282 15.6819 6.13125 15.6908 6.13155 15.6997C6.13155 17.7957 6.11155 21.2897 6.11155 29.3577C6.11155 29.9337 5.57355 29.8817 5.55155 29.8817H4.07155C3.99155 29.8837 3.98355 29.8897 3.99155 29.9757C3.99355 30.0497 4.92155 32.1037 5.10155 32.5017C5.12155 32.5417 5.16155 32.5677 5.20355 32.5677C5.51755 32.5737 6.73755 32.5857 7.07955 32.5397C7.38555 32.4997 7.67955 32.4197 7.95555 32.2757C8.55555 31.9637 8.93555 31.4377 9.14555 30.7457C9.24955 30.4017 9.29555 30.0397 9.29555 29.6797C9.29955 25.0197 9.29488 20.3591 9.28155 15.6977C9.28214 15.6892 9.28089 15.6806 9.27788 15.6726C9.27488 15.6645 9.27018 15.6572 9.26412 15.6512C9.25805 15.6451 9.25076 15.6404 9.24272 15.6374C9.23469 15.6344 9.22611 15.6331 9.21755 15.6337H9.22155ZM32.7896 29.4257C32.7869 29.3991 32.7709 29.3844 32.7416 29.3817H29.8115C29.7155 29.3797 29.7135 29.3777 29.7115 29.2837V19.9637C29.7115 19.8197 29.7015 19.8237 29.8515 19.8237H31.5775C31.7375 19.8237 31.7275 19.8317 31.7275 19.6757V16.7857C31.7275 16.6217 31.7395 16.6337 31.5675 16.6337H24.5675C24.4395 16.6337 24.4175 16.6217 24.4175 16.7797V19.6697C24.4175 19.8357 24.4055 19.8237 24.5775 19.8237H26.2855C26.4355 19.8237 26.4255 19.8157 26.4255 19.9637V29.2117C26.4255 29.4017 26.4415 29.3797 26.2555 29.3797C25.5155 29.3797 24.0355 29.3757 23.6475 29.3797C23.5515 29.3817 23.5275 29.4397 23.5275 29.4397L22.1335 32.4777C22.1335 32.4777 22.1055 32.5277 22.1175 32.5497C22.1295 32.5717 22.1435 32.5657 22.2335 32.5657C25.7295 32.5697 29.2249 32.5711 32.7196 32.5697C32.7796 32.5677 32.7876 32.5577 32.7896 32.5037V29.4257ZM41.1436 22.5657C41.1436 22.5937 41.1302 22.6097 41.1035 22.6137C40.4115 22.6257 39.7195 22.6217 39.0295 22.6217C39.0015 22.6177 38.9869 22.6017 38.9855 22.5737C38.9776 21.7057 38.9709 20.8371 38.9655 19.9677C38.9655 19.8237 38.9535 19.8257 39.1055 19.8277L40.5715 19.8217C40.6535 19.8217 40.7336 19.8257 40.8116 19.8517C40.9976 19.9017 41.1315 20.0657 41.1415 20.2597C41.1535 21.1217 41.1455 22.5657 41.1436 22.5657ZM46.4836 23.0537C45.9382 22.7685 45.333 22.6163 44.7175 22.6097H44.3576C44.2775 22.6077 44.2775 22.6037 44.2735 22.5297V20.4197C44.2749 20.1557 44.2582 19.8931 44.2235 19.6317C44.1766 19.2648 44.0734 18.9072 43.9175 18.5717C43.6343 17.9626 43.1585 17.4636 42.5635 17.1517C41.9473 16.8235 41.2617 16.6466 40.5635 16.6357C40.2575 16.6297 39.4296 16.6357 39.1236 16.6357C38.9836 16.6357 38.9875 16.6437 38.9875 16.5057V15.5197C38.9875 15.4577 38.9675 15.4377 38.8955 15.4417H35.8596C35.8596 15.4417 35.8275 15.4417 35.8135 15.4557C35.8029 15.4664 35.7976 15.4817 35.7976 15.5017V16.5937C35.7816 16.6657 35.6835 16.6237 35.6335 16.6377H33.7336C33.6896 16.6417 33.6776 16.6537 33.6735 16.7017V19.6637C33.6735 19.8437 33.6656 19.8277 33.8376 19.8277H35.6636C35.8276 19.8277 35.8075 20.0837 35.8075 20.0837V22.3797C35.8075 22.3797 35.8135 22.6137 35.6875 22.6137H32.7235C32.5875 22.6137 32.6035 22.7777 32.6035 22.7777V25.6677C32.6035 25.6677 32.5835 25.8037 32.7315 25.8037H35.6455C35.8096 25.8037 35.7976 25.7917 35.7976 25.9617V32.4117C35.7976 32.5877 35.7836 32.5737 35.9616 32.5737H38.8215C39.0015 32.5737 38.9855 32.5877 38.9855 32.4137V25.8737C38.9855 25.8157 38.9975 25.8037 39.0515 25.8037L43.6976 25.7977C43.8906 25.7993 44.0813 25.8409 44.2575 25.9197C44.4164 25.9899 44.5522 26.1035 44.6491 26.2476C44.7461 26.3916 44.8003 26.5602 44.8055 26.7337C44.8215 27.5237 44.8116 28.3137 44.8116 29.1037C44.8116 29.6217 44.5975 29.8377 44.1516 29.8377H41.7155C41.6695 29.8417 41.6576 29.8537 41.6595 29.9037C42.0275 30.7771 42.4076 31.6457 42.7995 32.5097C42.8075 32.5244 42.819 32.5368 42.8329 32.5459C42.8469 32.555 42.8629 32.5604 42.8796 32.5617C43.2196 32.5717 43.5596 32.5657 43.8996 32.5677C44.1996 32.5637 44.9335 32.5757 45.2315 32.5477C45.508 32.5262 45.7815 32.4759 46.0476 32.3977C47.2276 32.0377 47.9976 31.0017 47.9995 29.7717V25.8097C48.0009 25.5551 47.9782 25.3017 47.9315 25.0497C47.9315 25.2057 47.8736 23.7677 46.4836 23.0537Z" fill="#FF2442"/>
</svg>
